<svg width="129" height="44" viewBox="0 0 129 44" fill="none" xmlns="http://www.w3.org/2000/svg">
<mask id="mask0_695_3670" style="mask-type:luminance" maskUnits="userSpaceOnUse" x="0" y="0" width="129" height="44">
<path d="M0 0H129V44H0V0Z" fill="white" style="fill:white;fill-opacity:1;"/>
</mask>
<g mask="url(#mask0_695_3670)">
<path d="M118.727 0H10.279C9.883 0 9.493 0 9.099 0.002C8.769 0.005 8.441 0.011 8.108 0.016C7.384 0.025 6.662 0.09 5.948 0.211C5.23338 0.334736 4.542 0.567447 3.898 0.901C3.25194 1.23878 2.66307 1.67613 2.153 2.197C1.63722 2.71975 1.20846 3.3217 0.883 3.98C0.555118 4.64038 0.328255 5.34625 0.21 6.074C0.09 6.802 0.025 7.538 0.016 8.276C0.006 8.613 0.006 8.952 0 9.289V34.714C0.005 35.056 0.006 35.387 0.016 35.729C0.025 36.467 0.089 37.203 0.21 37.931C0.328034 38.6588 0.554907 39.3647 0.883 40.025C1.20827 40.6813 1.63709 41.281 2.153 41.801C2.663 42.326 3.253 42.764 3.898 43.098C4.54202 43.4323 5.23332 43.6664 5.948 43.792C6.662 43.912 7.384 43.976 8.108 43.986C8.441 43.994 8.768 43.998 9.098 43.998C9.493 44 9.883 44 10.278 44H118.727C119.115 44 119.509 44 119.896 43.998C120.224 43.998 120.561 43.993 120.89 43.986C121.612 43.976 122.333 43.912 123.045 43.792C123.762 43.6655 124.456 43.4316 125.103 43.098C125.75 42.7623 126.339 42.3243 126.846 41.801C127.359 41.281 127.789 40.681 128.119 40.025C128.446 39.365 128.671 38.66 128.787 37.931C128.907 37.203 128.975 36.467 128.987 35.729C128.991 35.387 128.991 35.056 128.991 34.715C129 34.315 129 33.917 129 33.511V10.49C129 10.087 129 9.687 128.991 9.289C128.991 8.952 128.991 8.613 128.987 8.276C128.974 7.53809 128.908 6.8021 128.787 6.074C128.67 5.34648 128.445 4.64061 128.119 3.98C127.461 2.66307 126.406 1.58582 125.103 0.9C124.456 0.567209 123.762 0.33456 123.045 0.21C122.333 0.0889216 121.612 0.0240548 120.89 0.016C120.561 0.011 120.224 0.004 119.896 0.002C119.509 0 119.115 0 118.727 0Z" fill="#F6F7F8" style="fill:#F6F7F8;fill:color(display-p3 0.9647 0.9686 0.9725);fill-opacity:1;"/>
<path d="M9.155 42.998C8.827 42.998 8.507 42.993 8.181 42.986C7.50645 42.9771 6.83354 42.9173 6.168 42.807C5.54636 42.6975 4.94488 42.4945 4.384 42.205C3.82543 41.9166 3.3172 41.5397 2.879 41.089C2.43162 40.641 2.0601 40.1233 1.779 39.556C1.49386 38.9822 1.29698 38.3686 1.195 37.736C1.085 37.056 1.025 36.368 1.015 35.678C1.01 35.446 1 34.675 1 34.675V9.311C1 9.311 1.01 8.551 1.016 8.329C1.02408 7.64019 1.08358 6.95295 1.194 6.273C1.297 5.638 1.494 5.023 1.779 4.448C2.06 3.88 2.429 3.362 2.873 2.913C3.31421 2.46193 3.8238 2.08328 4.383 1.791C4.94252 1.50263 5.54276 1.30131 6.163 1.194C6.83077 1.08269 7.50607 1.02252 8.183 1.014L9.157 1H119.84L120.823 1.014C121.493 1.022 122.162 1.082 122.824 1.192C123.451 1.3009 124.058 1.50385 124.624 1.794C125.747 2.3866 126.656 3.31565 127.225 4.451C127.505 5.021 127.699 5.631 127.801 6.261C127.913 6.947 127.976 7.639 127.988 8.334C127.991 8.644 127.991 8.979 127.991 9.311C128 9.723 128 10.115 128 10.51V33.489C128 33.888 128 34.277 127.991 34.669C127.991 35.027 127.991 35.354 127.987 35.69C127.975 36.3719 127.913 37.052 127.803 37.725C127.703 38.3621 127.507 38.9804 127.222 39.559C126.939 40.1207 126.57 40.6343 126.127 41.081C125.689 41.5341 125.18 41.913 124.621 42.203C124.056 42.4945 123.45 42.6982 122.824 42.807C122.158 42.917 121.486 42.977 120.811 42.986C120.496 42.994 120.165 42.998 119.844 42.998L118.677 43L9.155 42.998Z" fill="#121212" style="fill:#121212;fill:color(display-p3 0.0706 0.0706 0.0706);fill-opacity:1;"/>
<path d="M43.0609 29.5478L43.0329 29.3768C42.7891 27.9123 42.3121 26.4963 41.6199 25.1828C40.4392 22.9386 38.678 21.0523 36.5199 19.7208C36.5259 19.7128 36.5299 19.7028 36.5359 19.6938L37.3929 18.2288C37.8717 17.4087 38.3507 16.5887 38.8299 15.7688C38.9467 15.57 39.0076 15.3432 39.006 15.1126C39.0044 14.8819 38.9405 14.656 38.8209 14.4588C38.7104 14.2752 38.5557 14.1222 38.3709 14.0138C38.2216 13.9263 38.0565 13.8691 37.8851 13.8454C37.7137 13.8217 37.5393 13.8321 37.3719 13.8758C37.0397 13.9632 36.7557 14.1786 36.5819 14.4748L35.9819 15.5028L35.1439 16.9338L34.2879 18.3998L34.1939 18.5598L34.0639 18.5098C32.4458 17.8992 30.7303 17.5875 29.0009 17.5898H28.8549C27.1375 17.6057 25.437 17.9309 23.8349 18.5498C23.8049 18.4998 23.7749 18.4498 23.7469 18.3998L22.8909 16.9348L22.0539 15.5038L21.4529 14.4758C21.3284 14.2634 21.1461 14.0908 20.9273 13.978C20.7085 13.8652 20.4621 13.817 20.2169 13.8388C19.9517 13.8614 19.6999 13.9648 19.4953 14.1351C19.2908 14.3053 19.1433 14.5342 19.0729 14.7908C19.029 14.9546 19.0179 15.1254 19.0404 15.2934C19.0629 15.4615 19.1185 15.6234 19.2039 15.7698L19.8049 16.7978L20.6419 18.2288L21.4989 19.6948L21.5059 19.7068C19.9039 20.694 18.5129 21.9881 17.4129 23.5148C16.7292 24.4638 16.1675 25.4948 15.7409 26.5838C15.3868 27.4858 15.1278 28.4221 14.9679 29.3778L14.9409 29.5488C14.9089 29.7538 14.8819 29.9588 14.8589 30.1668H43.1399C43.1179 29.9588 43.0899 29.7538 43.0599 29.5488L43.0609 29.5478Z" fill="#F6F7F8" style="fill:#F6F7F8;fill:color(display-p3 0.9647 0.9686 0.9725);fill-opacity:1;"/>
<path d="M36.2462 26.2397C36.7892 25.8667 36.8692 25.0037 36.4222 24.3127C35.9772 23.6217 35.1752 23.3627 34.6322 23.7367C34.0882 24.1097 34.0092 24.9717 34.4552 25.6637C34.9012 26.3537 35.7032 26.6127 36.2462 26.2397ZM23.6782 25.6637C24.1512 24.9717 24.0672 24.1097 23.4912 23.7367C22.9162 23.3637 22.0672 23.6217 21.5952 24.3127C21.1232 25.0047 21.2072 25.8667 21.7822 26.2397C22.3572 26.6127 23.2062 26.3547 23.6782 25.6637Z" fill="#121212" style="fill:#121212;fill:color(display-p3 0.0706 0.0706 0.0706);fill-opacity:1;"/>
<path d="M55.392 19.497C56.704 19.497 57.794 20.176 58.312 20.907V19.677H60.313V28.809H58.873C58.7978 28.8093 58.7233 28.7946 58.6539 28.7659C58.5844 28.7371 58.5213 28.6949 58.4683 28.6416C58.4153 28.5883 58.3734 28.525 58.345 28.4554C58.3166 28.3857 58.3023 28.3112 58.303 28.236V27.579C57.793 28.32 56.703 29 55.391 29C52.894 29 51 26.858 51 24.248C51 21.639 52.894 19.497 55.392 19.497ZM55.752 21.321C54.132 21.321 53.032 22.605 53.032 24.248C53.032 25.892 54.122 27.176 55.752 27.176C57.371 27.176 58.472 25.892 58.472 24.249C58.472 22.605 57.382 21.321 55.752 21.321ZM62.588 19.677H64.6V20.918C65.15 20.006 66.187 19.497 67.373 19.497C69.489 19.497 70.854 20.992 70.854 23.315V28.809H69.415C69.3397 28.8094 69.2651 28.7948 69.1955 28.7662C69.126 28.7375 69.0628 28.6953 69.0096 28.6419C68.9565 28.5886 68.9145 28.5253 68.8861 28.4556C68.8576 28.3859 68.8433 28.3113 68.844 28.236V23.644C68.844 22.202 68.114 21.321 66.949 21.321C65.616 21.321 64.6 22.361 64.6 24.312V28.809H63.16C63.0848 28.8093 63.0103 28.7946 62.9409 28.7659C62.8714 28.7371 62.8083 28.6949 62.7553 28.6416C62.7023 28.5883 62.6604 28.525 62.632 28.4554C62.6036 28.3857 62.5893 28.3112 62.59 28.236V19.677H62.588ZM76.833 19.497C78.145 19.497 79.235 20.176 79.753 20.907V15.117H81.753V28.82H80.315C80.2396 28.8207 80.1649 28.8063 80.0951 28.7777C80.0253 28.7492 79.962 28.707 79.9087 28.6536C79.8554 28.6002 79.8133 28.5368 79.7849 28.467C79.7564 28.3972 79.7422 28.3224 79.743 28.247V27.589C79.235 28.321 78.135 29 76.823 29C74.325 29 72.43 26.858 72.43 24.248C72.441 21.639 74.335 19.497 76.833 19.497ZM77.193 21.321C75.573 21.321 74.473 22.605 74.473 24.248C74.473 25.892 75.563 27.176 77.193 27.176C78.812 27.176 79.913 25.892 79.913 24.249C79.913 22.605 78.812 21.321 77.193 21.321ZM84.029 19.677H86.029V21.3C86.2046 20.8015 86.5295 20.3692 86.9594 20.0618C87.3893 19.7544 87.9035 19.5869 88.432 19.582C88.695 19.582 88.957 19.606 89.215 19.656V21.724C88.8911 21.6145 88.5519 21.5571 88.21 21.554C87.056 21.554 86.019 22.52 86.019 24.354V28.809H84.579C84.5038 28.8093 84.4293 28.7946 84.3599 28.7659C84.2904 28.7371 84.2273 28.6949 84.1743 28.6416C84.1213 28.5883 84.0794 28.525 84.051 28.4554C84.0226 28.3857 84.0083 28.3112 84.009 28.236V19.677H84.029ZM94.633 29C91.935 29 89.86 26.9 89.86 24.248C89.86 21.597 91.935 19.497 94.633 19.497C97.332 19.497 99.406 21.597 99.406 24.249C99.406 26.9 97.332 29 94.633 29ZM94.633 27.133C96.242 27.133 97.363 25.871 97.363 24.249C97.363 22.626 96.231 21.364 94.633 21.364C93.014 21.364 91.882 22.626 91.882 24.248C91.882 25.871 93.014 27.133 94.633 27.133ZM102.031 17.683C101.675 17.6814 101.333 17.5389 101.081 17.2865C100.83 17.0342 100.688 16.6925 100.687 16.336C100.693 15.9822 100.837 15.6448 101.088 15.3954C101.339 15.1459 101.677 15.0041 102.031 15C102.207 14.9997 102.382 15.0343 102.544 15.1017C102.707 15.1691 102.855 15.268 102.979 15.3927C103.103 15.5174 103.202 15.6655 103.269 15.8284C103.336 15.9913 103.37 16.1659 103.369 16.342C103.368 16.697 103.227 17.0373 102.977 17.2886C102.726 17.5399 102.386 17.6817 102.031 17.683ZM101.036 19.677H103.036V28.809H101.607C101.532 28.8091 101.457 28.7944 101.388 28.7656C101.318 28.7368 101.255 28.6946 101.202 28.6413C101.149 28.5881 101.107 28.5249 101.079 28.4553C101.05 28.3857 101.036 28.3112 101.036 28.236V19.677ZM109.079 19.497C110.391 19.497 111.481 20.176 112 20.907V15.117H114V28.82H112.561C112.447 28.8208 112.336 28.7875 112.242 28.7244C112.148 28.6613 112.075 28.5712 112.032 28.466C112.004 28.3964 111.989 28.3221 111.989 28.247V27.589C111.481 28.321 110.381 29 109.068 29C106.571 29 104.676 26.858 104.676 24.248C104.687 21.639 106.581 19.497 109.079 19.497ZM109.449 21.321C107.83 21.321 106.73 22.605 106.73 24.248C106.73 25.892 107.82 27.176 109.449 27.176C111.069 27.176 112.169 25.892 112.169 24.249C112.169 22.605 111.069 21.321 109.449 21.321Z" fill="#F6F7F8" style="fill:#F6F7F8;fill:color(display-p3 0.9647 0.9686 0.9725);fill-opacity:1;"/>
</g>
</svg>
