<svg width="15" height="8" viewBox="0 0 15 8" fill="none" xmlns="http://www.w3.org/2000/svg">
<mask id="path-1-inside-1_1070_2924" fill="white">
<path d="M15 0L8.82575 7.34907C8.09659 8.21698 6.90341 8.21698 6.17425 7.34907L0 0"/>
</mask>
<path d="M8.82575 7.34907L7.29445 6.06256L7.29445 6.06256L8.82575 7.34907ZM6.17425 7.34907L7.70555 6.06256L7.70555 6.06256L6.17425 7.34907ZM15 0L13.4687 -1.28651L7.29445 6.06256L8.82575 7.34907L10.3571 8.63558L16.5313 1.28651L15 0ZM8.82575 7.34907L7.29445 6.06256C7.2864 6.07213 7.29876 6.05448 7.34021 6.03456C7.38135 6.01479 7.43674 6 7.5 6C7.56326 6 7.61865 6.01479 7.65979 6.03456C7.70124 6.05448 7.7136 6.07213 7.70555 6.06256L6.17425 7.34907L4.64294 8.63557C6.17135 10.4548 8.82865 10.4548 10.3571 8.63557L8.82575 7.34907ZM6.17425 7.34907L7.70555 6.06256L1.5313 -1.28651L0 0L-1.5313 1.28651L4.64294 8.63558L6.17425 7.34907Z" fill="#B1B1B1" style="fill:#B1B1B1;fill:color(display-p3 0.6956 0.6956 0.6956);fill-opacity:1;" mask="url(#path-1-inside-1_1070_2924)"/>
</svg>
