<svg width="6" height="10" viewBox="0 0 6 10" fill="none" xmlns="http://www.w3.org/2000/svg">
<mask id="path-1-inside-1_799_4772" fill="white">
<path d="M0 0L5.5118 4.11616C6.16273 4.60227 6.16273 5.39773 5.5118 5.88384L0 10"/>
</mask>
<path d="M5.5118 4.11616L4.31509 5.71863L4.3151 5.71863L5.5118 4.11616ZM5.5118 5.88384L4.3151 4.28137L4.31509 4.28137L5.5118 5.88384ZM0 0L-1.19671 1.60246L4.31509 5.71863L5.5118 4.11616L6.70851 2.5137L1.19671 -1.60246L0 0ZM5.5118 4.11616L4.3151 5.71863C4.21107 5.64094 4 5.39982 4 5C4 4.60018 4.21107 4.35906 4.3151 4.28137L5.5118 5.88384L6.7085 7.4863C7.46347 6.92251 8 6.0406 8 5C8 3.9594 7.46347 3.07749 6.7085 2.5137L5.5118 4.11616ZM5.5118 5.88384L4.31509 4.28137L-1.19671 8.39754L0 10L1.19671 11.6025L6.70851 7.4863L5.5118 5.88384Z" fill="black" style="fill:black;fill-opacity:1;" mask="url(#path-1-inside-1_799_4772)"/>
</svg>
