<svg width="15" height="15" viewBox="0 0 15 15" fill="none" xmlns="http://www.w3.org/2000/svg">
<path d="M12.2498 0C13.7198 0 14.9198 1.15275 14.9963 2.604L15 2.75025V12.2498C15 13.7198 13.8472 14.9198 12.396 14.9963L12.2498 15H2.75025C2.04613 15 1.36882 14.73 0.857853 14.2456C0.346888 13.7611 0.0411929 13.0991 0.00375009 12.396L0 12.2498V2.75025C0 1.28025 1.15275 0.0802501 2.604 0.00375009L2.75025 0H12.2498ZM3 9.75C2.80109 9.75 2.61032 9.82902 2.46967 9.96967C2.32902 10.1103 2.25 10.3011 2.25 10.5V12L2.25525 12.0878C2.27783 12.2776 2.37204 12.4516 2.51863 12.5743C2.66522 12.697 2.85312 12.7591 3.04395 12.7479C3.23479 12.7367 3.41414 12.653 3.54536 12.514C3.67659 12.375 3.74979 12.1912 3.75 12V10.5L3.74475 10.4123C3.72326 10.2298 3.63556 10.0616 3.49828 9.93954C3.361 9.81747 3.1837 9.75002 3 9.75ZM5.25 6.75C5.05109 6.75 4.86032 6.82902 4.71967 6.96967C4.57902 7.11032 4.5 7.30109 4.5 7.5V12L4.50525 12.0878C4.52783 12.2776 4.62204 12.4516 4.76863 12.5743C4.91522 12.697 5.10312 12.7591 5.29395 12.7479C5.48479 12.7367 5.66414 12.653 5.79536 12.514C5.92659 12.375 5.99979 12.1912 6 12V7.5L5.99475 7.41225C5.97326 7.22981 5.88556 7.06161 5.74828 6.93954C5.611 6.81747 5.4337 6.75002 5.25 6.75ZM7.5 8.25C7.30109 8.25 7.11032 8.32902 6.96967 8.46967C6.82902 8.61032 6.75 8.80109 6.75 9V12L6.75525 12.0878C6.77783 12.2776 6.87204 12.4516 7.01863 12.5743C7.16522 12.697 7.35312 12.7591 7.54395 12.7479C7.73479 12.7367 7.91414 12.653 8.04536 12.514C8.17659 12.375 8.24979 12.1912 8.25 12V9L8.24475 8.91225C8.22326 8.72981 8.13556 8.56161 7.99828 8.43954C7.861 8.31747 7.6837 8.25002 7.5 8.25Z" fill="#9F9F9F" style="fill:#9F9F9F;fill:color(display-p3 0.6235 0.6235 0.6235);fill-opacity:1;"/>
</svg>
