<svg width="32" height="28" viewBox="0 0 32 28" fill="none" xmlns="http://www.w3.org/2000/svg">
<path fill-rule="evenodd" clip-rule="evenodd" d="M5.5 10.9609H7.5C8.88071 10.9609 10 12.0801 10 13.4609V18.4609C10 19.8416 8.88071 20.9609 7.5 20.9609H5.5C4.11929 20.9609 3 19.8416 3 18.4609V13.4609C3 12.0801 4.11929 10.9609 5.5 10.9609ZM5.5 12.9609C5.22386 12.9609 5 13.1847 5 13.4609V18.4609C5 18.737 5.22386 18.9609 5.5 18.9609H7.5C7.77614 18.9609 8 18.737 8 18.4609V13.4609C8 13.1847 7.77614 12.9609 7.5 12.9609H5.5Z" fill="#FFDD2D" style="fill:#FFDD2D;fill:color(display-p3 1.0000 0.8667 0.1765);fill-opacity:1;"/>
<path fill-rule="evenodd" clip-rule="evenodd" d="M24.5 10.9062H26.5C27.8807 10.9062 29 12.0256 29 13.4062V18.4062C29 19.787 27.8807 20.9062 26.5 20.9062H24.5C23.1193 20.9062 22 19.787 22 18.4062V13.4062C22 12.0256 23.1193 10.9062 24.5 10.9062ZM24.5 12.9062C24.2239 12.9062 24 13.1302 24 13.4062V18.4062C24 18.6824 24.2239 18.9062 24.5 18.9062H26.5C26.7761 18.9062 27 18.6824 27 18.4062V13.4062C27 13.1302 26.7761 12.9062 26.5 12.9062H24.5Z" fill="#FFDD2D" style="fill:#FFDD2D;fill:color(display-p3 1.0000 0.8667 0.1765);fill-opacity:1;"/>
<path d="M14.2129 24.0957C14.2129 23.5434 14.6606 23.0957 15.2129 23.0957H18.2129C18.7652 23.0957 19.2129 23.5434 19.2129 24.0957V26.0957C19.2129 26.648 18.7652 27.0957 18.2129 27.0957H15.2129C14.6606 27.0957 14.2129 26.648 14.2129 26.0957V24.0957Z" fill="#FFDD2D" style="fill:#FFDD2D;fill:color(display-p3 1.0000 0.8667 0.1765);fill-opacity:1;"/>
<path fill-rule="evenodd" clip-rule="evenodd" d="M15.8933 2.90625C10.9724 2.90625 6.96107 6.97017 6.9993 11.8984C7.00359 12.4508 6.55936 12.9019 6.00709 12.9062C5.45482 12.9106 5.00365 12.4663 4.99936 11.9141C4.95258 5.88265 9.85425 0.90625 15.8933 0.90625C21.9426 0.90625 26.8477 5.86964 26.7342 11.9249C26.7238 12.4771 26.2678 12.9164 25.7156 12.906C25.1634 12.8958 24.7242 12.4398 24.7345 11.8876C24.8269 6.9583 20.8305 2.90625 15.8933 2.90625Z" fill="#FFDD2D" style="fill:#FFDD2D;fill:color(display-p3 1.0000 0.8667 0.1765);fill-opacity:1;"/>
<path fill-rule="evenodd" clip-rule="evenodd" d="M25.8193 19.332C26.3716 19.332 26.8193 19.7797 26.8193 20.332C26.8193 23.6457 24.1331 26.332 20.8193 26.332H18.8193C18.2671 26.332 17.8193 25.8843 17.8193 25.332C17.8193 24.7797 18.2671 24.332 18.8193 24.332H20.8193C23.0285 24.332 24.8193 22.5412 24.8193 20.332C24.8193 19.7797 25.2671 19.332 25.8193 19.332Z" fill="#FFDD2D" style="fill:#FFDD2D;fill:color(display-p3 1.0000 0.8667 0.1765);fill-opacity:1;"/>
</svg>
