<svg width="32" height="32" viewBox="0 0 32 32" fill="none" xmlns="http://www.w3.org/2000/svg">
<path fill-rule="evenodd" clip-rule="evenodd" d="M22 5H10C8.89543 5 8 5.89543 8 7V25C8 26.1046 8.89543 27 10 27H22C23.1046 27 24 26.1046 24 25V7C24 5.89543 23.1046 5 22 5ZM10 3C7.79086 3 6 4.79086 6 7V25C6 27.2091 7.79086 29 10 29H22C24.2091 29 26 27.2091 26 25V7C26 4.79086 24.2091 3 22 3H10Z" fill="#FFDD2D" style="fill:#FFDD2D;fill:color(display-p3 1.0000 0.8667 0.1765);fill-opacity:1;"/>
<path fill-rule="evenodd" clip-rule="evenodd" d="M16 16C17.1046 16 18 15.1046 18 14C18 12.8954 17.1046 12 16 12C14.8954 12 14 12.8954 14 14C14 15.1046 14.8954 16 16 16ZM16 18C18.2091 18 20 16.2091 20 14C20 11.7909 18.2091 10 16 10C13.7909 10 12 11.7909 12 14C12 16.2091 13.7909 18 16 18Z" fill="#FFDD2D" style="fill:#FFDD2D;fill:color(display-p3 1.0000 0.8667 0.1765);fill-opacity:1;"/>
<path fill-rule="evenodd" clip-rule="evenodd" d="M10 22C10 21.4477 10.4477 21 11 21H21C21.5523 21 22 21.4477 22 22C22 22.5523 21.5523 23 21 23H11C10.4477 23 10 22.5523 10 22Z" fill="#FFDD2D" style="fill:#FFDD2D;fill:color(display-p3 1.0000 0.8667 0.1765);fill-opacity:1;"/>
</svg>
