<svg width="20" height="20" viewBox="0 0 20 20" fill="none" xmlns="http://www.w3.org/2000/svg">
<path d="M8.32617 0.0140915C6.74805 0.115654 4.86133 0.377373 4.26758 0.580498C2.71289 1.11175 1.1543 2.65081 0.595703 4.2094C0.427734 4.67425 0.228516 5.90081 0.0761719 7.41253C-0.0253906 8.40081 -0.0253906 11.5805 0.0761719 12.5688C0.228516 14.0805 0.427734 15.3071 0.595703 15.7719C1.06836 17.0883 2.33398 18.4828 3.6582 19.1508C4.35352 19.5024 5.26367 19.6821 7.44727 19.9008C8.31445 19.9867 11.4473 19.9985 12.3105 19.9203C13.6895 19.7914 15.1738 19.5766 15.6113 19.4399C15.998 19.3227 16.6816 18.9672 17.0957 18.6703C17.5723 18.3305 18.334 17.5727 18.666 17.1C19.2168 16.3227 19.4551 15.7289 19.6113 14.7758C19.9004 12.9828 19.9668 12.0922 19.9668 9.99065C19.9668 8.18206 19.9473 7.80315 19.7871 6.47503C19.5566 4.52972 19.3848 3.95159 18.7793 3.05315C18.0137 1.91253 16.8652 0.986748 15.7285 0.584404C15.2676 0.424248 14.1348 0.24456 12.5645 0.084404C11.9902 0.0258102 8.94727 -0.024971 8.32617 0.0140915ZM13.5137 3.90862C14.209 4.12347 14.709 4.43987 15.2051 4.96331C15.8105 5.60784 16.1191 6.31097 16.1973 7.23675C16.248 7.80706 16.248 12.2367 16.1973 12.7836C16.1504 13.3227 16.0449 13.7016 15.8262 14.1508C15.4043 15.0063 14.6504 15.6782 13.748 16.0024C13.1465 16.2211 13.1426 16.2211 9.9668 16.2211C6.73242 16.2211 6.79492 16.225 6.13086 15.9672C5.27539 15.6391 4.55273 14.975 4.14648 14.1508C3.92773 13.7016 3.82227 13.3227 3.77539 12.7836C3.72461 12.2289 3.72461 7.80706 3.77539 7.21331C3.85352 6.26409 4.23242 5.46722 4.91211 4.81097C5.45117 4.29534 6.00195 4.00237 6.74805 3.83831C6.95117 3.79534 7.56055 3.78753 10.084 3.79144L13.1699 3.79925L13.5137 3.90862Z" fill="#121212" style="fill:#121212;fill:color(display-p3 0.0706 0.0706 0.0706);fill-opacity:1;"/>
<path d="M6.8296 5.06836C5.96632 5.29492 5.24366 6.02539 5.04444 6.86914C4.9585 7.24414 4.9585 12.7402 5.04835 13.1152C5.25147 13.9785 5.97022 14.709 6.84132 14.9316C7.03663 14.9824 7.51319 14.9902 9.98585 14.9902C12.8101 14.9902 12.9077 14.9863 13.189 14.9082C13.6304 14.7871 13.9116 14.6191 14.2632 14.2676C14.6148 13.9199 14.8218 13.5605 14.9233 13.1152C15.0132 12.7363 15.0171 7.23242 14.9273 6.88477C14.7163 6.05273 14.0874 5.37695 13.2671 5.0957C13.0132 5.00977 12.9976 5.00977 10.064 5.00195C7.25538 4.99414 7.09913 4.99805 6.8296 5.06836ZM13.5718 6.08008C14.1577 6.38086 14.1499 7.1582 13.564 7.45898C13.3452 7.56836 13.0171 7.54492 12.8101 7.40039C12.314 7.05664 12.3843 6.30664 12.9351 6.06055C13.1069 5.98633 13.4038 5.99414 13.5718 6.08008ZM10.7437 6.88477C11.6968 7.13867 12.4273 7.73242 12.8726 8.61133C13.103 9.06836 13.1694 9.39648 13.1655 10.0293C13.1655 10.5566 13.1577 10.6191 13.0405 10.9668C12.7593 11.8184 12.1655 12.498 11.3804 12.8809C10.0523 13.5215 8.39991 13.1543 7.51319 12.0254C5.96632 10.0566 7.02882 7.27148 9.49366 6.82617C9.7671 6.7793 10.4624 6.81055 10.7437 6.88477Z" fill="#121212" style="fill:#121212;fill:color(display-p3 0.0706 0.0706 0.0706);fill-opacity:1;"/>
<path d="M9.5293 8.05663C8.6543 8.24803 7.99414 9.08007 7.99414 9.99022C7.99414 10.5332 8.19336 11.0137 8.57617 11.4004C8.97852 11.8027 9.41211 11.9785 9.98633 11.9824C11.0996 11.9863 11.9785 11.1035 11.9785 9.99022C11.9785 9.06444 11.3223 8.24413 10.4277 8.05663C10.1035 7.98632 9.84961 7.98632 9.5293 8.05663Z" fill="#121212" style="fill:#121212;fill:color(display-p3 0.0706 0.0706 0.0706);fill-opacity:1;"/>
</svg>
