<svg width="20" height="20" viewBox="0 0 20 20" fill="none" xmlns="http://www.w3.org/2000/svg">
<g clip-path="url(#clip0_743_200)">
<path d="M8.33984 0.0238571C6.76172 0.12542 4.875 0.387138 4.28125 0.590263C2.72656 1.12151 1.16797 2.66058 0.609375 4.21917C0.441406 4.68401 0.242188 5.91058 0.0898438 7.4223C-0.0117188 8.41058 -0.0117188 11.5903 0.0898438 12.5785C0.242188 14.0903 0.441406 15.3168 0.609375 15.7817C1.08203 17.0981 2.34766 18.4926 3.67188 19.1606C4.36719 19.5121 5.27734 19.6918 7.46094 19.9106C8.32812 19.9965 11.4609 20.0082 12.3242 19.9301C13.7031 19.8012 15.1875 19.5864 15.625 19.4496C16.0117 19.3325 16.6953 18.977 17.1094 18.6801C17.5859 18.3403 18.3477 17.5825 18.6797 17.1098C19.2305 16.3325 19.4688 15.7387 19.625 14.7856C19.9141 12.9926 19.9805 12.102 19.9805 10.0004C19.9805 8.19183 19.9609 7.81292 19.8008 6.4848C19.5703 4.53948 19.3984 3.96136 18.793 3.06292C18.0273 1.92229 16.8789 0.996513 15.7422 0.59417C15.2812 0.434013 14.1484 0.254326 12.5781 0.0941696C12.0039 0.0355759 8.96094 -0.0152054 8.33984 0.0238571ZM13.5273 3.91839C14.2227 4.13323 14.7227 4.44964 15.2188 4.97308C15.8242 5.61761 16.1328 6.32073 16.2109 7.24651C16.2617 7.81683 16.2617 12.2465 16.2109 12.7934C16.1641 13.3325 16.0586 13.7114 15.8398 14.1606C15.418 15.016 14.6641 15.6879 13.7617 16.0121C13.1602 16.2309 13.1562 16.2309 9.98047 16.2309C6.74609 16.2309 6.80859 16.2348 6.14453 15.977C5.28906 15.6489 4.56641 14.9848 4.16016 14.1606C3.94141 13.7114 3.83594 13.3325 3.78906 12.7934C3.73828 12.2387 3.73828 7.81683 3.78906 7.22308C3.86719 6.27386 4.24609 5.47698 4.92578 4.82073C5.46484 4.30511 6.01562 4.01214 6.76172 3.84808C6.96484 3.80511 7.57422 3.79729 10.0977 3.8012L13.1836 3.80901L13.5273 3.91839Z" fill="#FFDD2D" style="fill:#FFDD2D;fill:color(display-p3 1.0000 0.8667 0.1765);fill-opacity:1;"/>
<path d="M6.84327 5.07812C5.97999 5.30469 5.25733 6.03516 5.05811 6.87891C4.97218 7.25391 4.97218 12.75 5.06202 13.125C5.26514 13.9883 5.98389 14.7188 6.85499 14.9414C7.0503 14.9922 7.52686 15 9.99952 15C12.8237 15 12.9214 14.9961 13.2026 14.918C13.6441 14.7969 13.9253 14.6289 14.2769 14.2773C14.6284 13.9297 14.8355 13.5703 14.937 13.125C15.0269 12.7461 15.0308 7.24219 14.9409 6.89453C14.73 6.0625 14.1011 5.38672 13.2808 5.10547C13.0269 5.01953 13.0112 5.01953 10.0776 5.01172C7.26905 5.00391 7.1128 5.00781 6.84327 5.07812ZM13.5855 6.08984C14.1714 6.39062 14.1636 7.16797 13.5776 7.46875C13.3589 7.57812 13.0308 7.55469 12.8237 7.41016C12.3276 7.06641 12.398 6.31641 12.9487 6.07031C13.1206 5.99609 13.4175 6.00391 13.5855 6.08984ZM10.7573 6.89453C11.7105 7.14844 12.4409 7.74219 12.8862 8.62109C13.1167 9.07812 13.1831 9.40625 13.1792 10.0391C13.1792 10.5664 13.1714 10.6289 13.0542 10.9766C12.773 11.8281 12.1792 12.5078 11.3941 12.8906C10.0659 13.5312 8.41358 13.1641 7.52686 12.0352C5.97999 10.0664 7.04249 7.28125 9.50733 6.83594C9.78077 6.78906 10.4761 6.82031 10.7573 6.89453Z" fill="#FFDD2D" style="fill:#FFDD2D;fill:color(display-p3 1.0000 0.8667 0.1765);fill-opacity:1;"/>
<path d="M9.54297 8.06639C8.66797 8.2578 8.00781 9.08983 8.00781 9.99999C8.00781 10.543 8.20703 11.0234 8.58984 11.4101C8.99219 11.8125 9.42578 11.9883 10 11.9922C11.1133 11.9961 11.9922 11.1133 11.9922 9.99999C11.9922 9.07421 11.3359 8.25389 10.4414 8.06639C10.1172 7.99608 9.86328 7.99608 9.54297 8.06639Z" fill="#FFDD2D" style="fill:#FFDD2D;fill:color(display-p3 1.0000 0.8667 0.1765);fill-opacity:1;"/>
</g>
<defs>
<clipPath id="clip0_743_200">
<rect width="20" height="20" fill="white" style="fill:white;fill-opacity:1;"/>
</clipPath>
</defs>
</svg>
