<svg width="123" height="44" viewBox="0 0 123 44" fill="none" xmlns="http://www.w3.org/2000/svg">
<mask id="mask0_695_3681" style="mask-type:luminance" maskUnits="userSpaceOnUse" x="0" y="0" width="123" height="44">
<path d="M0 0H123V44H0V0Z" fill="white" style="fill:white;fill-opacity:1;"/>
</mask>
<g mask="url(#mask0_695_3681)">
<path d="M113.205 0H9.8C9.424 0 9.051 0 8.675 0.002C8.361 0.005 8.048 0.011 7.731 0.016C7.041 0.025 6.351 0.09 5.671 0.211C4.98721 0.335428 4.32761 0.56801 3.717 0.9C3.09699 1.24083 2.53527 1.67832 2.053 2.196C1.563 2.716 1.153 3.319 0.843 3.979C0.528883 4.64272 0.312313 5.34834 0.2 6.074C0.0855666 6.80259 0.0240722 7.53852 0.016 8.276C0.006 8.613 0.005 8.952 0 9.289V34.714C0.005 35.056 0.006 35.387 0.016 35.729C0.024 36.467 0.086 37.203 0.2 37.931C0.313 38.66 0.53 39.366 0.842 40.025C1.154 40.683 1.562 41.283 2.053 41.801C2.53321 42.3212 3.0953 42.7593 3.717 43.098C4.32758 43.4311 4.98709 43.6653 5.671 43.792C6.352 43.912 7.041 43.976 7.731 43.986C8.048 43.994 8.361 43.998 8.675 43.998C9.051 44 9.424 44 9.8 44H113.205C113.575 44 113.95 44 114.319 43.998C114.632 43.998 114.954 43.993 115.267 43.986C115.955 43.976 116.643 43.912 117.322 43.792C118.008 43.6646 118.67 43.4304 119.284 43.098C119.905 42.7592 120.466 42.3211 120.946 41.801C121.435 41.281 121.845 40.681 122.16 40.025C122.472 39.365 122.686 38.66 122.797 37.931C122.912 37.2023 122.975 36.4665 122.988 35.729C122.992 35.387 122.992 35.056 122.992 34.715C123 34.315 123 33.917 123 33.511V10.49C123 10.087 123 9.687 122.992 9.289C122.992 8.952 122.992 8.613 122.988 8.276C122.975 7.53846 122.912 6.80268 122.797 6.074C122.686 5.349 122.472 4.64373 122.16 3.98C121.547 2.67817 120.541 1.60111 119.284 0.9C118.67 0.568338 118.008 0.33548 117.322 0.21C116.643 0.089002 115.956 0.0241158 115.267 0.016C114.954 0.011 114.632 0.004 114.319 0.002C113.95 0 113.575 0 113.205 0Z" fill="#F6F7F8" style="fill:#F6F7F8;fill:color(display-p3 0.9647 0.9686 0.9725);fill-opacity:1;"/>
<path d="M8.77 42.998C8.457 42.998 8.152 42.993 7.842 42.986C7.19894 42.9771 6.5576 42.9172 5.924 42.807C5.32927 42.6967 4.7556 42.4936 4.224 42.205C3.68831 41.9142 3.20389 41.5375 2.79 41.09C2.36149 40.6381 2.00803 40.1206 1.743 39.557C1.47029 38.9805 1.28267 38.3674 1.186 37.737C1.08036 37.0559 1.02322 36.3682 1.015 35.679C1.009 35.446 1 34.675 1 34.675V9.311C1 9.311 1.01 8.551 1.015 8.329C1.02281 7.6405 1.07962 6.95343 1.185 6.273C1.283 5.638 1.471 5.023 1.743 4.448C2.00693 3.88467 2.35827 3.36661 2.784 2.913C3.20114 2.46465 3.68728 2.08588 4.224 1.791C4.75424 1.50364 5.32667 1.30214 5.92 1.194C6.556 1.082 7.2 1.022 7.844 1.014L8.77 1H114.225L115.162 1.014C115.801 1.022 116.438 1.082 117.069 1.192C117.668 1.30162 118.247 1.50476 118.783 1.794C119.865 2.40018 120.732 3.32902 121.261 4.451C121.528 5.021 121.713 5.631 121.81 6.261C121.917 6.947 121.977 7.639 121.989 8.334C121.992 8.644 121.992 8.979 121.992 9.311C122 9.723 122 10.115 122 10.51V33.489C122 33.888 122 34.277 121.992 34.669C121.992 35.027 121.992 35.354 121.988 35.69C121.976 36.3716 121.917 37.0515 121.812 37.725C121.717 38.3599 121.531 38.9776 121.259 39.559C120.991 40.1168 120.64 40.6302 120.216 41.081C119.802 41.5313 119.317 41.9104 118.78 42.203C118.245 42.4936 117.668 42.6975 117.069 42.807C116.434 42.917 115.793 42.977 115.151 42.986C114.85 42.994 114.535 42.998 114.23 42.998L113.117 43L8.77 42.998Z" fill="black" style="fill:black;fill-opacity:1;"/>
<path fill-rule="evenodd" clip-rule="evenodd" d="M48.7338 8.42969C48.842 9.83988 48.3948 11.2365 47.4878 12.3217C47.053 12.8611 46.5015 13.2948 45.8748 13.5903C45.2481 13.8858 44.5626 14.0354 43.8698 14.0277C43.8253 13.3496 43.9153 12.6693 44.1346 12.0261C44.354 11.3829 44.6983 10.7894 45.1478 10.2797C46.0685 9.23471 47.3486 8.57431 48.7338 8.42969ZM51.2638 18.6897C50.8035 19.4986 50.5558 20.411 50.5438 21.3417C50.5452 22.3888 50.8555 23.4121 51.4358 24.2837C52.0167 25.1566 52.8416 25.8393 53.8078 26.2467C53.4276 27.4781 52.8549 28.6415 52.1108 29.6937C51.1108 31.1857 50.0618 32.6437 48.3978 32.6697C47.6058 32.6877 47.0718 32.4617 46.5158 32.2247C45.9348 31.9777 45.3298 31.7207 44.3828 31.7207C43.3788 31.7207 42.7468 31.9867 42.1368 32.2427C41.6098 32.4627 41.0998 32.6777 40.3808 32.7077C38.7958 32.7657 37.5848 31.1147 36.5488 29.6377C34.4768 26.6197 32.8648 21.1327 35.0268 17.3997C35.528 16.5051 36.2517 15.755 37.1278 15.2222C38.004 14.6895 39.0029 14.392 40.0278 14.3587C40.9268 14.3397 41.7888 14.6857 42.5448 14.9887C43.1238 15.2197 43.6398 15.4267 44.0618 15.4267C44.4338 15.4267 44.9348 15.2287 45.5198 14.9967C46.4408 14.6327 47.5678 14.1867 48.7168 14.3067C49.596 14.3345 50.4568 14.5662 51.2311 14.9835C52.0055 15.4009 52.6722 15.9925 53.1788 16.7117C52.3843 17.1988 51.7259 17.8788 51.2648 18.6887L51.2638 18.6897Z" fill="#F6F7F8" style="fill:#F6F7F8;fill:color(display-p3 0.9647 0.9686 0.9725);fill-opacity:1;"/>
<path d="M61.4982 29.9005H63.8662V19.8325H61.4982V29.9005ZM62.6782 18.5125C63.4192 18.5125 63.9992 17.9425 63.9992 17.2305C63.9992 16.5085 63.4192 15.9385 62.6772 15.9385C61.9452 15.9385 61.3652 16.5085 61.3652 17.2305C61.3652 17.9425 61.9452 18.5125 62.6782 18.5125ZM71.7502 15.9665C67.7462 15.9665 65.2362 18.6925 65.2362 23.0525C65.2362 27.4125 67.7462 30.1285 71.7502 30.1285C75.7442 30.1285 78.2542 27.4125 78.2542 23.0525C78.2542 18.6925 75.7442 15.9665 71.7502 15.9665ZM71.7502 18.0565C74.1942 18.0565 75.7532 19.9945 75.7532 23.0525C75.7532 26.1015 74.1932 28.0385 71.7502 28.0385C69.2962 28.0385 67.7462 26.1015 67.7462 23.0525C67.7462 19.9945 69.2962 18.0565 71.7502 18.0565ZM79.2532 26.0445C79.3582 28.5705 81.4312 30.1285 84.5882 30.1285C87.9072 30.1285 89.9982 28.4945 89.9982 25.8925C89.9982 23.8505 88.8202 22.7015 86.0332 22.0645L84.4552 21.7045C82.7722 21.3045 82.0772 20.7735 82.0772 19.8615C82.0772 18.7215 83.1242 17.9615 84.6742 17.9615C86.2432 17.9615 87.3172 18.7315 87.4312 20.0135H89.7712C89.7132 17.6005 87.7162 15.9665 84.6932 15.9665C81.7072 15.9665 79.5862 17.6105 79.5862 20.0415C79.5862 21.9985 80.7842 23.2135 83.3142 23.7935L85.0922 24.2115C86.8222 24.6195 87.5262 25.1895 87.5262 26.1775C87.5262 27.3175 86.3762 28.1345 84.7212 28.1345C83.0472 28.1345 81.7832 27.3075 81.6312 26.0445H79.2532Z" fill="#F6F7F8" style="fill:#F6F7F8;fill:color(display-p3 0.9647 0.9686 0.9725);fill-opacity:1;"/>
</g>
</svg>
