<svg width="463" height="400" viewBox="0 0 463 400" fill="none" xmlns="http://www.w3.org/2000/svg">
<path d="M0 202.067C0 90.4684 90.4684 0 202.067 0H236.059C243.759 0 250 6.24138 250 13.9405V199C250 207.284 243.284 214 235 214H11.9331C5.34263 214 0 208.657 0 202.067Z" fill="#DBDBDB" style="fill:#DBDBDB;fill:color(display-p3 0.8606 0.8606 0.8606);fill-opacity:1;"/>
<rect x="263" width="200" height="215" rx="15" fill="#FCFCFA" style="fill:#FCFCFA;fill:color(display-p3 0.9882 0.9882 0.9804);fill-opacity:1;"/>
<path d="M298.185 61.7983C296.509 61.7983 295.021 61.5036 293.721 60.9141C292.428 60.3175 291.409 59.4972 290.663 58.4531C289.925 57.4091 289.548 56.2088 289.534 54.8523H295.287C295.308 55.6051 295.599 56.2053 296.161 56.6527C296.729 57.1001 297.403 57.3239 298.185 57.3239C298.788 57.3239 299.321 57.196 299.783 56.9403C300.244 56.6776 300.607 56.3082 300.869 55.8324C301.132 55.3565 301.26 54.8026 301.253 54.1705C301.26 53.5312 301.132 52.9773 300.869 52.5085C300.607 52.0327 300.244 51.6669 299.783 51.4112C299.321 51.1484 298.788 51.017 298.185 51.017C297.56 51.017 296.981 51.1697 296.448 51.4751C295.923 51.7734 295.536 52.1889 295.287 52.7216L290.088 51.6989L290.94 39.6818H305.599V44.4119H295.798L295.372 49.2273H295.5C295.841 48.5668 296.43 48.0199 297.268 47.5866C298.107 47.1463 299.08 46.9261 300.188 46.9261C301.487 46.9261 302.645 47.228 303.661 47.8317C304.683 48.4354 305.489 49.2699 306.079 50.3352C306.675 51.3935 306.97 52.6151 306.963 54C306.97 55.5199 306.608 56.8693 305.876 58.0483C305.152 59.2202 304.133 60.1399 302.819 60.8075C301.505 61.468 299.96 61.7983 298.185 61.7983ZM319.02 62.0966C317.039 62.0895 315.327 61.6314 313.885 60.7223C312.443 59.8132 311.332 58.5028 310.551 56.7912C309.769 55.0795 309.382 53.027 309.389 50.6335C309.396 48.233 309.787 46.1946 310.561 44.5185C311.343 42.8423 312.45 41.5675 313.885 40.6939C315.327 39.8203 317.039 39.3835 319.02 39.3835C321.002 39.3835 322.713 39.8239 324.155 40.7045C325.597 41.5781 326.708 42.853 327.49 44.5291C328.271 46.2053 328.658 48.2401 328.651 50.6335C328.651 53.0412 328.26 55.1009 327.479 56.8125C326.698 58.5241 325.586 59.8345 324.144 60.7436C322.71 61.6456 321.002 62.0966 319.02 62.0966ZM319.02 57.2812C320.043 57.2812 320.881 56.7486 321.534 55.6832C322.195 54.6108 322.521 52.9276 322.514 50.6335C322.514 49.1349 322.365 47.9098 322.067 46.9581C321.769 46.0064 321.357 45.3033 320.831 44.8487C320.306 44.3871 319.702 44.1562 319.02 44.1562C317.997 44.1562 317.163 44.6747 316.517 45.7116C315.87 46.7486 315.54 48.3892 315.526 50.6335C315.519 52.1605 315.664 53.4176 315.963 54.4048C316.261 55.3849 316.673 56.1094 317.198 56.5781C317.731 57.0469 318.338 57.2812 319.02 57.2812ZM337.994 58.517V42.75H342.767V58.517H337.994ZM332.497 53.0199V48.2472H348.264V53.0199H332.497Z" fill="black" style="fill:black;fill-opacity:1;"/>
<path d="M289.83 93.3636C289.631 93.3636 289.453 93.3471 289.298 93.3139C289.142 93.2841 289.034 93.2543 288.974 93.2244L289.273 92.1903C289.558 92.2633 289.81 92.2898 290.028 92.2699C290.247 92.25 290.441 92.1522 290.61 91.9766C290.782 91.8042 290.94 91.5241 291.082 91.1364L291.301 90.5398L288.477 82.8636H289.75L291.858 88.9489H291.938L294.045 82.8636H295.318L292.077 91.6136C291.931 92.008 291.75 92.3345 291.535 92.593C291.319 92.8549 291.069 93.0488 290.784 93.1747C290.502 93.3007 290.184 93.3636 289.83 93.3636ZM301.978 86.1449V87.2386H297.762V86.1449H301.978ZM298.04 82.8636V90.5H296.867V82.8636H298.04ZM302.873 82.8636V90.5H301.699V82.8636H302.873ZM306.189 88.7699L309.868 82.8636H311.22V90.5H310.047V84.5938L306.387 90.5H305.015V82.8636H306.189V88.7699ZM313.369 90.5V82.8636H314.542V86.1847H315.318L318.062 82.8636H319.573L316.491 86.5426L319.613 90.5H318.102L315.596 87.2784H314.542V90.5H313.369ZM323.135 90.679C322.652 90.679 322.212 90.5878 321.818 90.4055C321.424 90.2199 321.11 89.9531 320.878 89.6051C320.646 89.2538 320.53 88.8295 320.53 88.3324C320.53 87.8949 320.617 87.5402 320.789 87.2685C320.961 86.9934 321.192 86.7779 321.48 86.6222C321.768 86.4664 322.086 86.3504 322.434 86.2741C322.786 86.1946 323.139 86.1316 323.493 86.0852C323.957 86.0256 324.334 85.9808 324.622 85.951C324.914 85.9179 325.126 85.8632 325.258 85.7869C325.394 85.7107 325.462 85.5781 325.462 85.3892V85.3494C325.462 84.8589 325.328 84.4777 325.059 84.206C324.794 83.9342 324.392 83.7983 323.851 83.7983C323.291 83.7983 322.852 83.9209 322.534 84.1662C322.216 84.4115 321.992 84.6733 321.863 84.9517L320.749 84.554C320.948 84.09 321.213 83.7287 321.545 83.4702C321.879 83.2083 322.244 83.026 322.638 82.9233C323.036 82.8172 323.427 82.7642 323.812 82.7642C324.057 82.7642 324.339 82.794 324.657 82.8537C324.978 82.91 325.288 83.0277 325.586 83.2067C325.888 83.3857 326.138 83.6558 326.337 84.017C326.536 84.3783 326.635 84.8622 326.635 85.4688V90.5H325.462V89.4659H325.403C325.323 89.6316 325.19 89.8089 325.005 89.9979C324.819 90.1868 324.572 90.3475 324.264 90.4801C323.956 90.6127 323.58 90.679 323.135 90.679ZM323.314 89.625C323.778 89.625 324.17 89.5339 324.488 89.3516C324.809 89.1693 325.051 88.9339 325.214 88.6456C325.379 88.3572 325.462 88.054 325.462 87.7358V86.6619C325.412 86.7216 325.303 86.7763 325.134 86.826C324.968 86.8724 324.776 86.9138 324.557 86.9503C324.342 86.9834 324.131 87.0133 323.926 87.0398C323.724 87.063 323.56 87.0829 323.434 87.0994C323.129 87.1392 322.844 87.2038 322.579 87.2933C322.317 87.3795 322.105 87.5104 321.942 87.6861C321.783 87.8584 321.704 88.0937 321.704 88.392C321.704 88.7997 321.854 89.108 322.156 89.3168C322.461 89.5223 322.847 89.625 323.314 89.625ZM328.101 90.5V89.4062H328.379C328.608 89.4062 328.799 89.3615 328.951 89.272C329.103 89.1792 329.226 89.0185 329.319 88.7898C329.415 88.5578 329.488 88.2363 329.538 87.8253C329.591 87.411 329.629 86.884 329.652 86.2443L329.791 82.8636H334.882V90.5H333.709V83.9574H330.905L330.786 86.6818C330.759 87.3082 330.703 87.8601 330.616 88.3374C330.534 88.8113 330.406 89.209 330.234 89.5305C330.065 89.852 329.839 90.094 329.558 90.2564C329.276 90.4188 328.923 90.5 328.499 90.5H328.101ZM338.049 85.6278H340.237C341.131 85.6278 341.816 85.8549 342.29 86.3089C342.764 86.763 343.001 87.3381 343.001 88.0341C343.001 88.4915 342.895 88.9074 342.683 89.282C342.47 89.6532 342.159 89.9498 341.748 90.1719C341.337 90.3906 340.833 90.5 340.237 90.5H337.035V82.8636H338.208V89.4062H340.237C340.701 89.4062 341.082 89.2836 341.38 89.0384C341.678 88.7931 341.827 88.4782 341.827 88.0938C341.827 87.6894 341.678 87.3596 341.38 87.1044C341.082 86.8492 340.701 86.7216 340.237 86.7216H338.049V85.6278ZM349.898 86.1449V87.2386H345.682V86.1449H349.898ZM345.96 82.8636V90.5H344.787V82.8636H345.96ZM350.792 82.8636V90.5H349.619V82.8636H350.792ZM353.949 85.6278H356.137C357.032 85.6278 357.716 85.8549 358.19 86.3089C358.664 86.763 358.901 87.3381 358.901 88.0341C358.901 88.4915 358.795 88.9074 358.583 89.282C358.371 89.6532 358.059 89.9498 357.648 90.1719C357.237 90.3906 356.733 90.5 356.137 90.5H352.935V82.8636H354.108V89.4062H356.137C356.601 89.4062 356.982 89.2836 357.28 89.0384C357.579 88.7931 357.728 88.4782 357.728 88.0938C357.728 87.6894 357.579 87.3596 357.28 87.1044C356.982 86.8492 356.601 86.7216 356.137 86.7216H353.949V85.6278ZM360.114 90.5V82.8636H361.287V90.5H360.114ZM364.31 82.8636L366.14 85.9858L367.969 82.8636H369.322L366.856 86.6818L369.322 90.5H367.969L366.14 87.5369L364.31 90.5H362.958L365.384 86.6818L362.958 82.8636H364.31ZM289.074 114.5V106.864H295.08V114.5H293.906V107.957H290.247V114.5H289.074ZM297.222 117.364V106.864H298.356V108.077H298.495C298.581 107.944 298.701 107.775 298.853 107.57C299.009 107.361 299.231 107.175 299.519 107.013C299.811 106.847 300.205 106.764 300.702 106.764C301.345 106.764 301.912 106.925 302.403 107.246C302.893 107.568 303.276 108.024 303.551 108.614C303.826 109.204 303.964 109.9 303.964 110.702C303.964 111.51 303.826 112.211 303.551 112.805C303.276 113.395 302.895 113.852 302.408 114.177C301.92 114.498 301.359 114.659 300.722 114.659C300.232 114.659 299.839 114.578 299.544 114.415C299.249 114.25 299.022 114.062 298.863 113.854C298.704 113.642 298.581 113.466 298.495 113.327H298.396V117.364H297.222ZM298.376 110.682C298.376 111.259 298.46 111.767 298.629 112.208C298.798 112.646 299.045 112.989 299.37 113.237C299.695 113.482 300.093 113.605 300.563 113.605C301.054 113.605 301.463 113.476 301.791 113.217C302.123 112.955 302.371 112.604 302.537 112.163C302.706 111.719 302.79 111.225 302.79 110.682C302.79 110.145 302.708 109.661 302.542 109.23C302.379 108.796 302.133 108.453 301.801 108.201C301.473 107.946 301.06 107.818 300.563 107.818C300.086 107.818 299.685 107.939 299.36 108.181C299.035 108.42 298.79 108.754 298.624 109.185C298.459 109.613 298.376 110.112 298.376 110.682ZM308.955 114.659C308.219 114.659 307.585 114.497 307.051 114.172C306.521 113.844 306.112 113.386 305.823 112.8C305.538 112.21 305.396 111.524 305.396 110.741C305.396 109.959 305.538 109.27 305.823 108.673C306.112 108.073 306.513 107.606 307.026 107.271C307.543 106.933 308.147 106.764 308.836 106.764C309.234 106.764 309.626 106.83 310.014 106.963C310.402 107.096 310.755 107.311 311.073 107.609C311.391 107.904 311.645 108.295 311.834 108.783C312.023 109.27 312.117 109.87 312.117 110.582V111.08H306.231V110.065H310.924C310.924 109.634 310.838 109.25 310.665 108.912C310.496 108.574 310.254 108.307 309.94 108.112C309.628 107.916 309.26 107.818 308.836 107.818C308.369 107.818 307.964 107.934 307.623 108.166C307.285 108.395 307.025 108.693 306.842 109.061C306.66 109.429 306.569 109.823 306.569 110.244V110.92C306.569 111.497 306.668 111.986 306.867 112.387C307.069 112.785 307.349 113.088 307.707 113.297C308.065 113.502 308.481 113.605 308.955 113.605C309.263 113.605 309.542 113.562 309.79 113.476C310.042 113.386 310.259 113.254 310.442 113.078C310.624 112.899 310.765 112.677 310.864 112.412L311.998 112.73C311.879 113.115 311.678 113.453 311.396 113.744C311.115 114.033 310.767 114.258 310.352 114.42C309.938 114.58 309.472 114.659 308.955 114.659ZM313.087 116.688V113.406H313.723C313.879 113.244 314.013 113.068 314.126 112.879C314.238 112.69 314.336 112.467 314.419 112.208C314.505 111.946 314.578 111.628 314.638 111.254C314.697 110.876 314.75 110.42 314.797 109.886L315.055 106.864H319.908V113.406H321.081V116.688H319.908V114.5H314.26V116.688H313.087ZM315.055 113.406H318.734V107.957H316.149L315.95 109.886C315.867 110.685 315.765 111.383 315.642 111.979C315.519 112.576 315.324 113.052 315.055 113.406ZM321.962 114.5V113.406H322.241C322.469 113.406 322.66 113.362 322.812 113.272C322.965 113.179 323.087 113.018 323.18 112.79C323.276 112.558 323.349 112.236 323.399 111.825C323.452 111.411 323.49 110.884 323.513 110.244L323.653 106.864H328.743V114.5H327.57V107.957H324.766L324.647 110.682C324.62 111.308 324.564 111.86 324.478 112.337C324.395 112.811 324.267 113.209 324.095 113.531C323.926 113.852 323.701 114.094 323.419 114.256C323.137 114.419 322.784 114.5 322.36 114.5H321.962ZM333.998 114.659C333.309 114.659 332.704 114.495 332.184 114.167C331.667 113.839 331.262 113.38 330.971 112.79C330.682 112.2 330.538 111.51 330.538 110.722C330.538 109.926 330.682 109.232 330.971 108.638C331.262 108.045 331.667 107.585 332.184 107.256C332.704 106.928 333.309 106.764 333.998 106.764C334.688 106.764 335.291 106.928 335.808 107.256C336.328 107.585 336.733 108.045 337.021 108.638C337.313 109.232 337.459 109.926 337.459 110.722C337.459 111.51 337.313 112.2 337.021 112.79C336.733 113.38 336.328 113.839 335.808 114.167C335.291 114.495 334.688 114.659 333.998 114.659ZM333.998 113.605C334.522 113.605 334.953 113.471 335.291 113.202C335.629 112.934 335.879 112.581 336.042 112.143C336.204 111.706 336.285 111.232 336.285 110.722C336.285 110.211 336.204 109.736 336.042 109.295C335.879 108.854 335.629 108.498 335.291 108.226C334.953 107.954 334.522 107.818 333.998 107.818C333.475 107.818 333.044 107.954 332.706 108.226C332.368 108.498 332.117 108.854 331.955 109.295C331.793 109.736 331.711 110.211 331.711 110.722C331.711 111.232 331.793 111.706 331.955 112.143C332.117 112.581 332.368 112.934 332.706 113.202C333.044 113.471 333.475 113.605 333.998 113.605ZM338.458 114.5L341.56 110.622L338.498 106.864H339.89L342.435 110.125H343.072V106.864H344.245V110.125H344.861L347.407 106.864H348.799L345.756 110.622L348.839 114.5H347.427L344.841 111.219H344.245V114.5H343.072V111.219H342.475L339.87 114.5H338.458ZM353.403 114.659C352.667 114.659 352.032 114.497 351.498 114.172C350.968 113.844 350.559 113.386 350.27 112.8C349.985 112.21 349.843 111.524 349.843 110.741C349.843 109.959 349.985 109.27 350.27 108.673C350.559 108.073 350.96 107.606 351.474 107.271C351.991 106.933 352.594 106.764 353.283 106.764C353.681 106.764 354.074 106.83 354.461 106.963C354.849 107.096 355.202 107.311 355.52 107.609C355.839 107.904 356.092 108.295 356.281 108.783C356.47 109.27 356.564 109.87 356.564 110.582V111.08H350.678V110.065H355.371C355.371 109.634 355.285 109.25 355.113 108.912C354.944 108.574 354.702 108.307 354.387 108.112C354.075 107.916 353.707 107.818 353.283 107.818C352.816 107.818 352.412 107.934 352.07 108.166C351.732 108.395 351.472 108.693 351.29 109.061C351.107 109.429 351.016 109.823 351.016 110.244V110.92C351.016 111.497 351.116 111.986 351.314 112.387C351.517 112.785 351.797 113.088 352.155 113.297C352.513 113.502 352.929 113.605 353.403 113.605C353.711 113.605 353.989 113.562 354.238 113.476C354.49 113.386 354.707 113.254 354.889 113.078C355.071 112.899 355.212 112.677 355.312 112.412L356.445 112.73C356.326 113.115 356.125 113.453 355.844 113.744C355.562 114.033 355.214 114.258 354.8 114.42C354.385 114.58 353.92 114.659 353.403 114.659ZM363.46 110.145V111.239H359.244V110.145H363.46ZM359.523 106.864V114.5H358.349V106.864H359.523ZM364.355 106.864V114.5H363.182V106.864H364.355ZM367.671 112.77L371.35 106.864H372.702V114.5H371.529V108.594L367.87 114.5H366.498V106.864H367.671V112.77ZM376.025 112.77L379.703 106.864H381.056V114.5H379.882V108.594L376.223 114.5H374.851V106.864H376.025V112.77ZM378.928 104.318H380.022C380.022 104.855 379.836 105.294 379.465 105.636C379.094 105.977 378.59 106.148 377.953 106.148C377.327 106.148 376.828 105.977 376.457 105.636C376.089 105.294 375.905 104.855 375.905 104.318H376.999C376.999 104.577 377.07 104.804 377.213 104.999C377.359 105.195 377.605 105.293 377.953 105.293C378.301 105.293 378.55 105.195 378.699 104.999C378.852 104.804 378.928 104.577 378.928 104.318ZM386.327 116.688V113.406H386.963C387.119 113.244 387.253 113.068 387.366 112.879C387.479 112.69 387.576 112.467 387.659 112.208C387.745 111.946 387.818 111.628 387.878 111.254C387.938 110.876 387.991 110.42 388.037 109.886L388.296 106.864H393.148V113.406H394.321V116.688H393.148V114.5H387.5V116.688H386.327ZM388.296 113.406H391.975V107.957H389.389L389.191 109.886C389.108 110.685 389.005 111.383 388.882 111.979C388.76 112.576 388.564 113.052 388.296 113.406ZM395.202 114.5V113.406H395.481C395.71 113.406 395.9 113.362 396.053 113.272C396.205 113.179 396.328 113.018 396.42 112.79C396.517 112.558 396.589 112.236 396.639 111.825C396.692 111.411 396.73 110.884 396.754 110.244L396.893 106.864H401.984V114.5H400.81V107.957H398.006L397.887 110.682C397.861 111.308 397.804 111.86 397.718 112.337C397.635 112.811 397.508 113.209 397.335 113.531C397.166 113.852 396.941 114.094 396.659 114.256C396.377 114.419 396.024 114.5 395.6 114.5H395.202ZM408.73 114.5V107.938H406.702C406.244 107.938 405.885 108.044 405.623 108.256C405.361 108.468 405.23 108.759 405.23 109.131C405.23 109.495 405.348 109.782 405.583 109.991C405.822 110.2 406.148 110.304 406.562 110.304H409.028V111.398H406.562C406.045 111.398 405.6 111.307 405.225 111.124C404.851 110.942 404.562 110.682 404.36 110.344C404.158 110.002 404.057 109.598 404.057 109.131C404.057 108.66 404.163 108.256 404.375 107.918C404.587 107.58 404.89 107.319 405.285 107.137C405.683 106.955 406.155 106.864 406.702 106.864H409.844V114.5H408.73ZM403.639 114.5L405.807 110.702H407.08L404.912 114.5H403.639ZM294.185 134.145V135.239H289.969V134.145H294.185ZM290.247 130.864V138.5H289.074V130.864H290.247ZM295.08 130.864V138.5H293.906V130.864H295.08ZM299.469 138.679C298.986 138.679 298.546 138.588 298.152 138.406C297.758 138.22 297.444 137.953 297.212 137.605C296.98 137.254 296.864 136.83 296.864 136.332C296.864 135.895 296.951 135.54 297.123 135.268C297.295 134.993 297.526 134.778 297.814 134.622C298.102 134.466 298.42 134.35 298.768 134.274C299.12 134.195 299.473 134.132 299.827 134.085C300.291 134.026 300.668 133.981 300.956 133.951C301.248 133.918 301.46 133.863 301.592 133.787C301.728 133.711 301.796 133.578 301.796 133.389V133.349C301.796 132.859 301.662 132.478 301.393 132.206C301.128 131.934 300.726 131.798 300.185 131.798C299.625 131.798 299.186 131.921 298.868 132.166C298.55 132.411 298.326 132.673 298.197 132.952L297.083 132.554C297.282 132.09 297.547 131.729 297.879 131.47C298.213 131.208 298.578 131.026 298.972 130.923C299.37 130.817 299.761 130.764 300.146 130.764C300.391 130.764 300.673 130.794 300.991 130.854C301.312 130.91 301.622 131.028 301.92 131.207C302.222 131.386 302.472 131.656 302.671 132.017C302.87 132.378 302.969 132.862 302.969 133.469V138.5H301.796V137.466H301.737C301.657 137.632 301.524 137.809 301.339 137.998C301.153 138.187 300.906 138.348 300.598 138.48C300.29 138.613 299.914 138.679 299.469 138.679ZM299.648 137.625C300.112 137.625 300.504 137.534 300.822 137.352C301.143 137.169 301.385 136.934 301.548 136.646C301.713 136.357 301.796 136.054 301.796 135.736V134.662C301.746 134.722 301.637 134.776 301.468 134.826C301.302 134.872 301.11 134.914 300.891 134.95C300.676 134.983 300.465 135.013 300.26 135.04C300.058 135.063 299.894 135.083 299.768 135.099C299.463 135.139 299.178 135.204 298.913 135.293C298.651 135.379 298.439 135.51 298.276 135.686C298.117 135.858 298.038 136.094 298.038 136.392C298.038 136.8 298.188 137.108 298.49 137.317C298.795 137.522 299.181 137.625 299.648 137.625ZM304.296 140.688V137.406H304.932C305.088 137.244 305.222 137.068 305.335 136.879C305.447 136.69 305.545 136.467 305.628 136.208C305.714 135.946 305.787 135.628 305.847 135.254C305.906 134.876 305.959 134.42 306.006 133.886L306.264 130.864H311.117V137.406H312.29V140.688H311.117V138.5H305.469V140.688H304.296ZM306.264 137.406H309.943V131.957H307.358L307.159 133.886C307.076 134.685 306.974 135.383 306.851 135.979C306.728 136.576 306.533 137.052 306.264 137.406ZM317.049 138.659C316.313 138.659 315.679 138.497 315.145 138.172C314.615 137.844 314.205 137.386 313.917 136.8C313.632 136.21 313.489 135.524 313.489 134.741C313.489 133.959 313.632 133.27 313.917 132.673C314.205 132.073 314.606 131.606 315.12 131.271C315.637 130.933 316.24 130.764 316.93 130.764C317.327 130.764 317.72 130.83 318.108 130.963C318.496 131.096 318.849 131.311 319.167 131.609C319.485 131.904 319.739 132.295 319.928 132.783C320.116 133.27 320.211 133.87 320.211 134.582V135.08H314.325V134.065H319.018C319.018 133.634 318.932 133.25 318.759 132.912C318.59 132.574 318.348 132.307 318.033 132.112C317.722 131.916 317.354 131.818 316.93 131.818C316.462 131.818 316.058 131.934 315.717 132.166C315.379 132.395 315.118 132.693 314.936 133.061C314.754 133.429 314.663 133.823 314.663 134.244V134.92C314.663 135.497 314.762 135.986 314.961 136.387C315.163 136.785 315.443 137.088 315.801 137.297C316.159 137.502 316.575 137.605 317.049 137.605C317.357 137.605 317.636 137.562 317.884 137.476C318.136 137.386 318.353 137.254 318.536 137.078C318.718 136.899 318.859 136.677 318.958 136.412L320.092 136.73C319.972 137.115 319.772 137.453 319.49 137.744C319.208 138.033 318.86 138.258 318.446 138.42C318.032 138.58 317.566 138.659 317.049 138.659ZM315.438 129.591C315.229 129.591 315.044 129.511 314.881 129.352C314.722 129.19 314.643 129.004 314.643 128.795C314.643 128.567 314.722 128.378 314.881 128.229C315.044 128.076 315.229 128 315.438 128C315.667 128 315.856 128.076 316.005 128.229C316.157 128.378 316.234 128.567 316.234 128.795C316.234 129.004 316.157 129.19 316.005 129.352C315.856 129.511 315.667 129.591 315.438 129.591ZM318.302 129.591C318.093 129.591 317.907 129.511 317.745 129.352C317.586 129.19 317.506 129.004 317.506 128.795C317.506 128.567 317.586 128.378 317.745 128.229C317.907 128.076 318.093 128 318.302 128C318.531 128 318.719 128.076 318.869 128.229C319.021 128.378 319.097 128.567 319.097 128.795C319.097 129.004 319.021 129.19 318.869 129.352C318.719 129.511 318.531 129.591 318.302 129.591ZM321.313 138.5L324.416 134.622L321.353 130.864H322.745L325.291 134.125H325.927V130.864H327.1V134.125H327.717L330.262 130.864H331.654L328.612 134.622L331.694 138.5H330.282L327.697 135.219H327.1V138.5H325.927V135.219H325.33L322.725 138.5H321.313ZM338.482 134.145V135.239H334.266V134.145H338.482ZM334.544 130.864V138.5H333.371V130.864H334.544ZM339.376 130.864V138.5H338.203V130.864H339.376ZM344.621 138.659C343.932 138.659 343.327 138.495 342.807 138.167C342.29 137.839 341.885 137.38 341.594 136.79C341.305 136.2 341.161 135.51 341.161 134.722C341.161 133.926 341.305 133.232 341.594 132.638C341.885 132.045 342.29 131.585 342.807 131.256C343.327 130.928 343.932 130.764 344.621 130.764C345.311 130.764 345.914 130.928 346.431 131.256C346.951 131.585 347.356 132.045 347.644 132.638C347.936 133.232 348.082 133.926 348.082 134.722C348.082 135.51 347.936 136.2 347.644 136.79C347.356 137.38 346.951 137.839 346.431 138.167C345.914 138.495 345.311 138.659 344.621 138.659ZM344.621 137.605C345.145 137.605 345.576 137.471 345.914 137.202C346.252 136.934 346.502 136.581 346.665 136.143C346.827 135.706 346.908 135.232 346.908 134.722C346.908 134.211 346.827 133.736 346.665 133.295C346.502 132.854 346.252 132.498 345.914 132.226C345.576 131.954 345.145 131.818 344.621 131.818C344.098 131.818 343.667 131.954 343.329 132.226C342.991 132.498 342.741 132.854 342.578 133.295C342.416 133.736 342.335 134.211 342.335 134.722C342.335 135.232 342.416 135.706 342.578 136.143C342.741 136.581 342.991 136.934 343.329 137.202C343.667 137.471 344.098 137.605 344.621 137.605ZM354.586 130.864V131.957H351.046V138.5H349.873V130.864H354.586ZM359.004 138.659C358.315 138.659 357.71 138.495 357.19 138.167C356.673 137.839 356.268 137.38 355.977 136.79C355.688 136.2 355.544 135.51 355.544 134.722C355.544 133.926 355.688 133.232 355.977 132.638C356.268 132.045 356.673 131.585 357.19 131.256C357.71 130.928 358.315 130.764 359.004 130.764C359.694 130.764 360.297 130.928 360.814 131.256C361.334 131.585 361.739 132.045 362.027 132.638C362.319 133.232 362.464 133.926 362.464 134.722C362.464 135.51 362.319 136.2 362.027 136.79C361.739 137.38 361.334 137.839 360.814 138.167C360.297 138.495 359.694 138.659 359.004 138.659ZM359.004 137.605C359.528 137.605 359.959 137.471 360.297 137.202C360.635 136.934 360.885 136.581 361.048 136.143C361.21 135.706 361.291 135.232 361.291 134.722C361.291 134.211 361.21 133.736 361.048 133.295C360.885 132.854 360.635 132.498 360.297 132.226C359.959 131.954 359.528 131.818 359.004 131.818C358.481 131.818 358.05 131.954 357.712 132.226C357.374 132.498 357.123 132.854 356.961 133.295C356.799 133.736 356.717 134.211 356.717 134.722C356.717 135.232 356.799 135.706 356.961 136.143C357.123 136.581 357.374 136.934 357.712 137.202C358.05 137.471 358.481 137.605 359.004 137.605ZM289.074 165.364V154.864H290.207V156.077H290.347C290.433 155.944 290.552 155.775 290.705 155.57C290.86 155.361 291.082 155.175 291.371 155.013C291.662 154.847 292.057 154.764 292.554 154.764C293.197 154.764 293.764 154.925 294.254 155.246C294.745 155.568 295.128 156.024 295.403 156.614C295.678 157.204 295.815 157.9 295.815 158.702C295.815 159.51 295.678 160.211 295.403 160.805C295.128 161.395 294.746 161.852 294.259 162.177C293.772 162.498 293.21 162.659 292.574 162.659C292.083 162.659 291.691 162.578 291.396 162.415C291.101 162.25 290.874 162.062 290.714 161.854C290.555 161.642 290.433 161.466 290.347 161.327H290.247V165.364H289.074ZM290.227 158.682C290.227 159.259 290.312 159.767 290.481 160.208C290.65 160.646 290.897 160.989 291.222 161.237C291.546 161.482 291.944 161.605 292.415 161.605C292.905 161.605 293.315 161.476 293.643 161.217C293.974 160.955 294.223 160.604 294.388 160.163C294.558 159.719 294.642 159.225 294.642 158.682C294.642 158.145 294.559 157.661 294.393 157.23C294.231 156.796 293.984 156.453 293.653 156.201C293.325 155.946 292.912 155.818 292.415 155.818C291.938 155.818 291.536 155.939 291.212 156.181C290.887 156.42 290.642 156.754 290.476 157.185C290.31 157.613 290.227 158.112 290.227 158.682ZM299.852 162.679C299.368 162.679 298.929 162.588 298.535 162.406C298.14 162.22 297.827 161.953 297.595 161.605C297.363 161.254 297.247 160.83 297.247 160.332C297.247 159.895 297.333 159.54 297.506 159.268C297.678 158.993 297.908 158.778 298.197 158.622C298.485 158.466 298.803 158.35 299.151 158.274C299.503 158.195 299.856 158.132 300.21 158.085C300.674 158.026 301.05 157.981 301.339 157.951C301.63 157.918 301.843 157.863 301.975 157.787C302.111 157.711 302.179 157.578 302.179 157.389V157.349C302.179 156.859 302.045 156.478 301.776 156.206C301.511 155.934 301.108 155.798 300.568 155.798C300.008 155.798 299.569 155.921 299.251 156.166C298.933 156.411 298.709 156.673 298.58 156.952L297.466 156.554C297.665 156.09 297.93 155.729 298.261 155.47C298.596 155.208 298.961 155.026 299.355 154.923C299.753 154.817 300.144 154.764 300.528 154.764C300.774 154.764 301.055 154.794 301.374 154.854C301.695 154.91 302.005 155.028 302.303 155.207C302.605 155.386 302.855 155.656 303.054 156.017C303.253 156.378 303.352 156.862 303.352 157.469V162.5H302.179V161.466H302.119C302.04 161.632 301.907 161.809 301.722 161.998C301.536 162.187 301.289 162.348 300.981 162.48C300.673 162.613 300.296 162.679 299.852 162.679ZM300.031 161.625C300.495 161.625 300.886 161.534 301.205 161.352C301.526 161.169 301.768 160.934 301.93 160.646C302.096 160.357 302.179 160.054 302.179 159.736V158.662C302.129 158.722 302.02 158.776 301.851 158.826C301.685 158.872 301.493 158.914 301.274 158.95C301.059 158.983 300.848 159.013 300.643 159.04C300.441 159.063 300.277 159.083 300.151 159.099C299.846 159.139 299.561 159.204 299.295 159.293C299.034 159.379 298.821 159.51 298.659 159.686C298.5 159.858 298.42 160.094 298.42 160.392C298.42 160.8 298.571 161.108 298.873 161.317C299.178 161.522 299.564 161.625 300.031 161.625ZM305.017 160.551H306.269C306.296 160.896 306.452 161.158 306.737 161.337C307.025 161.516 307.4 161.605 307.86 161.605C308.331 161.605 308.734 161.509 309.068 161.317C309.403 161.121 309.57 160.806 309.57 160.372C309.57 160.117 309.508 159.895 309.382 159.706C309.256 159.514 309.078 159.365 308.85 159.259C308.621 159.152 308.351 159.099 308.039 159.099H306.727V158.045H308.039C308.507 158.045 308.851 157.939 309.073 157.727C309.299 157.515 309.411 157.25 309.411 156.932C309.411 156.59 309.29 156.317 309.048 156.112C308.807 155.903 308.463 155.798 308.019 155.798C307.572 155.798 307.199 155.899 306.901 156.102C306.602 156.3 306.445 156.557 306.428 156.872H305.195C305.209 156.461 305.335 156.098 305.573 155.783C305.812 155.465 306.137 155.217 306.548 155.038C306.959 154.855 307.429 154.764 307.96 154.764C308.497 154.764 308.962 154.859 309.357 155.048C309.754 155.233 310.061 155.487 310.276 155.808C310.495 156.126 310.605 156.488 310.605 156.892C310.605 157.323 310.484 157.671 310.242 157.936C310 158.201 309.696 158.39 309.332 158.503V158.582C309.62 158.602 309.87 158.695 310.083 158.861C310.298 159.023 310.465 159.237 310.585 159.502C310.704 159.764 310.764 160.054 310.764 160.372C310.764 160.836 310.639 161.241 310.391 161.585C310.142 161.927 309.801 162.192 309.367 162.381C308.932 162.566 308.437 162.659 307.88 162.659C307.34 162.659 306.856 162.571 306.428 162.396C306.001 162.217 305.661 161.97 305.409 161.655C305.161 161.337 305.03 160.969 305.017 160.551ZM316.588 160.909L319.253 154.864H320.366L317.065 162.5H316.111L312.869 154.864H313.963L316.588 160.909ZM313.585 154.864V162.5H312.412V154.864H313.585ZM319.591 162.5V154.864H320.764V162.5H319.591ZM326.113 162.659C325.378 162.659 324.743 162.497 324.209 162.172C323.679 161.844 323.27 161.386 322.981 160.8C322.696 160.21 322.554 159.524 322.554 158.741C322.554 157.959 322.696 157.27 322.981 156.673C323.27 156.073 323.671 155.606 324.184 155.271C324.702 154.933 325.305 154.764 325.994 154.764C326.392 154.764 326.785 154.83 327.172 154.963C327.56 155.096 327.913 155.311 328.231 155.609C328.55 155.904 328.803 156.295 328.992 156.783C329.181 157.27 329.275 157.87 329.275 158.582V159.08H323.389V158.065H328.082C328.082 157.634 327.996 157.25 327.824 156.912C327.655 156.574 327.413 156.307 327.098 156.112C326.786 155.916 326.418 155.818 325.994 155.818C325.527 155.818 325.122 155.934 324.781 156.166C324.443 156.395 324.183 156.693 324.001 157.061C323.818 157.429 323.727 157.823 323.727 158.244V158.92C323.727 159.497 323.827 159.986 324.025 160.387C324.228 160.785 324.508 161.088 324.866 161.297C325.224 161.502 325.64 161.605 326.113 161.605C326.422 161.605 326.7 161.562 326.949 161.476C327.201 161.386 327.418 161.254 327.6 161.078C327.782 160.899 327.923 160.677 328.023 160.412L329.156 160.73C329.037 161.115 328.836 161.453 328.555 161.744C328.273 162.033 327.925 162.258 327.51 162.42C327.096 162.58 326.631 162.659 326.113 162.659ZM341.481 161.406L341.341 164.688H340.128V162.5H339.134V161.406H341.481ZM331.06 154.864H332.233V161.406H335.117V154.864H336.29V161.406H339.174V154.864H340.347V162.5H331.06V154.864ZM346.307 162.659C345.571 162.659 344.936 162.497 344.403 162.172C343.872 161.844 343.463 161.386 343.175 160.8C342.89 160.21 342.747 159.524 342.747 158.741C342.747 157.959 342.89 157.27 343.175 156.673C343.463 156.073 343.864 155.606 344.378 155.271C344.895 154.933 345.498 154.764 346.188 154.764C346.585 154.764 346.978 154.83 347.366 154.963C347.754 155.096 348.107 155.311 348.425 155.609C348.743 155.904 348.996 156.295 349.185 156.783C349.374 157.27 349.469 157.87 349.469 158.582V159.08H343.582V158.065H348.276C348.276 157.634 348.189 157.25 348.017 156.912C347.848 156.574 347.606 156.307 347.291 156.112C346.98 155.916 346.612 155.818 346.188 155.818C345.72 155.818 345.316 155.934 344.974 156.166C344.636 156.395 344.376 156.693 344.194 157.061C344.012 157.429 343.92 157.823 343.92 158.244V158.92C343.92 159.497 344.02 159.986 344.219 160.387C344.421 160.785 344.701 161.088 345.059 161.297C345.417 161.502 345.833 161.605 346.307 161.605C346.615 161.605 346.893 161.562 347.142 161.476C347.394 161.386 347.611 161.254 347.793 161.078C347.976 160.899 348.116 160.677 348.216 160.412L349.349 160.73C349.23 161.115 349.03 161.453 348.748 161.744C348.466 162.033 348.118 162.258 347.704 162.42C347.29 162.58 346.824 162.659 346.307 162.659ZM356.364 158.145V159.239H352.148V158.145H356.364ZM352.427 154.864V162.5H351.254V154.864H352.427ZM357.259 154.864V162.5H356.086V154.864H357.259ZM360.575 160.77L364.254 154.864H365.607V162.5H364.433V156.594L360.774 162.5H359.402V154.864H360.575V160.77ZM372.349 162.5V155.938H370.321C369.863 155.938 369.504 156.044 369.242 156.256C368.98 156.468 368.849 156.759 368.849 157.131C368.849 157.495 368.967 157.782 369.202 157.991C369.441 158.2 369.767 158.304 370.182 158.304H372.648V159.398H370.182C369.665 159.398 369.219 159.307 368.844 159.124C368.47 158.942 368.181 158.682 367.979 158.344C367.777 158.002 367.676 157.598 367.676 157.131C367.676 156.66 367.782 156.256 367.994 155.918C368.206 155.58 368.51 155.319 368.904 155.137C369.302 154.955 369.774 154.864 370.321 154.864H373.463V162.5H372.349ZM367.258 162.5L369.426 158.702H370.699L368.531 162.5H367.258ZM382.657 162.659C381.941 162.659 381.324 162.49 380.807 162.152C380.29 161.814 379.892 161.348 379.614 160.755C379.336 160.162 379.196 159.484 379.196 158.722C379.196 157.946 379.339 157.262 379.624 156.668C379.912 156.072 380.313 155.606 380.827 155.271C381.344 154.933 381.947 154.764 382.637 154.764C383.174 154.764 383.658 154.864 384.088 155.062C384.519 155.261 384.872 155.54 385.147 155.898C385.422 156.256 385.593 156.673 385.659 157.151H384.486C384.397 156.803 384.198 156.494 383.89 156.226C383.585 155.954 383.174 155.818 382.657 155.818C382.199 155.818 381.798 155.937 381.453 156.176C381.112 156.411 380.845 156.745 380.653 157.175C380.464 157.603 380.37 158.105 380.37 158.682C380.37 159.272 380.462 159.786 380.648 160.223C380.837 160.661 381.102 161 381.444 161.242C381.788 161.484 382.193 161.605 382.657 161.605C382.962 161.605 383.238 161.552 383.487 161.446C383.735 161.34 383.946 161.188 384.118 160.989C384.291 160.79 384.413 160.551 384.486 160.273H385.659C385.593 160.723 385.429 161.129 385.167 161.491C384.909 161.849 384.566 162.134 384.138 162.346C383.714 162.555 383.22 162.659 382.657 162.659ZM387.375 165.364V154.864H388.508V156.077H388.647C388.734 155.944 388.853 155.775 389.005 155.57C389.161 155.361 389.383 155.175 389.672 155.013C389.963 154.847 390.358 154.764 390.855 154.764C391.498 154.764 392.065 154.925 392.555 155.246C393.046 155.568 393.428 156.024 393.703 156.614C393.979 157.204 394.116 157.9 394.116 158.702C394.116 159.51 393.979 160.211 393.703 160.805C393.428 161.395 393.047 161.852 392.56 162.177C392.073 162.498 391.511 162.659 390.875 162.659C390.384 162.659 389.991 162.578 389.696 162.415C389.401 162.25 389.174 162.062 389.015 161.854C388.856 161.642 388.734 161.466 388.647 161.327H388.548V165.364H387.375ZM388.528 158.682C388.528 159.259 388.613 159.767 388.782 160.208C388.951 160.646 389.198 160.989 389.522 161.237C389.847 161.482 390.245 161.605 390.716 161.605C391.206 161.605 391.615 161.476 391.944 161.217C392.275 160.955 392.524 160.604 392.689 160.163C392.858 159.719 392.943 159.225 392.943 158.682C392.943 158.145 392.86 157.661 392.694 157.23C392.532 156.796 392.285 156.453 391.953 156.201C391.625 155.946 391.213 155.818 390.716 155.818C390.238 155.818 389.837 155.939 389.512 156.181C389.188 156.42 388.942 156.754 388.777 157.185C388.611 157.613 388.528 158.112 388.528 158.682ZM399.108 162.659C398.372 162.659 397.737 162.497 397.203 162.172C396.673 161.844 396.264 161.386 395.975 160.8C395.69 160.21 395.548 159.524 395.548 158.741C395.548 157.959 395.69 157.27 395.975 156.673C396.264 156.073 396.665 155.606 397.179 155.271C397.696 154.933 398.299 154.764 398.988 154.764C399.386 154.764 399.779 154.83 400.167 154.963C400.554 155.096 400.907 155.311 401.225 155.609C401.544 155.904 401.797 156.295 401.986 156.783C402.175 157.27 402.27 157.87 402.27 158.582V159.08H396.383V158.065H401.076C401.076 157.634 400.99 157.25 400.818 156.912C400.649 156.574 400.407 156.307 400.092 156.112C399.78 155.916 399.413 155.818 398.988 155.818C398.521 155.818 398.117 155.934 397.775 156.166C397.437 156.395 397.177 156.693 396.995 157.061C396.812 157.429 396.721 157.823 396.721 158.244V158.92C396.721 159.497 396.821 159.986 397.02 160.387C397.222 160.785 397.502 161.088 397.86 161.297C398.218 161.502 398.634 161.605 399.108 161.605C399.416 161.605 399.694 161.562 399.943 161.476C400.195 161.386 400.412 161.254 400.594 161.078C400.776 160.899 400.917 160.677 401.017 160.412L402.15 160.73C402.031 161.115 401.83 161.453 401.549 161.744C401.267 162.033 400.919 162.258 400.505 162.42C400.09 162.58 399.625 162.659 399.108 162.659ZM403.239 164.688V161.406H403.875C404.031 161.244 404.165 161.068 404.278 160.879C404.391 160.69 404.489 160.467 404.571 160.208C404.658 159.946 404.73 159.628 404.79 159.254C404.85 158.876 404.903 158.42 404.949 157.886L405.208 154.864H410.06V161.406H411.233V164.688H410.06V162.5H404.412V164.688H403.239ZM405.208 161.406H408.887V155.957H406.301L406.103 157.886C406.02 158.685 405.917 159.383 405.794 159.979C405.672 160.576 405.476 161.052 405.208 161.406ZM415.893 162.659C415.177 162.659 414.561 162.49 414.044 162.152C413.526 161.814 413.129 161.348 412.85 160.755C412.572 160.162 412.433 159.484 412.433 158.722C412.433 157.946 412.575 157.262 412.86 156.668C413.149 156.072 413.55 155.606 414.063 155.271C414.58 154.933 415.184 154.764 415.873 154.764C416.41 154.764 416.894 154.864 417.325 155.062C417.756 155.261 418.109 155.54 418.384 155.898C418.659 156.256 418.829 156.673 418.896 157.151H417.722C417.633 156.803 417.434 156.494 417.126 156.226C416.821 155.954 416.41 155.818 415.893 155.818C415.436 155.818 415.035 155.937 414.69 156.176C414.348 156.411 414.082 156.745 413.889 157.175C413.7 157.603 413.606 158.105 413.606 158.682C413.606 159.272 413.699 159.786 413.884 160.223C414.073 160.661 414.338 161 414.68 161.242C415.025 161.484 415.429 161.605 415.893 161.605C416.198 161.605 416.475 161.552 416.723 161.446C416.972 161.34 417.182 161.188 417.355 160.989C417.527 160.79 417.65 160.551 417.722 160.273H418.896C418.829 160.723 418.665 161.129 418.404 161.491C418.145 161.849 417.802 162.134 417.374 162.346C416.95 162.555 416.456 162.659 415.893 162.659ZM420.009 155.957V154.864H426.214V155.957H423.708V162.5H422.535V155.957H420.009ZM427.925 162.5V154.864H431.048C431.87 154.864 432.522 155.049 433.006 155.42C433.49 155.792 433.732 156.282 433.732 156.892C433.732 157.356 433.595 157.716 433.32 157.971C433.045 158.223 432.692 158.393 432.261 158.483C432.542 158.523 432.816 158.622 433.081 158.781C433.349 158.94 433.571 159.159 433.747 159.438C433.923 159.713 434.011 160.051 434.011 160.452C434.011 160.843 433.911 161.192 433.712 161.501C433.513 161.809 433.228 162.053 432.857 162.232C432.486 162.411 432.042 162.5 431.525 162.5H427.925ZM429.039 161.426H431.525C431.929 161.426 432.246 161.33 432.474 161.138C432.703 160.946 432.817 160.684 432.817 160.352C432.817 159.958 432.703 159.648 432.474 159.423C432.246 159.194 431.929 159.08 431.525 159.08H429.039V161.426ZM429.039 158.065H431.048C431.362 158.065 431.633 158.022 431.858 157.936C432.083 157.847 432.256 157.721 432.375 157.558C432.498 157.393 432.559 157.197 432.559 156.972C432.559 156.65 432.425 156.398 432.156 156.216C431.888 156.03 431.518 155.938 431.048 155.938H429.039V158.065Z" fill="black" style="fill:black;fill-opacity:1;"/>
<rect x="288" y="178.5" width="150" height="4" rx="2" fill="#D9D9D9" style="fill:#D9D9D9;fill:color(display-p3 0.8510 0.8510 0.8510);fill-opacity:1;"/>
<rect x="288" y="179" width="79" height="4" rx="2" fill="black" style="fill:black;fill-opacity:1;"/>
<g clip-path="url(#clip0_655_2773)">
<rect y="230" width="463" height="170" rx="15" fill="black" style="fill:black;fill-opacity:1;"/>
<path d="M94.4219 263.498L166.934 262.063L216.975 323.006L143.492 332.161L94.4219 263.498Z" fill="#282828" fill-opacity="0.8" style="fill:#282828;fill:color(display-p3 0.1569 0.1569 0.1569);fill-opacity:0.8;"/>
<path d="M70.4902 332.18L143.789 331.288L197.673 397.587L123.803 406.812L70.4902 332.18Z" fill="#282828" fill-opacity="0.8" style="fill:#282828;fill:color(display-p3 0.1569 0.1569 0.1569);fill-opacity:0.8;"/>
<path d="M-29.5098 200.18L43.7893 199.288L97.6734 265.587L23.8028 274.812L-29.5098 200.18Z" fill="#282828" fill-opacity="0.8" style="fill:#282828;fill:color(display-p3 0.1569 0.1569 0.1569);fill-opacity:0.8;"/>
<path d="M27.7344 311.199V308.983H28.5653C28.9394 308.983 29.2472 308.929 29.4886 308.82C29.7301 308.711 29.9242 308.554 30.071 308.351C30.2225 308.147 30.348 307.911 30.4474 307.641L30.6392 307.151L25.4403 296.455H28.196L31.8182 304.239L34.9503 296.455H37.6634L32.6491 308.315C32.4171 308.827 32.1496 309.303 31.8466 309.743C31.5436 310.179 31.1482 310.531 30.6605 310.801C30.1776 311.066 29.5478 311.199 28.7713 311.199H27.7344ZM38.6257 311V300.091H43.2067C44.4993 300.091 45.5196 300.349 46.2678 300.865C47.0206 301.381 47.397 302.101 47.397 303.024C47.397 303.635 47.1839 304.134 46.7578 304.523C46.3364 304.906 45.7611 305.164 45.032 305.297C45.6049 305.344 46.1068 305.489 46.5376 305.73C46.9732 305.972 47.3142 306.289 47.5604 306.682C47.8066 307.075 47.9297 307.527 47.9297 308.038C47.9297 308.64 47.7711 309.163 47.4538 309.608C47.1413 310.048 46.6844 310.392 46.0831 310.638C45.4865 310.879 44.7621 311 43.9098 311H38.6257ZM41.0334 308.976H43.9098C44.3833 308.976 44.755 308.865 45.0249 308.642C45.2947 308.415 45.4297 308.107 45.4297 307.719C45.4297 307.269 45.2947 306.916 45.0249 306.661C44.755 306.4 44.3833 306.27 43.9098 306.27H41.0334V308.976ZM41.0334 304.608H43.2564C43.6068 304.608 43.9074 304.558 44.1584 304.459C44.4093 304.355 44.6011 304.21 44.7337 304.026C44.8662 303.836 44.9325 303.611 44.9325 303.351C44.9325 302.977 44.7786 302.683 44.4709 302.47C44.1679 302.257 43.7464 302.151 43.2067 302.151H41.0334V304.608ZM54.881 311.213C53.7873 311.213 52.8427 310.986 52.0472 310.531C51.2565 310.072 50.6481 309.423 50.2219 308.585C49.7958 307.742 49.5827 306.75 49.5827 305.609C49.5827 304.487 49.7958 303.502 50.2219 302.655C50.6528 301.803 51.2541 301.14 52.0259 300.666C52.7977 300.188 53.7044 299.949 54.7461 299.949C55.4184 299.949 56.0529 300.058 56.6495 300.276C57.2508 300.489 57.7811 300.82 58.2404 301.27C58.7044 301.72 59.069 302.293 59.3342 302.989C59.5993 303.68 59.7319 304.504 59.7319 305.46V306.249H50.7901V304.516H57.2674C57.2627 304.023 57.1561 303.585 56.9478 303.202C56.7395 302.813 56.4483 302.508 56.0742 302.286C55.7049 302.063 55.274 301.952 54.7816 301.952C54.256 301.952 53.7944 302.08 53.3967 302.335C52.9989 302.586 52.6888 302.918 52.4663 303.33C52.2485 303.737 52.1372 304.184 52.1325 304.672V306.185C52.1325 306.819 52.2485 307.364 52.4805 307.818C52.7125 308.268 53.0368 308.614 53.4535 308.855C53.8701 309.092 54.3578 309.21 54.9165 309.21C55.2906 309.21 55.6291 309.158 55.9322 309.054C56.2352 308.945 56.498 308.786 56.7205 308.578C56.9431 308.37 57.1112 308.112 57.2248 307.804L59.6254 308.074C59.4738 308.708 59.185 309.262 58.7589 309.736C58.3375 310.205 57.7977 310.569 57.1396 310.83C56.4814 311.085 55.7286 311.213 54.881 311.213ZM61.1541 311L61.1399 308.884H61.5163C61.8004 308.884 62.0395 308.82 62.2337 308.692C62.4278 308.564 62.5888 308.351 62.7166 308.053C62.8445 307.75 62.9439 307.342 63.0149 306.831C63.0859 306.32 63.1357 305.683 63.1641 304.92L63.3558 300.091H71.3104V311H68.8246V302.2H65.6925L65.522 305.716C65.4794 306.625 65.3776 307.413 65.2166 308.081C65.0604 308.744 64.8378 309.291 64.549 309.722C64.2649 310.152 63.9074 310.474 63.4766 310.688C63.0457 310.896 62.5367 311 61.9496 311H61.1541ZM76.3778 307.52L80.7457 300.091H83.3878V311H80.902V303.564L76.5483 311H73.8991V300.091H76.3778V307.52ZM95.1403 300.091V311H92.6687V300.091H95.1403ZM93.9826 305.02V307.122C93.7032 307.245 93.386 307.357 93.0309 307.456C92.6805 307.551 92.3088 307.626 91.9158 307.683C91.5276 307.74 91.1393 307.768 90.7511 307.768C89.2927 307.768 88.1398 307.442 87.2923 306.788C86.4495 306.13 86.0281 305.105 86.0281 303.713V300.077H88.4854V303.713C88.4854 304.182 88.5683 304.558 88.734 304.842C88.8997 305.126 89.1507 305.335 89.4869 305.467C89.823 305.595 90.2444 305.659 90.7511 305.659C91.3192 305.659 91.859 305.602 92.3704 305.489C92.8817 305.375 93.4192 305.219 93.9826 305.02ZM100.206 307.52L104.574 300.091H107.216V311H104.73V303.564L100.376 311H97.7273V300.091H100.206V307.52ZM109.856 311V300.091H114.437C115.73 300.091 116.75 300.349 117.498 300.865C118.251 301.381 118.627 302.101 118.627 303.024C118.627 303.635 118.414 304.134 117.988 304.523C117.567 304.906 116.992 305.164 116.262 305.297C116.835 305.344 117.337 305.489 117.768 305.73C118.204 305.972 118.545 306.289 118.791 306.682C119.037 307.075 119.16 307.527 119.16 308.038C119.16 308.64 119.002 309.163 118.684 309.608C118.372 310.048 117.915 310.392 117.314 310.638C116.717 310.879 115.993 311 115.14 311H109.856ZM112.264 308.976H115.14C115.614 308.976 115.985 308.865 116.255 308.642C116.525 308.415 116.66 308.107 116.66 307.719C116.66 307.269 116.525 306.916 116.255 306.661C115.985 306.4 115.614 306.27 115.14 306.27H112.264V308.976ZM112.264 304.608H114.487C114.837 304.608 115.138 304.558 115.389 304.459C115.64 304.355 115.832 304.21 115.964 304.026C116.097 303.836 116.163 303.611 116.163 303.351C116.163 302.977 116.009 302.683 115.701 302.47C115.398 302.257 114.977 302.151 114.437 302.151H112.264V304.608ZM124.421 311.22C123.73 311.22 123.107 311.097 122.553 310.851C122.004 310.6 121.568 310.231 121.246 309.743C120.929 309.255 120.771 308.654 120.771 307.939C120.771 307.323 120.884 306.814 121.112 306.412C121.339 306.009 121.649 305.688 122.042 305.446C122.435 305.205 122.878 305.022 123.37 304.899C123.867 304.771 124.381 304.679 124.911 304.622C125.55 304.556 126.069 304.497 126.467 304.445C126.864 304.388 127.153 304.303 127.333 304.189C127.518 304.071 127.61 303.888 127.61 303.642V303.599C127.61 303.064 127.451 302.65 127.134 302.357C126.817 302.063 126.36 301.916 125.763 301.916C125.134 301.916 124.634 302.054 124.265 302.328C123.9 302.603 123.654 302.927 123.526 303.301L121.126 302.96C121.315 302.297 121.628 301.743 122.063 301.298C122.499 300.848 123.031 300.512 123.661 300.29C124.291 300.062 124.987 299.949 125.749 299.949C126.275 299.949 126.798 300.01 127.319 300.134C127.84 300.257 128.316 300.46 128.746 300.744C129.177 301.024 129.523 301.405 129.783 301.888C130.049 302.371 130.181 302.974 130.181 303.699V311H127.71V309.501H127.624C127.468 309.804 127.248 310.089 126.964 310.354C126.684 310.614 126.332 310.825 125.906 310.986C125.484 311.142 124.989 311.22 124.421 311.22ZM125.089 309.331C125.605 309.331 126.052 309.229 126.431 309.026C126.81 308.817 127.101 308.543 127.305 308.202C127.513 307.861 127.617 307.489 127.617 307.087V305.801C127.537 305.867 127.399 305.929 127.205 305.986C127.016 306.043 126.803 306.092 126.566 306.135C126.329 306.178 126.095 306.215 125.863 306.249C125.631 306.282 125.43 306.31 125.259 306.334C124.876 306.386 124.532 306.471 124.229 306.589C123.926 306.708 123.687 306.874 123.512 307.087C123.337 307.295 123.249 307.565 123.249 307.896C123.249 308.37 123.422 308.727 123.768 308.969C124.113 309.21 124.554 309.331 125.089 309.331ZM135.245 307.52L139.613 300.091H142.255V311H139.769V303.564L135.415 311H132.766V300.091H135.245V307.52ZM138.91 296.341H140.835C140.835 297.17 140.534 297.842 139.933 298.358C139.336 298.869 138.526 299.125 137.504 299.125C136.49 299.125 135.683 298.869 135.082 298.358C134.485 297.842 134.189 297.17 134.194 296.341H136.104C136.104 296.682 136.209 296.987 136.417 297.257C136.63 297.522 136.992 297.655 137.504 297.655C138.005 297.655 138.363 297.522 138.576 297.257C138.794 296.992 138.905 296.687 138.91 296.341ZM143.674 302.2V300.091H153.219V302.2H149.689V311H147.203V302.2H143.674ZM159.647 311.213C158.553 311.213 157.608 310.986 156.813 310.531C156.022 310.072 155.414 309.423 154.988 308.585C154.561 307.742 154.348 306.75 154.348 305.609C154.348 304.487 154.561 303.502 154.988 302.655C155.418 301.803 156.02 301.14 156.792 300.666C157.563 300.188 158.47 299.949 159.512 299.949C160.184 299.949 160.819 300.058 161.415 300.276C162.016 300.489 162.547 300.82 163.006 301.27C163.47 301.72 163.835 302.293 164.1 302.989C164.365 303.68 164.498 304.504 164.498 305.46V306.249H155.556V304.516H162.033C162.028 304.023 161.922 303.585 161.713 303.202C161.505 302.813 161.214 302.508 160.84 302.286C160.471 302.063 160.04 301.952 159.547 301.952C159.022 301.952 158.56 302.08 158.162 302.335C157.765 302.586 157.454 302.918 157.232 303.33C157.014 303.737 156.903 304.184 156.898 304.672V306.185C156.898 306.819 157.014 307.364 157.246 307.818C157.478 308.268 157.802 308.614 158.219 308.855C158.636 309.092 159.123 309.21 159.682 309.21C160.056 309.21 160.395 309.158 160.698 309.054C161.001 308.945 161.264 308.786 161.486 308.578C161.709 308.37 161.877 308.112 161.99 307.804L164.391 308.074C164.239 308.708 163.951 309.262 163.525 309.736C163.103 310.205 162.563 310.569 161.905 310.83C161.247 311.085 160.494 311.213 159.647 311.213ZM176.392 311.213C175.303 311.213 174.368 310.974 173.587 310.496C172.81 310.018 172.211 309.357 171.79 308.514C171.373 307.667 171.165 306.691 171.165 305.588C171.165 304.48 171.378 303.502 171.804 302.655C172.23 301.803 172.831 301.14 173.608 300.666C174.389 300.188 175.313 299.949 176.378 299.949C177.263 299.949 178.047 300.112 178.729 300.439C179.415 300.761 179.962 301.218 180.369 301.81C180.777 302.397 181.009 303.083 181.065 303.869H178.608C178.509 303.344 178.272 302.906 177.898 302.555C177.528 302.2 177.034 302.023 176.413 302.023C175.888 302.023 175.426 302.165 175.028 302.449C174.631 302.728 174.321 303.131 174.098 303.656C173.88 304.182 173.771 304.812 173.771 305.545C173.771 306.289 173.88 306.928 174.098 307.463C174.316 307.993 174.621 308.403 175.014 308.692C175.412 308.976 175.878 309.118 176.413 309.118C176.792 309.118 177.131 309.047 177.429 308.905C177.732 308.758 177.985 308.547 178.189 308.273C178.393 307.998 178.532 307.664 178.608 307.271H181.065C181.004 308.043 180.777 308.727 180.384 309.324C179.991 309.916 179.455 310.38 178.778 310.716C178.101 311.047 177.306 311.213 176.392 311.213ZM183.176 311V300.091H187.757C189.05 300.091 190.07 300.349 190.819 300.865C191.571 301.381 191.948 302.101 191.948 303.024C191.948 303.635 191.735 304.134 191.309 304.523C190.887 304.906 190.312 305.164 189.583 305.297C190.156 305.344 190.658 305.489 191.088 305.73C191.524 305.972 191.865 306.289 192.111 306.682C192.357 307.075 192.48 307.527 192.48 308.038C192.48 308.64 192.322 309.163 192.005 309.608C191.692 310.048 191.235 310.392 190.634 310.638C190.037 310.879 189.313 311 188.461 311H183.176ZM185.584 308.976H188.461C188.934 308.976 189.306 308.865 189.576 308.642C189.846 308.415 189.98 308.107 189.98 307.719C189.98 307.269 189.846 306.916 189.576 306.661C189.306 306.4 188.934 306.27 188.461 306.27H185.584V308.976ZM185.584 304.608H187.807C188.158 304.608 188.458 304.558 188.709 304.459C188.96 304.355 189.152 304.21 189.284 304.026C189.417 303.836 189.483 303.611 189.483 303.351C189.483 302.977 189.329 302.683 189.022 302.47C188.719 302.257 188.297 302.151 187.757 302.151H185.584V304.608ZM199.361 311.213C198.295 311.213 197.372 310.979 196.591 310.51C195.81 310.041 195.204 309.385 194.773 308.543C194.347 307.7 194.134 306.715 194.134 305.588C194.134 304.461 194.347 303.474 194.773 302.626C195.204 301.779 195.81 301.121 196.591 300.652C197.372 300.183 198.295 299.949 199.361 299.949C200.426 299.949 201.349 300.183 202.131 300.652C202.912 301.121 203.516 301.779 203.942 302.626C204.373 303.474 204.588 304.461 204.588 305.588C204.588 306.715 204.373 307.7 203.942 308.543C203.516 309.385 202.912 310.041 202.131 310.51C201.349 310.979 200.426 311.213 199.361 311.213ZM199.375 309.153C199.953 309.153 200.436 308.995 200.824 308.678C201.212 308.356 201.501 307.925 201.69 307.385C201.884 306.845 201.982 306.244 201.982 305.581C201.982 304.913 201.884 304.31 201.69 303.77C201.501 303.225 201.212 302.792 200.824 302.47C200.436 302.148 199.953 301.987 199.375 301.987C198.783 301.987 198.291 302.148 197.898 302.47C197.509 302.792 197.218 303.225 197.024 303.77C196.835 304.31 196.74 304.913 196.74 305.581C196.74 306.244 196.835 306.845 197.024 307.385C197.218 307.925 197.509 308.356 197.898 308.678C198.291 308.995 198.783 309.153 199.375 309.153ZM209.249 307.52L213.617 300.091H216.259V311H213.773V303.564L209.419 311H206.77V300.091H209.249V307.52ZM25.3551 338.168V332.884H26.2216C26.4536 332.704 26.6477 332.46 26.804 332.152C26.9602 331.839 27.0881 331.473 27.1875 331.051C27.2917 330.625 27.3769 330.149 27.4432 329.624C27.5095 329.093 27.5687 328.523 27.6207 327.912L27.9332 324.091H35.8168V332.884H37.5071V338.168H35.0213V335H27.8835V338.168H25.3551ZM28.8636 332.884H33.3594V326.165H30.1634L29.9929 327.912C29.8982 329.067 29.7727 330.057 29.6165 330.881C29.4602 331.705 29.2093 332.372 28.8636 332.884ZM44.256 335.213C43.1623 335.213 42.2177 334.986 41.4222 334.531C40.6315 334.072 40.0231 333.423 39.5969 332.585C39.1708 331.742 38.9577 330.75 38.9577 329.609C38.9577 328.487 39.1708 327.502 39.5969 326.655C40.0278 325.803 40.6291 325.14 41.4009 324.666C42.1727 324.188 43.0794 323.949 44.1211 323.949C44.7934 323.949 45.4279 324.058 46.0245 324.276C46.6258 324.489 47.1561 324.82 47.6154 325.27C48.0794 325.72 48.444 326.293 48.7092 326.989C48.9743 327.68 49.1069 328.504 49.1069 329.46V330.249H40.1651V328.516H46.6424C46.6377 328.023 46.5311 327.585 46.3228 327.202C46.1145 326.813 45.8233 326.508 45.4492 326.286C45.0799 326.063 44.649 325.952 44.1566 325.952C43.631 325.952 43.1694 326.08 42.7717 326.335C42.3739 326.586 42.0638 326.918 41.8413 327.33C41.6235 327.737 41.5122 328.184 41.5075 328.672V330.185C41.5075 330.819 41.6235 331.364 41.8555 331.818C42.0875 332.268 42.4118 332.614 42.8285 332.855C43.2451 333.092 43.7328 333.21 44.2915 333.21C44.6656 333.21 45.0041 333.158 45.3072 333.054C45.6102 332.945 45.873 332.786 46.0955 332.578C46.3181 332.37 46.4862 332.112 46.5998 331.804L49.0004 332.074C48.8488 332.708 48.56 333.262 48.1339 333.736C47.7125 334.205 47.1727 334.569 46.5146 334.83C45.8564 335.085 45.1036 335.213 44.256 335.213ZM58.7749 328.48V330.589H52.9652V328.48H58.7749ZM53.7607 324.091V335H51.282V324.091H53.7607ZM60.4581 324.091V335H57.9865V324.091H60.4581ZM64.7994 327.642H68.0167C69.4087 327.642 70.4859 327.981 71.2482 328.658C72.0105 329.335 72.3941 330.223 72.3988 331.321C72.3941 332.036 72.2189 332.67 71.8732 333.224C71.5323 333.778 71.0352 334.214 70.3817 334.531C69.7331 334.844 68.9447 335 68.0167 335H63.0593V324.091H65.538V332.891H68.0167C68.5754 332.891 69.0347 332.749 69.3945 332.464C69.7544 332.176 69.9343 331.806 69.9343 331.357C69.9343 330.883 69.7544 330.497 69.3945 330.199C69.0347 329.901 68.5754 329.751 68.0167 329.751H64.7994V327.642ZM81.8182 324.091V326.2H77.1165V335H74.6023V324.091H81.8182ZM86.3583 331.52L90.7262 324.091H93.3683V335H90.8825V327.564L86.5288 335H83.8796V324.091H86.3583V331.52ZM103.448 331.52L107.816 324.091H110.458V335H107.972V327.564L103.619 335H100.969V324.091H103.448V331.52ZM118.059 335V324.091H127.271V335H124.792V326.2H120.517V335H118.059ZM134.673 335.213C133.608 335.213 132.685 334.979 131.903 334.51C131.122 334.041 130.516 333.385 130.085 332.543C129.659 331.7 129.446 330.715 129.446 329.588C129.446 328.461 129.659 327.474 130.085 326.626C130.516 325.779 131.122 325.121 131.903 324.652C132.685 324.183 133.608 323.949 134.673 323.949C135.739 323.949 136.662 324.183 137.443 324.652C138.224 325.121 138.828 325.779 139.254 326.626C139.685 327.474 139.901 328.461 139.901 329.588C139.901 330.715 139.685 331.7 139.254 332.543C138.828 333.385 138.224 334.041 137.443 334.51C136.662 334.979 135.739 335.213 134.673 335.213ZM134.688 333.153C135.265 333.153 135.748 332.995 136.136 332.678C136.525 332.356 136.813 331.925 137.003 331.385C137.197 330.845 137.294 330.244 137.294 329.581C137.294 328.913 137.197 328.31 137.003 327.77C136.813 327.225 136.525 326.792 136.136 326.47C135.748 326.148 135.265 325.987 134.688 325.987C134.096 325.987 133.603 326.148 133.21 326.47C132.822 326.792 132.531 327.225 132.337 327.77C132.147 328.31 132.053 328.913 132.053 329.581C132.053 330.244 132.147 330.845 132.337 331.385C132.531 331.925 132.822 332.356 133.21 332.678C133.603 332.995 134.096 333.153 134.688 333.153ZM142.083 335V324.091H144.654V328.494H145.591L148.873 324.091H151.969L147.928 329.446L152.012 335H148.901L145.911 330.888H144.654V335H142.083ZM155.185 339.091C154.834 339.091 154.51 339.063 154.212 339.006C153.918 338.954 153.684 338.892 153.509 338.821L154.105 336.818C154.479 336.927 154.813 336.979 155.107 336.974C155.4 336.97 155.658 336.877 155.881 336.697C156.108 336.522 156.3 336.229 156.456 335.817L156.676 335.227L152.72 324.091H155.447L157.962 332.33H158.075L160.597 324.091H163.331L158.963 336.321C158.759 336.899 158.49 337.393 158.153 337.805C157.817 338.222 157.405 338.539 156.918 338.757C156.435 338.98 155.857 339.091 155.185 339.091ZM165.11 335V324.091H174.322V335H171.843V326.2H167.567V335H165.11ZM176.966 335V324.091H179.537V328.494H180.474L183.755 324.091H186.852L182.811 329.446L186.895 335H183.784L180.794 330.888H179.537V335H176.966ZM190.831 331.52L195.199 324.091H197.841V335H195.355V327.564L191.001 335H188.352V324.091H190.831V331.52Z" fill="white" style="fill:white;fill-opacity:1;"/>
<rect x="278" y="323" width="50" height="77" fill="#FEEA83" style="fill:#FEEA83;fill:color(display-p3 0.9962 0.9179 0.5130);fill-opacity:1;"/>
<rect x="333" y="294" width="50" height="106" fill="#FFE45B" style="fill:#FFE45B;fill:color(display-p3 1.0000 0.8959 0.3573);fill-opacity:1;"/>
<rect x="388" y="270" width="50" height="130" fill="#FFDA18" style="fill:#FFDA18;fill:color(display-p3 1.0000 0.8536 0.0959);fill-opacity:1;"/>
</g>
<defs>
<clipPath id="clip0_655_2773">
<rect y="230" width="463" height="170" rx="15" fill="white" style="fill:white;fill-opacity:1;"/>
</clipPath>
</defs>
</svg>
