<svg width="43" height="45" viewBox="0 0 43 45" fill="none" xmlns="http://www.w3.org/2000/svg">
<path d="M10.75 0C9.27188 0 8.0625 1.26562 8.0625 2.8125V42.1875C8.0625 43.7344 9.27188 45 10.75 45H37.625C39.1031 45 40.3125 43.7344 40.3125 42.1875V11.25L29.5625 0H10.75Z" fill="#E2E5E7" style="fill:#E2E5E7;fill:color(display-p3 0.8863 0.8980 0.9059);fill-opacity:1;"/>
<path d="M32.25 11.25H40.3125L29.5625 0V8.4375C29.5625 9.98438 30.7719 11.25 32.25 11.25Z" fill="#B0B7BD" style="fill:#B0B7BD;fill:color(display-p3 0.6902 0.7176 0.7412);fill-opacity:1;"/>
<path d="M40.3125 19.6875L32.25 11.25H40.3125V19.6875Z" fill="#CAD1D8" style="fill:#CAD1D8;fill:color(display-p3 0.7922 0.8196 0.8471);fill-opacity:1;"/>
<path d="M34.9375 36.5625C34.9375 37.3359 34.3328 37.9688 33.5938 37.9688H4.03125C3.29219 37.9688 2.6875 37.3359 2.6875 36.5625V22.5C2.6875 21.7266 3.29219 21.0938 4.03125 21.0938H33.5938C34.3328 21.0938 34.9375 21.7266 34.9375 22.5V36.5625Z" fill="#F15642" style="fill:#F15642;fill:color(display-p3 0.9451 0.3373 0.2588);fill-opacity:1;"/>
<path d="M8.54492 26.6434C8.54492 26.2722 8.82442 25.8672 9.27458 25.8672H11.7565C13.154 25.8672 14.4117 26.8459 14.4117 28.7219C14.4117 30.4994 13.154 31.4894 11.7565 31.4894H9.96258V32.9744C9.96258 33.4694 9.66158 33.7492 9.27458 33.7492C8.91983 33.7492 8.54492 33.4694 8.54492 32.9744V26.6434ZM9.96258 27.2833V30.0845H11.7565C12.4767 30.0845 13.0465 29.4194 13.0465 28.7219C13.0465 27.9358 12.4767 27.2833 11.7565 27.2833H9.96258Z" fill="white" style="fill:white;fill-opacity:1;"/>
<path d="M16.5159 33.7495C16.1612 33.7495 15.7742 33.547 15.7742 33.0534V26.6663C15.7742 26.2627 16.1612 25.9688 16.5159 25.9688H18.9763C23.8864 25.9688 23.7789 33.7495 19.0731 33.7495H16.5159ZM17.1932 27.3413V32.3784H18.9763C21.8775 32.3784 22.0065 27.3413 18.9763 27.3413H17.1932Z" fill="white" style="fill:white;fill-opacity:1;"/>
<path d="M25.5206 27.4327V29.22H28.2605C28.6475 29.22 29.0345 29.625 29.0345 30.0173C29.0345 30.3886 28.6475 30.6923 28.2605 30.6923H25.5206V33.0534C25.5206 33.4472 25.2531 33.7495 24.8769 33.7495C24.4039 33.7495 24.115 33.4472 24.115 33.0534V26.6662C24.115 26.2627 24.4052 25.9688 24.8769 25.9688H28.6488C29.1218 25.9688 29.4013 26.2627 29.4013 26.6662C29.4013 27.0262 29.1218 27.4312 28.6488 27.4312L25.5206 27.4327Z" fill="white" style="fill:white;fill-opacity:1;"/>
<path d="M33.5938 37.9688H8.0625V39.375H33.5938C34.3328 39.375 34.9375 38.7422 34.9375 37.9688V36.5625C34.9375 37.3359 34.3328 37.9688 33.5938 37.9688Z" fill="#CAD1D8" style="fill:#CAD1D8;fill:color(display-p3 0.7922 0.8196 0.8471);fill-opacity:1;"/>
</svg>
