<svg width="164" height="161" viewBox="0 0 164 161" fill="none" xmlns="http://www.w3.org/2000/svg">
<g clip-path="url(#clip0_646_2662)">
<path d="M1.99433 43.0732C3.09664 43.0732 3.98864 42.1975 3.98864 41.1155V33.2841C3.98864 32.2019 3.09664 31.3262 1.99433 31.3262C0.892005 31.3262 0 32.2019 0 33.2841V41.1155C0 42.1975 0.892005 43.0732 1.99433 43.0732Z" fill="#2C2D2E" style="fill:#2C2D2E;fill:color(display-p3 0.1725 0.1765 0.1804);fill-opacity:1;"/>
<path d="M1.99433 50.9039H3.98864V56.7774C3.98864 57.8596 4.88064 58.7353 5.98297 58.7353H9.97161C11.0739 58.7353 11.9659 57.8596 11.9659 56.7774C11.9659 55.6952 11.0739 54.8195 9.97161 54.8195H7.97728V48.946C7.97728 47.864 7.08528 46.9883 5.98297 46.9883H1.99433C0.892005 46.9883 0 47.864 0 48.946C0 50.0282 0.892005 50.9039 1.99433 50.9039Z" fill="#2C2D2E" style="fill:#2C2D2E;fill:color(display-p3 0.1725 0.1765 0.1804);fill-opacity:1;"/>
<path d="M1.99433 86.1453C3.09664 86.1453 3.98864 85.2696 3.98864 84.1874V78.3138H11.9659V80.2717C11.9659 81.3538 12.8579 82.2295 13.9603 82.2295C15.0626 82.2295 15.9546 81.3538 15.9546 80.2717V76.3559C15.9546 75.2739 15.0626 74.3982 13.9603 74.3982H11.9659V72.4403C11.9659 71.3581 11.0739 70.4824 9.97161 70.4824H1.99433C0.892005 70.4824 0 71.3581 0 72.4403V84.1874C0 85.2696 0.892005 86.1453 1.99433 86.1453Z" fill="#2C2D2E" style="fill:#2C2D2E;fill:color(display-p3 0.1725 0.1765 0.1804);fill-opacity:1;"/>
<path d="M1.99433 113.554H3.98864V115.512C3.98864 116.594 4.88064 117.47 5.98297 117.47H13.9602C15.0626 117.47 15.9546 116.594 15.9546 115.512C15.9546 114.43 15.0626 113.554 13.9602 113.554H11.9659V111.596C11.9659 110.514 11.0739 109.638 9.97161 109.638H7.97728V101.807H11.9659V107.681C11.9659 108.763 12.8579 109.638 13.9602 109.638H15.9546V111.596C15.9546 112.678 16.8466 113.554 17.9489 113.554C19.0513 113.554 19.9433 112.678 19.9433 111.596V109.638H21.9375C23.0399 109.638 23.9319 108.763 23.9319 107.681C23.9319 106.598 23.0399 105.723 21.9375 105.723H19.9433V101.807H21.9375C23.0399 101.807 23.9319 100.931 23.9319 99.8491V97.8914H25.9263C27.0284 97.8914 27.9205 97.0157 27.9205 95.9335C27.9205 94.8513 27.0284 93.9756 25.9263 93.9756H21.9375C20.8351 93.9756 19.9433 94.8513 19.9433 95.9335V97.8914H15.9546V93.9756H17.9489C19.0513 93.9756 19.9433 93.0999 19.9433 92.0178C19.9433 90.9356 19.0513 90.0599 17.9489 90.0599H11.9659V84.1864C11.9659 83.1042 11.0739 82.2285 9.97161 82.2285C8.8693 82.2285 7.97728 83.1042 7.97728 84.1864V86.1443H5.98297C4.88064 86.1443 3.98864 87.02 3.98864 88.102V97.8914H1.99433C0.892005 97.8914 0 98.7671 0 99.8491C0 100.931 0.892005 101.807 1.99433 101.807H3.98864V105.723H1.99433C0.892005 105.723 0 106.598 0 107.681V111.596C0 112.678 0.892005 113.554 1.99433 113.554ZM7.97728 93.9756H11.9659V97.8914H7.97728V93.9756Z" fill="#2C2D2E" style="fill:#2C2D2E;fill:color(display-p3 0.1725 0.1765 0.1804);fill-opacity:1;"/>
<path d="M1.99433 129.218C3.09664 129.218 3.98864 128.342 3.98864 127.26V123.344C3.98864 122.262 3.09664 121.387 1.99433 121.387C0.892005 121.387 0 122.262 0 123.344V127.26C0 128.342 0.892005 129.218 1.99433 129.218Z" fill="#2C2D2E" style="fill:#2C2D2E;fill:color(display-p3 0.1725 0.1765 0.1804);fill-opacity:1;"/>
<path d="M5.98259 66.566C7.08403 66.566 7.97692 65.6894 7.97692 64.6081C7.97692 63.527 7.08403 62.6504 5.98259 62.6504C4.88117 62.6504 3.98828 63.527 3.98828 64.6081C3.98828 65.6894 4.88117 66.566 5.98259 66.566Z" fill="#2C2D2E" style="fill:#2C2D2E;fill:color(display-p3 0.1725 0.1765 0.1804);fill-opacity:1;"/>
<path d="M9.97087 46.9879C11.0723 46.9879 11.9652 46.1113 11.9652 45.03C11.9652 43.9487 11.0723 43.0723 9.97087 43.0723C8.86945 43.0723 7.97656 43.9487 7.97656 45.03C7.97656 46.1113 8.86945 46.9879 9.97087 46.9879Z" fill="#2C2D2E" style="fill:#2C2D2E;fill:color(display-p3 0.1725 0.1765 0.1804);fill-opacity:1;"/>
<path d="M9.97087 129.216C11.0723 129.216 11.9652 128.34 11.9652 127.259C11.9652 126.177 11.0723 125.301 9.97087 125.301C8.86945 125.301 7.97656 126.177 7.97656 127.259C7.97656 128.34 8.86945 129.216 9.97087 129.216Z" fill="#2C2D2E" style="fill:#2C2D2E;fill:color(display-p3 0.1725 0.1765 0.1804);fill-opacity:1;"/>
<path d="M13.9595 31.3262H9.97087C8.86856 31.3262 7.97656 32.2019 7.97656 33.2841C7.97656 34.3663 8.86856 35.242 9.97087 35.242H11.9652V41.1155C11.9652 42.1975 12.8572 43.0732 13.9595 43.0732C15.0618 43.0732 15.9538 42.1975 15.9538 41.1155V33.2841C15.9538 32.2019 15.0618 31.3262 13.9595 31.3262Z" fill="#2C2D2E" style="fill:#2C2D2E;fill:color(display-p3 0.1725 0.1765 0.1804);fill-opacity:1;"/>
<path d="M13.9611 50.9039C15.0625 50.9039 15.9554 50.0273 15.9554 48.946C15.9554 47.8649 15.0625 46.9883 13.9611 46.9883C12.8597 46.9883 11.9668 47.8649 11.9668 48.946C11.9668 50.0273 12.8597 50.9039 13.9611 50.9039Z" fill="#2C2D2E" style="fill:#2C2D2E;fill:color(display-p3 0.1725 0.1765 0.1804);fill-opacity:1;"/>
<path d="M13.9611 66.566C15.0625 66.566 15.9554 65.6894 15.9554 64.6081C15.9554 63.527 15.0625 62.6504 13.9611 62.6504C12.8597 62.6504 11.9668 63.527 11.9668 64.6081C11.9668 65.6894 12.8597 66.566 13.9611 66.566Z" fill="#2C2D2E" style="fill:#2C2D2E;fill:color(display-p3 0.1725 0.1765 0.1804);fill-opacity:1;"/>
<path d="M13.9611 125.302C15.0625 125.302 15.9554 124.426 15.9554 123.344C15.9554 122.263 15.0625 121.387 13.9611 121.387C12.8597 121.387 11.9668 122.263 11.9668 123.344C11.9668 124.426 12.8597 125.302 13.9611 125.302Z" fill="#2C2D2E" style="fill:#2C2D2E;fill:color(display-p3 0.1725 0.1765 0.1804);fill-opacity:1;"/>
<path d="M17.9494 58.7361H25.9268C27.0289 58.7361 27.921 57.8604 27.921 56.7782C27.921 55.696 27.0289 54.8203 25.9268 54.8203H17.9494C16.8471 54.8203 15.9551 55.696 15.9551 56.7782C15.9551 57.8604 16.8471 58.7361 17.9494 58.7361Z" fill="#2C2D2E" style="fill:#2C2D2E;fill:color(display-p3 0.1725 0.1765 0.1804);fill-opacity:1;"/>
<path d="M17.9494 86.1445H21.938C23.0404 86.1445 23.9324 85.2688 23.9324 84.1866V82.2287H25.9268C27.0289 82.2287 27.921 81.353 27.921 80.271C27.921 79.1888 27.0289 78.3131 25.9268 78.3131H23.9324V74.3974H27.921V76.3552C27.921 77.4374 28.813 78.3131 29.9153 78.3131H31.9097V80.271C31.9097 81.353 32.8017 82.2287 33.9039 82.2287H37.8927C38.9949 82.2287 39.8869 81.353 39.8869 80.271C39.8869 79.1888 38.9949 78.3131 37.8927 78.3131H35.8983V72.4395C35.8983 71.3573 35.0063 70.4816 33.9039 70.4816H31.9097V64.6081C31.9097 63.5261 31.0177 62.6504 29.9153 62.6504H25.9268C24.8244 62.6504 23.9324 63.5261 23.9324 64.6081C23.9324 65.6903 24.8244 66.566 25.9268 66.566H27.921V70.4816H21.938C20.8358 70.4816 19.9438 71.3573 19.9438 72.4395V82.2287H17.9494C16.8471 82.2287 15.9551 83.1044 15.9551 84.1866C15.9551 85.2688 16.8471 86.1445 17.9494 86.1445Z" fill="#2C2D2E" style="fill:#2C2D2E;fill:color(display-p3 0.1725 0.1765 0.1804);fill-opacity:1;"/>
<path d="M17.9494 129.216C19.0509 129.216 19.9438 128.34 19.9438 127.259C19.9438 126.177 19.0509 125.301 17.9494 125.301C16.848 125.301 15.9551 126.177 15.9551 127.259C15.9551 128.34 16.848 129.216 17.9494 129.216Z" fill="#2C2D2E" style="fill:#2C2D2E;fill:color(display-p3 0.1725 0.1765 0.1804);fill-opacity:1;"/>
<path d="M21.9376 117.47C23.039 117.47 23.9319 116.594 23.9319 115.513C23.9319 114.431 23.039 113.555 21.9376 113.555C20.8363 113.555 19.9434 114.431 19.9434 115.513C19.9434 116.594 20.8363 117.47 21.9376 117.47Z" fill="#2C2D2E" style="fill:#2C2D2E;fill:color(display-p3 0.1725 0.1765 0.1804);fill-opacity:1;"/>
<path d="M21.9376 125.302C23.039 125.302 23.9319 124.426 23.9319 123.344C23.9319 122.263 23.039 121.387 21.9376 121.387C20.8363 121.387 19.9434 122.263 19.9434 123.344C19.9434 124.426 20.8363 125.302 21.9376 125.302Z" fill="#2C2D2E" style="fill:#2C2D2E;fill:color(display-p3 0.1725 0.1765 0.1804);fill-opacity:1;"/>
<path d="M23.9319 31.3253H21.9376C20.8354 31.3253 19.9434 32.201 19.9434 33.2832V37.1989C19.9434 38.2811 20.8354 39.1568 21.9376 39.1568C23.0399 39.1568 23.9319 38.2811 23.9319 37.1989V35.2411H31.9093V41.1147C31.9093 42.1967 32.8013 43.0724 33.9035 43.0724H35.8979V46.9882H21.9376C20.8354 46.9882 19.9434 47.8639 19.9434 48.9459C19.9434 50.0281 20.8354 50.9038 21.9376 50.9038H27.9205V52.8617C27.9205 53.9437 28.8126 54.8195 29.9149 54.8195H31.9093V56.7773C31.9093 57.8595 32.8013 58.7352 33.9035 58.7352H39.8865V60.693C39.8865 61.7752 40.7785 62.6509 41.8809 62.6509H43.8752V66.5665H39.8865V64.6088C39.8865 63.5266 38.9945 62.6509 37.8923 62.6509C36.7899 62.6509 35.8979 63.5266 35.8979 64.6088V68.5244C35.8979 69.6066 36.7899 70.4823 37.8923 70.4823H43.8752V74.3979H41.8809C40.7785 74.3979 39.8865 75.2736 39.8865 76.3558C39.8865 77.4379 40.7785 78.3135 41.8809 78.3135H43.8752V82.2294H41.8809C40.7785 82.2294 39.8865 83.1049 39.8865 84.1871C39.8865 85.2693 40.7785 86.145 41.8809 86.145H45.8694C46.9718 86.145 47.8638 85.2693 47.8638 84.1871V82.2294H51.8524V84.1871C51.8524 85.2693 52.7444 86.145 53.8468 86.145H55.8412V88.1027C55.8412 89.1849 56.7332 90.0606 57.8354 90.0606C58.9377 90.0606 59.8298 89.1849 59.8298 88.1027V86.145H61.8242C62.9263 86.145 63.8183 85.2693 63.8183 84.1871C63.8183 83.1049 62.9263 82.2294 61.8242 82.2294H55.8412V80.2715C55.8412 79.1892 54.9492 78.3135 53.8468 78.3135H51.8524V76.3558C51.8524 75.2736 50.9604 74.3979 49.8582 74.3979H47.8638V60.693C47.8638 59.611 46.9718 58.7352 45.8694 58.7352H43.8752V48.9459C43.8752 47.8639 42.9832 46.9882 41.8809 46.9882H39.8865V43.0724H43.8752V45.0303C43.8752 46.1125 44.7673 46.9882 45.8694 46.9882H51.8524V50.9038H49.8582C48.7558 50.9038 47.8638 51.7795 47.8638 52.8617C47.8638 53.9437 48.7558 54.8195 49.8582 54.8195H51.8524V56.7773C51.8524 57.8595 52.7444 58.7352 53.8468 58.7352H57.8354C58.9377 58.7352 59.8298 57.8595 59.8298 56.7773C59.8298 55.6951 58.9377 54.8195 57.8354 54.8195H55.8412V50.9038H57.8354C58.9377 50.9038 59.8298 50.0281 59.8298 48.9459C59.8298 47.8639 58.9377 46.9882 57.8354 46.9882H55.8412V45.0303C55.8412 43.9481 54.9492 43.0724 53.8468 43.0724H47.8638V39.1568H49.8582C50.9604 39.1568 51.8524 38.2811 51.8524 37.1989C51.8524 36.1169 50.9604 35.2411 49.8582 35.2411H43.8752V23.4941H47.8638V29.3676C47.8638 30.4498 48.7558 31.3253 49.8582 31.3253C50.9604 31.3253 51.8524 30.4498 51.8524 29.3676V19.5785H53.8468C54.9492 19.5785 55.8412 18.7028 55.8412 17.6206V15.6627H69.8013C70.9037 15.6627 71.7957 14.787 71.7957 13.7049C71.7957 12.6227 70.9037 11.747 69.8013 11.747H59.8298V7.83136H61.8242C62.9263 7.83136 63.8183 6.95567 63.8183 5.87353C63.8183 4.79136 62.9263 3.91568 61.8242 3.91568H55.8412V1.95785C55.8412 0.875688 54.9492 0 53.8468 0H45.8694C44.7673 0 43.8752 0.875688 43.8752 1.95785V7.83136H39.8865V1.95785C39.8865 0.875688 38.9945 0 37.8923 0C36.7899 0 35.8979 0.875688 35.8979 1.95785V3.91568H33.9035C32.8013 3.91568 31.9093 4.79136 31.9093 5.87353C31.9093 6.95567 32.8013 7.83136 33.9035 7.83136H35.8979V11.747H33.9035C32.8013 11.747 31.9093 12.6227 31.9093 13.7049C31.9093 14.787 32.8013 15.6627 33.9035 15.6627H35.8979V19.5785H33.9035C32.8013 19.5785 31.9093 20.454 31.9093 21.5362V31.3253H23.9319ZM39.8865 54.8195H35.8979V50.9038H39.8865V54.8195ZM39.8865 39.1568H35.8979V35.2411H39.8865V39.1568ZM51.8524 7.83136V11.747H47.8638V7.83136H51.8524ZM39.8865 15.6627V11.747H43.8752V13.7049C43.8752 14.787 44.7673 15.6627 45.8694 15.6627H47.8638V19.5785H39.8865V15.6627ZM35.8979 23.4941H39.8865V27.4097H35.8979V23.4941Z" fill="#2C2D2E" style="fill:#2C2D2E;fill:color(display-p3 0.1725 0.1765 0.1804);fill-opacity:1;"/>
<path d="M25.9258 43.0719C27.0273 43.0719 27.9202 42.1953 27.9202 41.1142C27.9202 40.0328 27.0273 39.1562 25.9258 39.1562C24.8245 39.1562 23.9316 40.0328 23.9316 41.1142C23.9316 42.1953 24.8245 43.0719 25.9258 43.0719Z" fill="#2C2D2E" style="fill:#2C2D2E;fill:color(display-p3 0.1725 0.1765 0.1804);fill-opacity:1;"/>
<path d="M25.9258 90.0602C27.0273 90.0602 27.9202 89.1836 27.9202 88.1023C27.9202 87.0211 27.0273 86.1445 25.9258 86.1445C24.8245 86.1445 23.9316 87.0211 23.9316 88.1023C23.9316 89.1836 24.8245 90.0602 25.9258 90.0602Z" fill="#2C2D2E" style="fill:#2C2D2E;fill:color(display-p3 0.1725 0.1765 0.1804);fill-opacity:1;"/>
<path d="M25.9258 113.554C27.0273 113.554 27.9202 112.678 27.9202 111.596C27.9202 110.515 27.0273 109.639 25.9258 109.639C24.8245 109.639 23.9316 110.515 23.9316 111.596C23.9316 112.678 24.8245 113.554 25.9258 113.554Z" fill="#2C2D2E" style="fill:#2C2D2E;fill:color(display-p3 0.1725 0.1765 0.1804);fill-opacity:1;"/>
<path d="M25.9258 121.387C27.0273 121.387 27.9202 120.51 27.9202 119.429C27.9202 118.347 27.0273 117.471 25.9258 117.471C24.8245 117.471 23.9316 118.347 23.9316 119.429C23.9316 120.51 24.8245 121.387 25.9258 121.387Z" fill="#2C2D2E" style="fill:#2C2D2E;fill:color(display-p3 0.1725 0.1765 0.1804);fill-opacity:1;"/>
<path d="M25.9258 129.216C27.0273 129.216 27.9202 128.34 27.9202 127.259C27.9202 126.177 27.0273 125.301 25.9258 125.301C24.8245 125.301 23.9316 126.177 23.9316 127.259C23.9316 128.34 24.8245 129.216 25.9258 129.216Z" fill="#2C2D2E" style="fill:#2C2D2E;fill:color(display-p3 0.1725 0.1765 0.1804);fill-opacity:1;"/>
<path d="M29.9143 86.1443C31.0158 86.1443 31.9087 85.2677 31.9087 84.1864C31.9087 83.1051 31.0158 82.2285 29.9143 82.2285C28.8128 82.2285 27.9199 83.1051 27.9199 84.1864C27.9199 85.2677 28.8128 86.1443 29.9143 86.1443Z" fill="#2C2D2E" style="fill:#2C2D2E;fill:color(display-p3 0.1725 0.1765 0.1804);fill-opacity:1;"/>
<path d="M29.9143 93.9762C31.0158 93.9762 31.9087 93.0996 31.9087 92.0184C31.9087 90.9371 31.0158 90.0605 29.9143 90.0605C28.8128 90.0605 27.9199 90.9371 27.9199 92.0184C27.9199 93.0996 28.8128 93.9762 29.9143 93.9762Z" fill="#2C2D2E" style="fill:#2C2D2E;fill:color(display-p3 0.1725 0.1765 0.1804);fill-opacity:1;"/>
<path d="M29.9143 117.47C31.0158 117.47 31.9087 116.594 31.9087 115.513C31.9087 114.431 31.0158 113.555 29.9143 113.555C28.8128 113.555 27.9199 114.431 27.9199 115.513C27.9199 116.594 28.8128 117.47 29.9143 117.47Z" fill="#2C2D2E" style="fill:#2C2D2E;fill:color(display-p3 0.1725 0.1765 0.1804);fill-opacity:1;"/>
<path d="M33.9044 113.554H37.8931C38.9953 113.554 39.8873 112.679 39.8873 111.596C39.8873 110.514 38.9953 109.639 37.8931 109.639H33.9044C32.8022 109.639 31.9102 110.514 31.9102 111.596C31.9102 112.679 32.8022 113.554 33.9044 113.554Z" fill="#2C2D2E" style="fill:#2C2D2E;fill:color(display-p3 0.1725 0.1765 0.1804);fill-opacity:1;"/>
<path d="M37.8931 129.216C38.9953 129.216 39.8873 128.341 39.8873 127.259C39.8873 126.176 38.9953 125.301 37.8931 125.301H33.9044C32.8022 125.301 31.9102 126.176 31.9102 127.259V139.006C31.9102 140.088 32.8022 140.963 33.9044 140.963C35.0067 140.963 35.8987 140.088 35.8987 139.006V137.048H37.8931C38.9953 137.048 39.8873 136.172 39.8873 135.09C39.8873 134.008 38.9953 133.132 37.8931 133.132H35.8987V129.216H37.8931Z" fill="#2C2D2E" style="fill:#2C2D2E;fill:color(display-p3 0.1725 0.1765 0.1804);fill-opacity:1;"/>
<path d="M37.8931 156.627H33.9044C32.8022 156.627 31.9102 157.502 31.9102 158.585C31.9102 159.667 32.8022 160.543 33.9044 160.543H37.8931C38.9953 160.543 39.8873 159.667 39.8873 158.585C39.8873 157.502 38.9953 156.627 37.8931 156.627Z" fill="#2C2D2E" style="fill:#2C2D2E;fill:color(display-p3 0.1725 0.1765 0.1804);fill-opacity:1;"/>
<path d="M41.8811 117.47C42.9824 117.47 43.8753 116.594 43.8753 115.513C43.8753 114.431 42.9824 113.555 41.8811 113.555C40.7796 113.555 39.8867 114.431 39.8867 115.513C39.8867 116.594 40.7796 117.47 41.8811 117.47Z" fill="#2C2D2E" style="fill:#2C2D2E;fill:color(display-p3 0.1725 0.1765 0.1804);fill-opacity:1;"/>
<path d="M41.8811 125.302C42.9824 125.302 43.8753 124.426 43.8753 123.344C43.8753 122.263 42.9824 121.387 41.8811 121.387C40.7796 121.387 39.8867 122.263 39.8867 123.344C39.8867 124.426 40.7796 125.302 41.8811 125.302Z" fill="#2C2D2E" style="fill:#2C2D2E;fill:color(display-p3 0.1725 0.1765 0.1804);fill-opacity:1;"/>
<path d="M41.8811 133.133C42.9824 133.133 43.8753 132.256 43.8753 131.175C43.8753 130.093 42.9824 129.217 41.8811 129.217C40.7796 129.217 39.8867 130.093 39.8867 131.175C39.8867 132.256 40.7796 133.133 41.8811 133.133Z" fill="#2C2D2E" style="fill:#2C2D2E;fill:color(display-p3 0.1725 0.1765 0.1804);fill-opacity:1;"/>
<path d="M51.8519 137.049V135.091C51.8519 134.009 50.9598 133.133 49.8577 133.133C48.7553 133.133 47.8633 134.009 47.8633 135.091V139.006C47.8633 140.089 48.7553 140.964 49.8577 140.964C50.9598 140.964 51.8519 140.089 51.8519 139.006V137.049Z" fill="#2C2D2E" style="fill:#2C2D2E;fill:color(display-p3 0.1725 0.1765 0.1804);fill-opacity:1;"/>
<path d="M49.8577 148.797C50.959 148.797 51.8519 147.92 51.8519 146.839C51.8519 145.757 50.959 144.881 49.8577 144.881C48.7562 144.881 47.8633 145.757 47.8633 146.839C47.8633 147.92 48.7562 148.797 49.8577 148.797Z" fill="#2C2D2E" style="fill:#2C2D2E;fill:color(display-p3 0.1725 0.1765 0.1804);fill-opacity:1;"/>
<path d="M49.8591 156.628H47.8647V150.754C47.8647 149.672 46.9727 148.797 45.8703 148.797H43.8761V146.839C43.8761 145.757 42.9841 144.881 41.8817 144.881H33.9044C32.8022 144.881 31.9102 145.757 31.9102 146.839V150.754C31.9102 151.837 32.8022 152.712 33.9044 152.712H43.8761V158.586C43.8761 159.668 44.7681 160.544 45.8703 160.544H49.8591C50.9613 160.544 51.8533 159.668 51.8533 158.586C51.8533 157.504 50.9613 156.628 49.8591 156.628Z" fill="#2C2D2E" style="fill:#2C2D2E;fill:color(display-p3 0.1725 0.1765 0.1804);fill-opacity:1;"/>
<path d="M53.8459 74.3982C54.9472 74.3982 55.8401 73.5216 55.8401 72.4403C55.8401 71.359 54.9472 70.4824 53.8459 70.4824C52.7445 70.4824 51.8516 71.359 51.8516 72.4403C51.8516 73.5216 52.7445 74.3982 53.8459 74.3982Z" fill="#2C2D2E" style="fill:#2C2D2E;fill:color(display-p3 0.1725 0.1765 0.1804);fill-opacity:1;"/>
<path d="M55.8407 117.47V97.892H59.8295V99.8497C59.8295 100.932 60.7213 101.808 61.8237 101.808C62.926 101.808 63.818 100.932 63.818 99.8497V95.9341C63.818 94.8519 62.926 93.9762 61.8237 93.9762H55.8407V92.0184C55.8407 90.9362 54.9487 90.0605 53.8465 90.0605C52.7441 90.0605 51.8521 90.9362 51.8521 92.0184V93.9762H47.8635V92.0184C47.8635 90.9362 46.9715 90.0605 45.8691 90.0605C44.7668 90.0605 43.8748 90.9362 43.8748 92.0184V93.9762H37.8918C36.7896 93.9762 35.8976 94.8519 35.8976 95.9341V97.892H33.9032C32.8008 97.892 31.9088 98.7677 31.9088 99.8497V101.808H25.9258C24.8237 101.808 23.9316 102.683 23.9316 103.766C23.9316 104.848 24.8237 105.723 25.9258 105.723H27.9202V107.681C27.9202 108.763 28.8122 109.639 29.9146 109.639C31.0168 109.639 31.9088 108.763 31.9088 107.681V105.723H33.9032C35.0056 105.723 35.8976 104.848 35.8976 103.766V101.808H51.8521V113.555H49.8577C48.7555 113.555 47.8635 114.43 47.8635 115.512C47.8635 116.595 48.7555 117.47 49.8577 117.47H51.8521V119.428C51.8521 120.51 52.7441 121.386 53.8465 121.386C54.9487 121.386 55.8407 120.51 55.8407 119.428V117.47Z" fill="#2C2D2E" style="fill:#2C2D2E;fill:color(display-p3 0.1725 0.1765 0.1804);fill-opacity:1;"/>
<path d="M53.8462 129.218C54.9486 129.218 55.8406 128.342 55.8406 127.26C55.8406 126.178 54.9486 125.302 53.8462 125.302H51.8519V123.344C51.8519 122.262 50.9598 121.387 49.8577 121.387C48.7553 121.387 47.8633 122.262 47.8633 123.344V127.26C47.8633 128.342 48.7553 129.218 49.8577 129.218H53.8462Z" fill="#2C2D2E" style="fill:#2C2D2E;fill:color(display-p3 0.1725 0.1765 0.1804);fill-opacity:1;"/>
<path d="M53.8459 156.627C54.9472 156.627 55.8401 155.75 55.8401 154.669C55.8401 153.588 54.9472 152.711 53.8459 152.711C52.7445 152.711 51.8516 153.588 51.8516 154.669C51.8516 155.75 52.7445 156.627 53.8459 156.627Z" fill="#2C2D2E" style="fill:#2C2D2E;fill:color(display-p3 0.1725 0.1765 0.1804);fill-opacity:1;"/>
<path d="M57.8362 27.4094C58.9385 27.4094 59.8306 26.5337 59.8306 25.4515V21.5359C59.8306 20.4537 58.9385 19.5781 57.8362 19.5781C56.7338 19.5781 55.8418 20.4537 55.8418 21.5359V25.4515C55.8418 26.5337 56.7338 27.4094 57.8362 27.4094Z" fill="#2C2D2E" style="fill:#2C2D2E;fill:color(display-p3 0.1725 0.1765 0.1804);fill-opacity:1;"/>
<path d="M55.8418 35.2416V37.1993C55.8418 38.2815 56.7338 39.1572 57.8362 39.1572C58.9385 39.1572 59.8306 38.2815 59.8306 37.1993V35.2416H61.8248C62.9271 35.2416 63.8191 34.3659 63.8191 33.2837V29.3681C63.8191 28.2859 62.9271 27.4102 61.8248 27.4102C60.7226 27.4102 59.8306 28.2859 59.8306 29.3681V31.326H57.8362C56.7338 31.326 55.8418 32.2015 55.8418 33.2837V35.2416Z" fill="#2C2D2E" style="fill:#2C2D2E;fill:color(display-p3 0.1725 0.1765 0.1804);fill-opacity:1;"/>
<path d="M57.8362 66.566C58.9377 66.566 59.8306 65.6894 59.8306 64.6081C59.8306 63.527 58.9377 62.6504 57.8362 62.6504C56.7347 62.6504 55.8418 63.527 55.8418 64.6081C55.8418 65.6894 56.7347 66.566 57.8362 66.566Z" fill="#2C2D2E" style="fill:#2C2D2E;fill:color(display-p3 0.1725 0.1765 0.1804);fill-opacity:1;"/>
<path d="M57.8362 78.3141H61.8248C62.9271 78.3141 63.8191 77.4384 63.8191 76.3563C63.8191 75.2741 62.9271 74.3984 61.8248 74.3984H57.8362C56.7338 74.3984 55.8418 75.2741 55.8418 76.3563C55.8418 77.4384 56.7338 78.3141 57.8362 78.3141Z" fill="#2C2D2E" style="fill:#2C2D2E;fill:color(display-p3 0.1725 0.1765 0.1804);fill-opacity:1;"/>
<path d="M57.8362 125.302C58.9377 125.302 59.8306 124.426 59.8306 123.344C59.8306 122.263 58.9377 121.387 57.8362 121.387C56.7347 121.387 55.8418 122.263 55.8418 123.344C55.8418 124.426 56.7347 125.302 57.8362 125.302Z" fill="#2C2D2E" style="fill:#2C2D2E;fill:color(display-p3 0.1725 0.1765 0.1804);fill-opacity:1;"/>
<path d="M57.8362 160.543C58.9377 160.543 59.8306 159.666 59.8306 158.585C59.8306 157.503 58.9377 156.627 57.8362 156.627C56.7347 156.627 55.8418 157.503 55.8418 158.585C55.8418 159.666 56.7347 160.543 57.8362 160.543Z" fill="#2C2D2E" style="fill:#2C2D2E;fill:color(display-p3 0.1725 0.1765 0.1804);fill-opacity:1;"/>
<path d="M61.8245 54.8195H65.813C66.9154 54.8195 67.8074 53.9438 67.8074 52.8618V50.9039H69.8016C70.904 50.9039 71.796 50.0282 71.796 48.946C71.796 47.864 70.904 46.9883 69.8016 46.9883H65.813C64.7107 46.9883 63.8187 47.864 63.8187 48.946V50.9039H61.8245C60.7221 50.9039 59.8301 51.7796 59.8301 52.8618C59.8301 53.9438 60.7221 54.8195 61.8245 54.8195Z" fill="#2C2D2E" style="fill:#2C2D2E;fill:color(display-p3 0.1725 0.1765 0.1804);fill-opacity:1;"/>
<path d="M61.8245 62.65H63.8187V64.6079C63.8187 65.6901 64.7107 66.5658 65.813 66.5658C66.9154 66.5658 67.8074 65.6901 67.8074 64.6079V60.6923C67.8074 59.6101 66.9154 58.7344 65.813 58.7344H61.8245C60.7221 58.7344 59.8301 59.6101 59.8301 60.6923C59.8301 61.7743 60.7221 62.65 61.8245 62.65Z" fill="#2C2D2E" style="fill:#2C2D2E;fill:color(display-p3 0.1725 0.1765 0.1804);fill-opacity:1;"/>
<path d="M61.8245 109.638C62.9258 109.638 63.8187 108.762 63.8187 107.681C63.8187 106.599 62.9258 105.723 61.8245 105.723C60.723 105.723 59.8301 106.599 59.8301 107.681C59.8301 108.762 60.723 109.638 61.8245 109.638Z" fill="#2C2D2E" style="fill:#2C2D2E;fill:color(display-p3 0.1725 0.1765 0.1804);fill-opacity:1;"/>
<path d="M61.8245 129.216C62.9258 129.216 63.8187 128.34 63.8187 127.259C63.8187 126.177 62.9258 125.301 61.8245 125.301C60.723 125.301 59.8301 126.177 59.8301 127.259C59.8301 128.34 60.723 129.216 61.8245 129.216Z" fill="#2C2D2E" style="fill:#2C2D2E;fill:color(display-p3 0.1725 0.1765 0.1804);fill-opacity:1;"/>
<path d="M61.8248 133.133H57.8362C56.7338 133.133 55.8418 134.009 55.8418 135.091V142.922C55.8418 144.004 56.7338 144.88 57.8362 144.88C58.9385 144.88 59.8306 144.004 59.8306 142.922V137.049H61.8248C62.9271 137.049 63.8191 136.173 63.8191 135.091C63.8191 134.009 62.9271 133.133 61.8248 133.133Z" fill="#2C2D2E" style="fill:#2C2D2E;fill:color(display-p3 0.1725 0.1765 0.1804);fill-opacity:1;"/>
<path d="M65.8126 3.91568H67.8069V5.87353C67.8069 6.95567 68.699 7.83136 69.8013 7.83136H75.7843V17.6206C75.7843 18.7028 76.6763 19.5785 77.7785 19.5785H81.7673C82.8695 19.5785 83.7615 18.7028 83.7615 17.6206C83.7615 16.5384 82.8695 15.6627 81.7673 15.6627H79.7729V3.91568H81.7673C82.8695 3.91568 83.7615 3.03999 83.7615 1.95785C83.7615 0.875688 82.8695 0 81.7673 0H77.7785C76.6763 0 75.7843 0.875688 75.7843 1.95785V3.91568H71.7955V1.95785C71.7955 0.875688 70.9035 0 69.8013 0H65.8126C64.7104 0 63.8184 0.875688 63.8184 1.95785C63.8184 3.03999 64.7104 3.91568 65.8126 3.91568Z" fill="#2C2D2E" style="fill:#2C2D2E;fill:color(display-p3 0.1725 0.1765 0.1804);fill-opacity:1;"/>
<path d="M65.8126 27.4098C66.914 27.4098 67.8069 26.5332 67.8069 25.452C67.8069 24.3707 66.914 23.4941 65.8126 23.4941C64.7113 23.4941 63.8184 24.3707 63.8184 25.452C63.8184 26.5332 64.7113 27.4098 65.8126 27.4098Z" fill="#2C2D2E" style="fill:#2C2D2E;fill:color(display-p3 0.1725 0.1765 0.1804);fill-opacity:1;"/>
<path d="M63.8184 39.1559V41.1138C63.8184 42.196 64.7104 43.0715 65.8126 43.0715C66.9149 43.0715 67.8069 42.196 67.8069 41.1138V37.1981C67.8069 36.1159 66.9149 35.2402 65.8126 35.2402C64.7104 35.2402 63.8184 36.1159 63.8184 37.1981V39.1559Z" fill="#2C2D2E" style="fill:#2C2D2E;fill:color(display-p3 0.1725 0.1765 0.1804);fill-opacity:1;"/>
<path d="M65.8126 86.1455C64.7104 86.1455 63.8184 87.0212 63.8184 88.1034V92.019C63.8184 93.1012 64.7104 93.9767 65.8126 93.9767H69.8013C70.9035 93.9767 71.7955 93.1012 71.7955 92.019V90.0611H75.7843V93.9767H73.7899C72.6876 93.9767 71.7955 94.8524 71.7955 95.9346C71.7955 97.0168 72.6876 97.8925 73.7899 97.8925H83.7615V103.766C83.7615 104.848 84.6535 105.724 85.7559 105.724H89.7444C90.8468 105.724 91.7388 104.848 91.7388 103.766C91.7388 102.684 90.8468 101.808 89.7444 101.808H87.7502V95.9346C87.7502 94.8524 86.8582 93.9767 85.7559 93.9767H83.7615V92.019C83.7615 90.9368 82.8695 90.0611 81.7673 90.0611H79.7729V88.1034C79.7729 87.0212 78.8809 86.1455 77.7785 86.1455H71.7955V82.2299H73.7899C74.8923 82.2299 75.7843 81.3542 75.7843 80.272C75.7843 79.1898 74.8923 78.3141 73.7899 78.3141H71.7955V76.3563C71.7955 75.2741 70.9035 74.3984 69.8013 74.3984C68.699 74.3984 67.8069 75.2741 67.8069 76.3563V78.3141H65.8126C64.7104 78.3141 63.8184 79.1898 63.8184 80.272C63.8184 81.3542 64.7104 82.2299 65.8126 82.2299H67.8069V86.1455H65.8126Z" fill="#2C2D2E" style="fill:#2C2D2E;fill:color(display-p3 0.1725 0.1765 0.1804);fill-opacity:1;"/>
<path d="M65.8126 105.724C66.914 105.724 67.8069 104.848 67.8069 103.766C67.8069 102.685 66.914 101.809 65.8126 101.809C64.7113 101.809 63.8184 102.685 63.8184 103.766C63.8184 104.848 64.7113 105.724 65.8126 105.724Z" fill="#2C2D2E" style="fill:#2C2D2E;fill:color(display-p3 0.1725 0.1765 0.1804);fill-opacity:1;"/>
<path d="M65.8126 148.797C66.914 148.797 67.8069 147.92 67.8069 146.839C67.8069 145.757 66.914 144.881 65.8126 144.881C64.7113 144.881 63.8184 145.757 63.8184 146.839C63.8184 147.92 64.7113 148.797 65.8126 148.797Z" fill="#2C2D2E" style="fill:#2C2D2E;fill:color(display-p3 0.1725 0.1765 0.1804);fill-opacity:1;"/>
<path d="M69.801 35.242C70.9025 35.242 71.7954 34.3654 71.7954 33.2841C71.7954 32.2027 70.9025 31.3262 69.801 31.3262C68.6996 31.3262 67.8066 32.2027 67.8066 33.2841C67.8066 34.3654 68.6996 35.242 69.801 35.242Z" fill="#2C2D2E" style="fill:#2C2D2E;fill:color(display-p3 0.1725 0.1765 0.1804);fill-opacity:1;"/>
<path d="M69.801 101.808C70.9025 101.808 71.7954 100.932 71.7954 99.8503C71.7954 98.7691 70.9025 97.8926 69.801 97.8926C68.6996 97.8926 67.8066 98.7691 67.8066 99.8503C67.8066 100.932 68.6996 101.808 69.801 101.808Z" fill="#2C2D2E" style="fill:#2C2D2E;fill:color(display-p3 0.1725 0.1765 0.1804);fill-opacity:1;"/>
<path d="M69.801 129.216C70.9025 129.216 71.7954 128.34 71.7954 127.259C71.7954 126.177 70.9025 125.301 69.801 125.301C68.6996 125.301 67.8066 126.177 67.8066 127.259C67.8066 128.34 68.6996 129.216 69.801 129.216Z" fill="#2C2D2E" style="fill:#2C2D2E;fill:color(display-p3 0.1725 0.1765 0.1804);fill-opacity:1;"/>
<path d="M69.8013 140.964C70.9035 140.964 71.7955 140.089 71.7955 139.006V137.049H73.7899C74.8923 137.049 75.7843 136.173 75.7843 135.091C75.7843 134.009 74.8923 133.133 73.7899 133.133H69.8013C68.699 133.133 67.8069 134.009 67.8069 135.091V137.049H65.8126C64.7104 137.049 63.8184 137.924 63.8184 139.006C63.8184 140.089 64.7104 140.964 65.8126 140.964H69.8013Z" fill="#2C2D2E" style="fill:#2C2D2E;fill:color(display-p3 0.1725 0.1765 0.1804);fill-opacity:1;"/>
<path d="M73.7896 19.5781H69.801C68.6987 19.5781 67.8066 20.4536 67.8066 21.5358C67.8066 22.618 68.6987 23.4938 69.801 23.4938H71.7954V29.3673C71.7954 30.4495 72.6872 31.325 73.7896 31.325C74.892 31.325 75.784 30.4495 75.784 29.3673V21.5358C75.784 20.4536 74.892 19.5781 73.7896 19.5781Z" fill="#2C2D2E" style="fill:#2C2D2E;fill:color(display-p3 0.1725 0.1765 0.1804);fill-opacity:1;"/>
<path d="M73.7891 39.1559C74.8906 39.1559 75.7835 38.2793 75.7835 37.1981C75.7835 36.1168 74.8906 35.2402 73.7891 35.2402C72.6878 35.2402 71.7949 36.1168 71.7949 37.1981C71.7949 38.2793 72.6878 39.1559 73.7891 39.1559Z" fill="#2C2D2E" style="fill:#2C2D2E;fill:color(display-p3 0.1725 0.1765 0.1804);fill-opacity:1;"/>
<path d="M73.7891 46.9879C74.8906 46.9879 75.7835 46.1113 75.7835 45.03C75.7835 43.9487 74.8906 43.0723 73.7891 43.0723C72.6878 43.0723 71.7949 43.9487 71.7949 45.03C71.7949 46.1113 72.6878 46.9879 73.7891 46.9879Z" fill="#2C2D2E" style="fill:#2C2D2E;fill:color(display-p3 0.1725 0.1765 0.1804);fill-opacity:1;"/>
<path d="M73.7891 62.6504C72.6869 62.6504 71.7949 63.5261 71.7949 64.6081V72.4395C71.7949 73.5217 72.6869 74.3974 73.7891 74.3974C74.8915 74.3974 75.7835 73.5217 75.7835 72.4395V64.6081C75.7835 63.5261 74.8915 62.6504 73.7891 62.6504Z" fill="#2C2D2E" style="fill:#2C2D2E;fill:color(display-p3 0.1725 0.1765 0.1804);fill-opacity:1;"/>
<path d="M77.7794 35.242C78.8808 35.242 79.7737 34.3654 79.7737 33.2841C79.7737 32.2027 78.8808 31.3262 77.7794 31.3262C76.6779 31.3262 75.7852 32.2027 75.7852 33.2841C75.7852 34.3654 76.6779 35.242 77.7794 35.242Z" fill="#2C2D2E" style="fill:#2C2D2E;fill:color(display-p3 0.1725 0.1765 0.1804);fill-opacity:1;"/>
<path d="M77.7794 43.0719C78.8808 43.0719 79.7737 42.1953 79.7737 41.1142C79.7737 40.0328 78.8808 39.1562 77.7794 39.1562C76.6779 39.1562 75.7852 40.0328 75.7852 41.1142C75.7852 42.1953 76.6779 43.0719 77.7794 43.0719Z" fill="#2C2D2E" style="fill:#2C2D2E;fill:color(display-p3 0.1725 0.1765 0.1804);fill-opacity:1;"/>
<path d="M77.7794 62.65C78.8808 62.65 79.7737 61.7734 79.7737 60.6923C79.7737 59.611 78.8808 58.7344 77.7794 58.7344C76.6779 58.7344 75.7852 59.611 75.7852 60.6923C75.7852 61.7734 76.6779 62.65 77.7794 62.65Z" fill="#2C2D2E" style="fill:#2C2D2E;fill:color(display-p3 0.1725 0.1765 0.1804);fill-opacity:1;"/>
<path d="M77.7794 140.964C78.8808 140.964 79.7737 140.088 79.7737 139.007C79.7737 137.925 78.8808 137.049 77.7794 137.049C76.6779 137.049 75.7852 137.925 75.7852 139.007C75.7852 140.088 76.6779 140.964 77.7794 140.964Z" fill="#2C2D2E" style="fill:#2C2D2E;fill:color(display-p3 0.1725 0.1765 0.1804);fill-opacity:1;"/>
<path d="M81.7678 27.4098C82.8693 27.4098 83.762 26.5332 83.762 25.452C83.762 24.3707 82.8693 23.4941 81.7678 23.4941C80.6663 23.4941 79.7734 24.3707 79.7734 25.452C79.7734 26.5332 80.6663 27.4098 81.7678 27.4098Z" fill="#2C2D2E" style="fill:#2C2D2E;fill:color(display-p3 0.1725 0.1765 0.1804);fill-opacity:1;"/>
<path d="M81.7678 70.4822C80.6655 70.4822 79.7734 71.3577 79.7734 72.4399V80.2714C79.7734 81.3536 80.6655 82.2291 81.7678 82.2291C82.87 82.2291 83.762 81.3536 83.762 80.2714V74.3978H91.7394V76.3557C91.7394 77.4378 92.6314 78.3135 93.7338 78.3135H97.7223C98.8247 78.3135 99.7167 77.4378 99.7167 76.3557C99.7167 75.2735 98.8247 74.3978 97.7223 74.3978H95.728V72.4399C95.728 71.3577 94.8359 70.4822 93.7338 70.4822H91.7394V68.5243C91.7394 67.4421 90.8474 66.5664 89.745 66.5664C88.6428 66.5664 87.7508 67.4421 87.7508 68.5243V70.4822H81.7678Z" fill="#2C2D2E" style="fill:#2C2D2E;fill:color(display-p3 0.1725 0.1765 0.1804);fill-opacity:1;"/>
<path d="M81.7676 117.471H85.7562C86.8585 117.471 87.7505 116.596 87.7505 115.514V111.598C87.7505 110.516 86.8585 109.64 85.7562 109.64H83.762V107.682C83.762 106.6 82.8699 105.724 81.7676 105.724H79.7732V103.766C79.7732 102.684 78.8812 101.809 77.779 101.809H73.7902C72.688 101.809 71.796 102.684 71.796 103.766C71.796 104.849 72.688 105.724 73.7902 105.724H75.7846V109.64H73.7902C72.688 109.64 71.796 110.516 71.796 111.598V113.556H67.8074V111.598C67.8074 110.516 66.9154 109.64 65.813 109.64C64.7107 109.64 63.8187 110.516 63.8187 111.598V113.556H61.8245C60.7221 113.556 59.8301 114.431 59.8301 115.514C59.8301 116.596 60.7221 117.471 61.8245 117.471H63.8187V119.429C63.8187 120.511 64.7107 121.387 65.813 121.387H69.8016C70.904 121.387 71.796 120.511 71.796 119.429V117.471H73.7902C74.8926 117.471 75.7846 116.596 75.7846 115.514V113.556H79.7732V115.514C79.7732 116.596 80.6652 117.471 81.7676 117.471Z" fill="#2C2D2E" style="fill:#2C2D2E;fill:color(display-p3 0.1725 0.1765 0.1804);fill-opacity:1;"/>
<path d="M81.7665 152.712C82.8688 152.712 83.7609 151.836 83.7609 150.754V146.838C83.7609 145.756 82.8688 144.88 81.7665 144.88H75.7835V142.923C75.7835 141.841 74.8915 140.965 73.7891 140.965C72.6869 140.965 71.7949 141.841 71.7949 142.923V146.838C71.7949 147.921 72.6869 148.796 73.7891 148.796H79.7721V150.754C79.7721 151.836 80.6641 152.712 81.7665 152.712Z" fill="#2C2D2E" style="fill:#2C2D2E;fill:color(display-p3 0.1725 0.1765 0.1804);fill-opacity:1;"/>
<path d="M83.7617 11.747V13.7049C83.7617 14.787 84.6537 15.6627 85.7559 15.6627H87.7503V19.5785H85.7559C84.6537 19.5785 83.7617 20.454 83.7617 21.5362C83.7617 22.6184 84.6537 23.4941 85.7559 23.4941H87.7503V25.452C87.7503 26.534 88.6423 27.4097 89.7447 27.4097C90.8469 27.4097 91.7389 26.534 91.7389 25.452V19.5785H93.7333C94.8356 19.5785 95.7277 18.7028 95.7277 17.6206V15.6627H97.7219C98.8242 15.6627 99.7162 14.787 99.7162 13.7049V3.91568H101.71C102.813 3.91568 103.705 3.03999 103.705 1.95785C103.705 0.875688 102.813 0 101.71 0H89.7447C88.6423 0 87.7503 0.875688 87.7503 1.95785V7.83135H85.7559C84.6537 7.83135 83.7617 8.70705 83.7617 9.7892V11.747ZM95.7277 7.83135V11.747H91.7389V7.83135H95.7277Z" fill="#2C2D2E" style="fill:#2C2D2E;fill:color(display-p3 0.1725 0.1765 0.1804);fill-opacity:1;"/>
<path d="M85.7559 66.566C86.8574 66.566 87.7503 65.6894 87.7503 64.6081C87.7503 63.527 86.8574 62.6504 85.7559 62.6504C84.6544 62.6504 83.7617 63.527 83.7617 64.6081C83.7617 65.6894 84.6544 66.566 85.7559 66.566Z" fill="#2C2D2E" style="fill:#2C2D2E;fill:color(display-p3 0.1725 0.1765 0.1804);fill-opacity:1;"/>
<path d="M89.7447 90.0599C90.8469 90.0599 91.7389 89.1842 91.7389 88.102V84.1864C91.7389 83.1042 90.8469 82.2285 89.7447 82.2285H85.7559C84.6537 82.2285 83.7617 83.1042 83.7617 84.1864C83.7617 85.2686 84.6537 86.1443 85.7559 86.1443H87.7503V88.102C87.7503 89.1842 88.6423 90.0599 89.7447 90.0599Z" fill="#2C2D2E" style="fill:#2C2D2E;fill:color(display-p3 0.1725 0.1765 0.1804);fill-opacity:1;"/>
<path d="M89.7444 125.302C90.8459 125.302 91.7386 124.426 91.7386 123.344C91.7386 122.263 90.8459 121.387 89.7444 121.387C88.6429 121.387 87.75 122.263 87.75 123.344C87.75 124.426 88.6429 125.302 89.7444 125.302Z" fill="#2C2D2E" style="fill:#2C2D2E;fill:color(display-p3 0.1725 0.1765 0.1804);fill-opacity:1;"/>
<path d="M93.7327 93.9762C94.834 93.9762 95.7269 93.0996 95.7269 92.0184C95.7269 90.9371 94.834 90.0605 93.7327 90.0605C92.6312 90.0605 91.7383 90.9371 91.7383 92.0184C91.7383 93.0996 92.6312 93.9762 93.7327 93.9762Z" fill="#2C2D2E" style="fill:#2C2D2E;fill:color(display-p3 0.1725 0.1765 0.1804);fill-opacity:1;"/>
<path d="M93.7327 113.554C94.834 113.554 95.7269 112.678 95.7269 111.596C95.7269 110.515 94.834 109.639 93.7327 109.639C92.6312 109.639 91.7383 110.515 91.7383 111.596C91.7383 112.678 92.6312 113.554 93.7327 113.554Z" fill="#2C2D2E" style="fill:#2C2D2E;fill:color(display-p3 0.1725 0.1765 0.1804);fill-opacity:1;"/>
<path d="M93.7327 121.387C94.834 121.387 95.7269 120.51 95.7269 119.429C95.7269 118.347 94.834 117.471 93.7327 117.471C92.6312 117.471 91.7383 118.347 91.7383 119.429C91.7383 120.51 92.6312 121.387 93.7327 121.387Z" fill="#2C2D2E" style="fill:#2C2D2E;fill:color(display-p3 0.1725 0.1765 0.1804);fill-opacity:1;"/>
<path d="M91.7397 139.007C91.7397 140.089 92.6317 140.965 93.7341 140.965H97.7227C98.825 140.965 99.7169 140.089 99.7169 139.007V133.134H101.711C102.814 133.134 103.706 132.258 103.706 131.176C103.706 130.094 102.814 129.218 101.711 129.218H99.7169V127.26C99.7169 126.178 98.825 125.302 97.7227 125.302H93.7341C92.6317 125.302 91.7397 126.178 91.7397 127.26V129.218H87.7511V127.26C87.7511 126.178 86.8591 125.302 85.7567 125.302C84.6543 125.302 83.7623 126.178 83.7623 127.26V129.218H79.7737V125.302H81.7681C82.8703 125.302 83.7623 124.427 83.7623 123.344C83.7623 122.262 82.8703 121.387 81.7681 121.387H77.7794C76.6772 121.387 75.7852 122.262 75.7852 123.344V131.176C75.7852 132.258 76.6772 133.134 77.7794 133.134H79.7737V135.091C79.7737 136.174 80.6658 137.049 81.7681 137.049H83.7623V139.007C83.7623 140.089 84.6543 140.965 85.7567 140.965C86.8591 140.965 87.7511 140.089 87.7511 139.007V133.134H91.7397V139.007Z" fill="#2C2D2E" style="fill:#2C2D2E;fill:color(display-p3 0.1725 0.1765 0.1804);fill-opacity:1;"/>
<path d="M93.7327 160.543C94.834 160.543 95.7269 159.666 95.7269 158.585C95.7269 157.503 94.834 156.627 93.7327 156.627C92.6312 156.627 91.7383 157.503 91.7383 158.585C91.7383 159.666 92.6312 160.543 93.7327 160.543Z" fill="#2C2D2E" style="fill:#2C2D2E;fill:color(display-p3 0.1725 0.1765 0.1804);fill-opacity:1;"/>
<path d="M97.7209 90.0602C98.8224 90.0602 99.7153 89.1836 99.7153 88.1023C99.7153 87.0211 98.8224 86.1445 97.7209 86.1445C96.6195 86.1445 95.7266 87.0211 95.7266 88.1023C95.7266 89.1836 96.6195 90.0602 97.7209 90.0602Z" fill="#2C2D2E" style="fill:#2C2D2E;fill:color(display-p3 0.1725 0.1765 0.1804);fill-opacity:1;"/>
<path d="M97.7209 109.638C98.8224 109.638 99.7153 108.762 99.7153 107.681C99.7153 106.599 98.8224 105.723 97.7209 105.723C96.6195 105.723 95.7266 106.599 95.7266 107.681C95.7266 108.762 96.6195 109.638 97.7209 109.638Z" fill="#2C2D2E" style="fill:#2C2D2E;fill:color(display-p3 0.1725 0.1765 0.1804);fill-opacity:1;"/>
<path d="M97.7209 117.47C98.8224 117.47 99.7153 116.594 99.7153 115.513C99.7153 114.431 98.8224 113.555 97.7209 113.555C96.6195 113.555 95.7266 114.431 95.7266 115.513C95.7266 116.594 96.6195 117.47 97.7209 117.47Z" fill="#2C2D2E" style="fill:#2C2D2E;fill:color(display-p3 0.1725 0.1765 0.1804);fill-opacity:1;"/>
<path d="M97.7209 156.627C98.8224 156.627 99.7153 155.75 99.7153 154.669C99.7153 153.588 98.8224 152.711 97.7209 152.711C96.6195 152.711 95.7266 153.588 95.7266 154.669C95.7266 155.75 96.6195 156.627 97.7209 156.627Z" fill="#2C2D2E" style="fill:#2C2D2E;fill:color(display-p3 0.1725 0.1765 0.1804);fill-opacity:1;"/>
<path d="M101.711 82.2303C102.812 82.2303 103.705 81.3537 103.705 80.2724C103.705 79.191 102.812 78.3145 101.711 78.3145C100.61 78.3145 99.7168 79.191 99.7168 80.2724C99.7168 81.3537 100.61 82.2303 101.711 82.2303Z" fill="#2C2D2E" style="fill:#2C2D2E;fill:color(display-p3 0.1725 0.1765 0.1804);fill-opacity:1;"/>
<path d="M101.711 125.302C102.812 125.302 103.705 124.426 103.705 123.344C103.705 122.263 102.812 121.387 101.711 121.387C100.61 121.387 99.7168 122.263 99.7168 123.344C99.7168 124.426 100.61 125.302 101.711 125.302Z" fill="#2C2D2E" style="fill:#2C2D2E;fill:color(display-p3 0.1725 0.1765 0.1804);fill-opacity:1;"/>
<path d="M101.71 144.881H93.7332C92.6308 144.881 91.7388 145.757 91.7388 146.839V148.797H89.7444C88.6423 148.797 87.7502 149.672 87.7502 150.754V152.712H85.7559C84.6535 152.712 83.7615 153.588 83.7615 154.67V156.628H79.7729V154.67C79.7729 153.588 78.8809 152.712 77.7785 152.712H73.7899C72.6876 152.712 71.7955 153.588 71.7955 154.67V156.628H67.8069V154.67C67.8069 153.588 66.9149 152.712 65.8126 152.712C64.7104 152.712 63.8184 153.588 63.8184 154.67V158.586C63.8184 159.668 64.7104 160.544 65.8126 160.544H85.7559C86.8582 160.544 87.7502 159.668 87.7502 158.586V156.628H89.7444C90.8468 156.628 91.7388 155.752 91.7388 154.67V152.712H93.7332C94.8354 152.712 95.7274 151.837 95.7274 150.754V148.797H101.71C102.813 148.797 103.705 147.921 103.705 146.839C103.705 145.757 102.813 144.881 101.71 144.881Z" fill="#2C2D2E" style="fill:#2C2D2E;fill:color(display-p3 0.1725 0.1765 0.1804);fill-opacity:1;"/>
<path d="M103.705 27.4091H99.7167V23.4935H101.711C102.813 23.4935 103.705 22.6178 103.705 21.5356V17.62C103.705 16.5378 102.813 15.6621 101.711 15.6621C100.609 15.6621 99.7167 16.5378 99.7167 17.62V19.5779H97.7223C96.62 19.5779 95.728 20.4536 95.728 21.5356V27.4091H93.7338C92.6314 27.4091 91.7394 28.2848 91.7394 29.367V31.3249H87.7508V29.367C87.7508 28.2848 86.8588 27.4091 85.7564 27.4091C84.654 27.4091 83.762 28.2848 83.762 29.367V33.2826C83.762 34.3648 84.654 35.2405 85.7564 35.2405H93.7338C94.8359 35.2405 95.728 34.3648 95.728 33.2826V31.3249H99.7167V33.2826C99.7167 34.3648 100.609 35.2405 101.711 35.2405C102.813 35.2405 103.705 34.3648 103.705 33.2826V31.3249H107.694V33.2826C107.694 34.3648 108.586 35.2405 109.688 35.2405H115.671V39.1562H99.7167V37.1984C99.7167 36.1162 98.8247 35.2405 97.7223 35.2405C96.62 35.2405 95.728 36.1162 95.728 37.1984V39.1562H85.7564C84.654 39.1562 83.762 40.0319 83.762 41.1141C83.762 42.1963 84.654 43.072 85.7564 43.072H95.728V46.9876H93.7338C92.6314 46.9876 91.7394 47.8633 91.7394 48.9453C91.7394 50.0275 92.6314 50.9032 93.7338 50.9032H95.728V54.8188H91.7394V52.8611C91.7394 51.7789 90.8474 50.9032 89.745 50.9032H81.7678C80.6655 50.9032 79.7734 51.7789 79.7734 52.8611C79.7734 53.9433 80.6655 54.8188 81.7678 54.8188H87.7508V56.7767C87.7508 57.8589 88.6428 58.7346 89.745 58.7346H91.7394V60.6924C91.7394 61.7746 92.6314 62.6503 93.7338 62.6503C94.8359 62.6503 95.728 61.7746 95.728 60.6924V58.7346H97.7223C98.8247 58.7346 99.7167 57.8589 99.7167 56.7767V46.9876H101.711C102.813 46.9876 103.705 46.1119 103.705 45.0297V43.072H119.66V52.8611C119.66 53.9433 120.552 54.8188 121.654 54.8188H129.631C130.734 54.8188 131.626 53.9433 131.626 52.8611C131.626 51.7789 130.734 50.9032 129.631 50.9032H127.637V48.9453C127.637 47.8633 126.745 46.9876 125.643 46.9876H123.649V41.1141C123.649 40.0319 122.757 39.1562 121.654 39.1562H119.66V31.3249H125.643C126.745 31.3249 127.637 30.4492 127.637 29.367C127.637 28.2848 126.745 27.4091 125.643 27.4091H123.649V25.4514C123.649 24.3692 122.757 23.4935 121.654 23.4935C120.552 23.4935 119.66 24.3692 119.66 25.4514V27.4091H117.666C116.563 27.4091 115.671 28.2848 115.671 29.367V31.3249H111.683V29.367C111.683 28.2848 110.791 27.4091 109.688 27.4091H107.694V25.4514C107.694 24.3692 106.802 23.4935 105.7 23.4935C104.597 23.4935 103.705 24.3692 103.705 25.4514V27.4091Z" fill="#2C2D2E" style="fill:#2C2D2E;fill:color(display-p3 0.1725 0.1765 0.1804);fill-opacity:1;"/>
<path d="M105.7 54.8203C104.597 54.8203 103.705 55.696 103.705 56.7782V58.7361H101.711C100.609 58.7361 99.7168 59.6118 99.7168 60.6938C99.7168 61.776 100.609 62.6517 101.711 62.6517H105.7C106.802 62.6517 107.694 61.776 107.694 60.6938V56.7782C107.694 55.696 106.802 54.8203 105.7 54.8203Z" fill="#2C2D2E" style="fill:#2C2D2E;fill:color(display-p3 0.1725 0.1765 0.1804);fill-opacity:1;"/>
<path d="M105.699 90.0605C104.596 90.0605 103.704 90.9362 103.704 92.0184V93.9762H97.7213C96.6189 93.9762 95.7269 94.8519 95.7269 95.9341V97.892H93.7327C92.6303 97.892 91.7383 98.7677 91.7383 99.8497C91.7383 100.932 92.6303 101.808 93.7327 101.808H99.7156V103.766C99.7156 104.848 100.608 105.723 101.71 105.723C102.812 105.723 103.704 104.848 103.704 103.766V97.892H107.693V99.8497C107.693 100.932 108.585 101.808 109.687 101.808C110.79 101.808 111.682 100.932 111.682 99.8497V95.9341C111.682 94.8519 110.79 93.9762 109.687 93.9762H107.693V92.0184C107.693 90.9362 106.801 90.0605 105.699 90.0605Z" fill="#2C2D2E" style="fill:#2C2D2E;fill:color(display-p3 0.1725 0.1765 0.1804);fill-opacity:1;"/>
<path d="M103.705 115.513V119.428C103.705 120.51 104.597 121.386 105.699 121.386H109.688C110.79 121.386 111.682 120.51 111.682 119.428V117.47H113.677C114.779 117.47 115.671 116.595 115.671 115.513C115.671 114.43 114.779 113.555 113.677 113.555H105.699C104.597 113.555 103.705 114.43 103.705 115.513Z" fill="#2C2D2E" style="fill:#2C2D2E;fill:color(display-p3 0.1725 0.1765 0.1804);fill-opacity:1;"/>
<path d="M105.699 137.049C106.801 137.049 107.694 136.172 107.694 135.091C107.694 134.009 106.801 133.133 105.699 133.133C104.598 133.133 103.705 134.009 103.705 135.091C103.705 136.172 104.598 137.049 105.699 137.049Z" fill="#2C2D2E" style="fill:#2C2D2E;fill:color(display-p3 0.1725 0.1765 0.1804);fill-opacity:1;"/>
<path d="M105.699 144.88C106.801 144.88 107.694 144.004 107.694 142.923C107.694 141.841 106.801 140.965 105.699 140.965C104.598 140.965 103.705 141.841 103.705 142.923C103.705 144.004 104.598 144.88 105.699 144.88Z" fill="#2C2D2E" style="fill:#2C2D2E;fill:color(display-p3 0.1725 0.1765 0.1804);fill-opacity:1;"/>
<path d="M109.688 3.91568C110.789 3.91568 111.682 3.03912 111.682 1.95785C111.682 0.876554 110.789 0 109.688 0C108.586 0 107.693 0.876554 107.693 1.95785C107.693 3.03912 108.586 3.91568 109.688 3.91568Z" fill="#2C2D2E" style="fill:#2C2D2E;fill:color(display-p3 0.1725 0.1765 0.1804);fill-opacity:1;"/>
<path d="M109.688 15.6618C110.789 15.6618 111.682 14.7852 111.682 13.7039C111.682 12.6226 110.789 11.7461 109.688 11.7461C108.586 11.7461 107.693 12.6226 107.693 13.7039C107.693 14.7852 108.586 15.6618 109.688 15.6618Z" fill="#2C2D2E" style="fill:#2C2D2E;fill:color(display-p3 0.1725 0.1765 0.1804);fill-opacity:1;"/>
<path d="M111.682 129.218H117.665C118.768 129.218 119.66 128.342 119.66 127.26V123.344C119.66 122.262 118.768 121.387 117.665 121.387C116.563 121.387 115.671 122.262 115.671 123.344V125.302H105.699C104.597 125.302 103.705 126.178 103.705 127.26C103.705 128.342 104.597 129.218 105.699 129.218H111.682Z" fill="#2C2D2E" style="fill:#2C2D2E;fill:color(display-p3 0.1725 0.1765 0.1804);fill-opacity:1;"/>
<path d="M109.688 156.627H105.699C104.597 156.627 103.705 157.502 103.705 158.585C103.705 159.667 104.597 160.543 105.699 160.543H109.688C110.79 160.543 111.682 159.667 111.682 158.585C111.682 157.502 110.79 156.627 109.688 156.627Z" fill="#2C2D2E" style="fill:#2C2D2E;fill:color(display-p3 0.1725 0.1765 0.1804);fill-opacity:1;"/>
<path d="M113.676 11.7477C114.777 11.7477 115.67 10.8712 115.67 9.78986C115.67 8.70859 114.777 7.83203 113.676 7.83203C112.575 7.83203 111.682 8.70859 111.682 9.78986C111.682 10.8712 112.575 11.7477 113.676 11.7477Z" fill="#2C2D2E" style="fill:#2C2D2E;fill:color(display-p3 0.1725 0.1765 0.1804);fill-opacity:1;"/>
<path d="M113.676 19.5779C114.777 19.5779 115.67 18.7013 115.67 17.62C115.67 16.5387 114.777 15.6621 113.676 15.6621C112.575 15.6621 111.682 16.5387 111.682 17.62C111.682 18.7013 112.575 19.5779 113.676 19.5779Z" fill="#2C2D2E" style="fill:#2C2D2E;fill:color(display-p3 0.1725 0.1765 0.1804);fill-opacity:1;"/>
<path d="M113.676 27.4098C114.777 27.4098 115.67 26.5332 115.67 25.452C115.67 24.3707 114.777 23.4941 113.676 23.4941C112.575 23.4941 111.682 24.3707 111.682 25.452C111.682 26.5332 112.575 27.4098 113.676 27.4098Z" fill="#2C2D2E" style="fill:#2C2D2E;fill:color(display-p3 0.1725 0.1765 0.1804);fill-opacity:1;"/>
<path d="M111.682 62.6513H109.688C108.585 62.6513 107.693 63.527 107.693 64.6091V68.5249C107.693 69.6071 108.585 70.4826 109.688 70.4826C110.79 70.4826 111.682 69.6071 111.682 68.5249V66.567H115.671V68.5249C115.671 69.6071 116.563 70.4826 117.665 70.4826C118.767 70.4826 119.659 69.6071 119.659 68.5249V62.6513H125.642C126.745 62.6513 127.637 61.7756 127.637 60.6934C127.637 59.6112 126.745 58.7357 125.642 58.7357H119.659V56.7778C119.659 55.6956 118.767 54.8199 117.665 54.8199H115.671V52.8622C115.671 51.78 114.779 50.9043 113.676 50.9043C112.574 50.9043 111.682 51.78 111.682 52.8622V56.7778C111.682 57.86 112.574 58.7357 113.676 58.7357H115.671V62.6513H111.682Z" fill="#2C2D2E" style="fill:#2C2D2E;fill:color(display-p3 0.1725 0.1765 0.1804);fill-opacity:1;"/>
<path d="M113.676 93.9762C114.777 93.9762 115.67 93.0996 115.67 92.0184C115.67 90.9371 114.777 90.0605 113.676 90.0605C112.575 90.0605 111.682 90.9371 111.682 92.0184C111.682 93.0996 112.575 93.9762 113.676 93.9762Z" fill="#2C2D2E" style="fill:#2C2D2E;fill:color(display-p3 0.1725 0.1765 0.1804);fill-opacity:1;"/>
<path d="M121.655 3.91568C122.756 3.91568 123.649 3.03912 123.649 1.95785C123.649 0.876554 122.756 0 121.655 0C120.553 0 119.66 0.876554 119.66 1.95785C119.66 3.03912 120.553 3.91568 121.655 3.91568Z" fill="#2C2D2E" style="fill:#2C2D2E;fill:color(display-p3 0.1725 0.1765 0.1804);fill-opacity:1;"/>
<path d="M121.654 101.808C122.756 101.808 123.648 100.932 123.648 99.8503C123.648 98.7683 122.756 97.8926 121.654 97.8926H117.665C116.563 97.8926 115.671 98.7683 115.671 99.8503V101.808H113.676C112.574 101.808 111.682 102.684 111.682 103.766V105.724H109.688C108.585 105.724 107.693 106.6 107.693 107.682C107.693 108.764 108.585 109.64 109.688 109.64H115.671V111.597C115.671 112.68 116.563 113.555 117.665 113.555H121.654C122.756 113.555 123.648 112.68 123.648 111.597V107.682C123.648 106.6 122.756 105.724 121.654 105.724H119.659V101.808H121.654Z" fill="#2C2D2E" style="fill:#2C2D2E;fill:color(display-p3 0.1725 0.1765 0.1804);fill-opacity:1;"/>
<path d="M123.648 11.7477V13.7055C123.648 14.7877 124.54 15.6634 125.643 15.6634H127.637V17.6212C127.637 18.7034 128.529 19.5791 129.631 19.5791C130.734 19.5791 131.626 18.7034 131.626 17.6212V9.78986C131.626 8.70771 130.734 7.83203 129.631 7.83203H125.643C124.54 7.83203 123.648 8.70771 123.648 9.78986V11.7477Z" fill="#2C2D2E" style="fill:#2C2D2E;fill:color(display-p3 0.1725 0.1765 0.1804);fill-opacity:1;"/>
<path d="M125.643 70.4822C126.744 70.4822 127.637 69.6056 127.637 68.5243C127.637 67.443 126.744 66.5664 125.643 66.5664C124.541 66.5664 123.648 67.443 123.648 68.5243C123.648 69.6056 124.541 70.4822 125.643 70.4822Z" fill="#2C2D2E" style="fill:#2C2D2E;fill:color(display-p3 0.1725 0.1765 0.1804);fill-opacity:1;"/>
<path d="M125.643 86.1445C124.54 86.1445 123.648 87.0202 123.648 88.1023V92.0181C123.648 93.1001 124.54 93.9758 125.643 93.9758H129.631C130.734 93.9758 131.626 93.1001 131.626 92.0181C131.626 90.9359 130.734 90.0602 129.631 90.0602H127.637V88.1023C127.637 87.0202 126.745 86.1445 125.643 86.1445Z" fill="#2C2D2E" style="fill:#2C2D2E;fill:color(display-p3 0.1725 0.1765 0.1804);fill-opacity:1;"/>
<path d="M125.642 144.88H123.648V139.006C123.648 137.924 122.756 137.049 121.653 137.049H119.659V135.091C119.659 134.009 118.767 133.133 117.665 133.133C116.562 133.133 115.67 134.009 115.67 135.091V137.049H113.676C112.574 137.049 111.682 137.924 111.682 139.006C111.682 140.089 112.574 140.964 113.676 140.964H119.659V152.711H117.665C116.562 152.711 115.67 153.587 115.67 154.669V158.585C115.67 159.667 116.562 160.543 117.665 160.543H121.653C122.756 160.543 123.648 159.667 123.648 158.585V148.796H125.642C126.744 148.796 127.636 147.92 127.636 146.838C127.636 145.756 126.744 144.88 125.642 144.88Z" fill="#2C2D2E" style="fill:#2C2D2E;fill:color(display-p3 0.1725 0.1765 0.1804);fill-opacity:1;"/>
<path d="M129.631 3.91568C130.732 3.91568 131.625 3.03912 131.625 1.95785C131.625 0.876554 130.732 0 129.631 0C128.53 0 127.637 0.876554 127.637 1.95785C127.637 3.03912 128.53 3.91568 129.631 3.91568Z" fill="#2C2D2E" style="fill:#2C2D2E;fill:color(display-p3 0.1725 0.1765 0.1804);fill-opacity:1;"/>
<path d="M129.631 27.4098C130.732 27.4098 131.625 26.5332 131.625 25.452C131.625 24.3707 130.732 23.4941 129.631 23.4941C128.53 23.4941 127.637 24.3707 127.637 25.452C127.637 26.5332 128.53 27.4098 129.631 27.4098Z" fill="#2C2D2E" style="fill:#2C2D2E;fill:color(display-p3 0.1725 0.1765 0.1804);fill-opacity:1;"/>
<path d="M129.631 66.566C130.732 66.566 131.625 65.6894 131.625 64.6081C131.625 63.527 130.732 62.6504 129.631 62.6504C128.53 62.6504 127.637 63.527 127.637 64.6081C127.637 65.6894 128.53 66.566 129.631 66.566Z" fill="#2C2D2E" style="fill:#2C2D2E;fill:color(display-p3 0.1725 0.1765 0.1804);fill-opacity:1;"/>
<path d="M129.631 101.808C130.732 101.808 131.625 100.932 131.625 99.8503C131.625 98.7691 130.732 97.8926 129.631 97.8926C128.53 97.8926 127.637 98.7691 127.637 99.8503C127.637 100.932 128.53 101.808 129.631 101.808Z" fill="#2C2D2E" style="fill:#2C2D2E;fill:color(display-p3 0.1725 0.1765 0.1804);fill-opacity:1;"/>
<path d="M129.631 109.638C130.732 109.638 131.625 108.762 131.625 107.681C131.625 106.599 130.732 105.723 129.631 105.723C128.53 105.723 127.637 106.599 127.637 107.681C127.637 108.762 128.53 109.638 129.631 109.638Z" fill="#2C2D2E" style="fill:#2C2D2E;fill:color(display-p3 0.1725 0.1765 0.1804);fill-opacity:1;"/>
<path d="M131.625 152.711V150.753C131.625 149.671 130.733 148.795 129.631 148.795C128.529 148.795 127.637 149.671 127.637 150.753V154.668C127.637 155.751 128.529 156.626 129.631 156.626C130.733 156.626 131.625 155.751 131.625 154.668V152.711Z" fill="#2C2D2E" style="fill:#2C2D2E;fill:color(display-p3 0.1725 0.1765 0.1804);fill-opacity:1;"/>
<path d="M133.619 105.724C134.721 105.724 135.614 104.848 135.614 103.766C135.614 102.685 134.721 101.809 133.619 101.809C132.518 101.809 131.625 102.685 131.625 103.766C131.625 104.848 132.518 105.724 133.619 105.724Z" fill="#2C2D2E" style="fill:#2C2D2E;fill:color(display-p3 0.1725 0.1765 0.1804);fill-opacity:1;"/>
<path d="M133.619 160.543C134.721 160.543 135.614 159.666 135.614 158.585C135.614 157.503 134.721 156.627 133.619 156.627C132.518 156.627 131.625 157.503 131.625 158.585C131.625 159.666 132.518 160.543 133.619 160.543Z" fill="#2C2D2E" style="fill:#2C2D2E;fill:color(display-p3 0.1725 0.1765 0.1804);fill-opacity:1;"/>
<path d="M137.608 90.0602C138.71 90.0602 139.602 89.1845 139.602 88.1023C139.602 87.0202 138.71 86.1445 137.608 86.1445H133.619C132.517 86.1445 131.625 87.0202 131.625 88.1023C131.625 89.1845 132.517 90.0602 133.619 90.0602H137.608Z" fill="#2C2D2E" style="fill:#2C2D2E;fill:color(display-p3 0.1725 0.1765 0.1804);fill-opacity:1;"/>
<path d="M137.608 137.049C138.709 137.049 139.602 136.172 139.602 135.091C139.602 134.009 138.709 133.133 137.608 133.133C136.506 133.133 135.613 134.009 135.613 135.091C135.613 136.172 136.506 137.049 137.608 137.049Z" fill="#2C2D2E" style="fill:#2C2D2E;fill:color(display-p3 0.1725 0.1765 0.1804);fill-opacity:1;"/>
<path d="M137.608 156.627C138.709 156.627 139.602 155.75 139.602 154.669C139.602 153.588 138.709 152.711 137.608 152.711C136.506 152.711 135.613 153.588 135.613 154.669C135.613 155.75 136.506 156.627 137.608 156.627Z" fill="#2C2D2E" style="fill:#2C2D2E;fill:color(display-p3 0.1725 0.1765 0.1804);fill-opacity:1;"/>
<path d="M141.597 35.242C142.7 35.242 143.592 34.3663 143.592 33.2841C143.592 32.2019 142.7 31.3262 141.597 31.3262H129.631C128.529 31.3262 127.637 32.2019 127.637 33.2841V35.242H125.643C124.54 35.242 123.648 36.1177 123.648 37.1997C123.648 38.2819 124.54 39.1576 125.643 39.1576H127.637V45.0311C127.637 46.1133 128.529 46.989 129.631 46.989H131.626V48.9468C131.626 50.0289 132.518 50.9046 133.62 50.9046H135.614V58.7361H133.62C132.518 58.7361 131.626 59.6116 131.626 60.6938C131.626 61.776 132.518 62.6517 133.62 62.6517H135.614V68.5252C135.614 69.6074 136.506 70.483 137.609 70.483C138.711 70.483 139.603 69.6074 139.603 68.5252V62.6517H143.592V64.6096C143.592 65.6916 144.484 66.5673 145.586 66.5673H149.575C150.677 66.5673 151.569 65.6916 151.569 64.6096V62.6517H153.563C154.665 62.6517 155.557 61.776 155.557 60.6938C155.557 59.6116 154.665 58.7361 153.563 58.7361H139.603V50.9046H141.597C142.7 50.9046 143.592 50.0289 143.592 48.9468C143.592 47.8647 142.7 46.989 141.597 46.989H135.614V43.0732H145.586C146.688 43.0732 147.58 42.1975 147.58 41.1155V39.1576H151.569V41.1155C151.569 42.1975 152.461 43.0732 153.563 43.0732C154.665 43.0732 155.557 42.1975 155.557 41.1155V39.1576H157.552C158.654 39.1576 159.546 38.2819 159.546 37.1997V33.2841C159.546 32.2019 158.654 31.3262 157.552 31.3262C156.45 31.3262 155.557 32.2019 155.557 33.2841V35.242H151.569V33.2841C151.569 32.2019 150.677 31.3262 149.575 31.3262C148.472 31.3262 147.58 32.2019 147.58 33.2841V35.242H145.586C144.484 35.242 143.592 36.1177 143.592 37.1997V39.1576H139.603V35.242H141.597ZM135.614 39.1576H131.626V35.242H135.614V39.1576Z" fill="#2C2D2E" style="fill:#2C2D2E;fill:color(display-p3 0.1725 0.1765 0.1804);fill-opacity:1;"/>
<path d="M141.596 105.724C142.697 105.724 143.59 104.848 143.59 103.766C143.59 102.685 142.697 101.809 141.596 101.809C140.494 101.809 139.602 102.685 139.602 103.766C139.602 104.848 140.494 105.724 141.596 105.724Z" fill="#2C2D2E" style="fill:#2C2D2E;fill:color(display-p3 0.1725 0.1765 0.1804);fill-opacity:1;"/>
<path d="M141.596 152.711C142.697 152.711 143.59 151.834 143.59 150.753C143.59 149.671 142.697 148.795 141.596 148.795C140.494 148.795 139.602 149.671 139.602 150.753C139.602 151.834 140.494 152.711 141.596 152.711Z" fill="#2C2D2E" style="fill:#2C2D2E;fill:color(display-p3 0.1725 0.1765 0.1804);fill-opacity:1;"/>
<path d="M145.586 113.554C146.688 113.554 147.58 112.678 147.58 111.596C147.58 110.515 146.688 109.639 145.586 109.639C144.485 109.639 143.592 110.515 143.592 111.596C143.592 112.678 144.485 113.554 145.586 113.554Z" fill="#2C2D2E" style="fill:#2C2D2E;fill:color(display-p3 0.1725 0.1765 0.1804);fill-opacity:1;"/>
<path d="M145.586 160.543C146.688 160.543 147.58 159.666 147.58 158.585C147.58 157.503 146.688 156.627 145.586 156.627C144.485 156.627 143.592 157.503 143.592 158.585C143.592 159.666 144.485 160.543 145.586 160.543Z" fill="#2C2D2E" style="fill:#2C2D2E;fill:color(display-p3 0.1725 0.1765 0.1804);fill-opacity:1;"/>
<path d="M155.557 70.4816H157.551C158.654 70.4816 159.546 69.6059 159.546 68.5239V64.6081C159.546 63.5261 158.654 62.6504 157.551 62.6504C156.449 62.6504 155.557 63.5261 155.557 64.6081V66.566H153.563C152.46 66.566 151.568 67.4417 151.568 68.5239V72.4395C151.568 73.5217 152.46 74.3974 153.563 74.3974C154.665 74.3974 155.557 73.5217 155.557 72.4395V70.4816Z" fill="#2C2D2E" style="fill:#2C2D2E;fill:color(display-p3 0.1725 0.1765 0.1804);fill-opacity:1;"/>
<path d="M153.563 86.1453C154.665 86.1453 155.557 85.2696 155.557 84.1874V80.2717C155.557 79.1895 154.665 78.3138 153.563 78.3138H147.58V76.3559C147.58 75.2739 146.688 74.3982 145.586 74.3982H135.614V72.4403C135.614 71.3581 134.722 70.4824 133.62 70.4824C132.517 70.4824 131.625 71.3581 131.625 72.4403V78.3138H127.637V76.3559C127.637 75.2739 126.745 74.3982 125.642 74.3982H115.671V72.4403C115.671 71.3581 114.779 70.4824 113.676 70.4824C112.574 70.4824 111.682 71.3581 111.682 72.4403V82.2295H109.688C108.585 82.2295 107.693 83.1052 107.693 84.1874V88.103C107.693 89.1852 108.585 90.0609 109.688 90.0609C110.79 90.0609 111.682 89.1852 111.682 88.103V86.1453H117.665C118.767 86.1453 119.659 85.2696 119.659 84.1874C119.659 83.1052 118.767 82.2295 117.665 82.2295H115.671V78.3138H119.659V80.2717C119.659 81.3538 120.551 82.2295 121.654 82.2295H143.591V88.103C143.591 89.1852 144.483 90.0609 145.586 90.0609C146.688 90.0609 147.58 89.1852 147.58 88.103V82.2295H151.569V84.1874C151.569 85.2696 152.461 86.1453 153.563 86.1453Z" fill="#2C2D2E" style="fill:#2C2D2E;fill:color(display-p3 0.1725 0.1765 0.1804);fill-opacity:1;"/>
<path d="M153.563 105.724C154.664 105.724 155.557 104.848 155.557 103.766C155.557 102.685 154.664 101.809 153.563 101.809C152.461 101.809 151.568 102.685 151.568 103.766C151.568 104.848 152.461 105.724 153.563 105.724Z" fill="#2C2D2E" style="fill:#2C2D2E;fill:color(display-p3 0.1725 0.1765 0.1804);fill-opacity:1;"/>
<path d="M155.558 117.47H161.541C162.643 117.47 163.535 116.595 163.535 115.513C163.535 114.43 162.643 113.555 161.541 113.555H149.575C148.473 113.555 147.581 114.43 147.581 115.513V117.47H135.615V115.513C135.615 114.43 134.723 113.555 133.62 113.555C132.518 113.555 131.626 114.43 131.626 115.513V117.47H127.638V115.513C127.638 114.43 126.745 113.555 125.643 113.555C124.541 113.555 123.649 114.43 123.649 115.513V117.47H121.655C120.552 117.47 119.66 118.346 119.66 119.428C119.66 120.51 120.552 121.386 121.655 121.386H123.649V131.175C123.649 132.257 124.541 133.133 125.643 133.133H127.638V142.922C127.638 144.005 128.53 144.88 129.632 144.88H131.626V146.838C131.626 147.92 132.518 148.796 133.62 148.796C134.723 148.796 135.615 147.92 135.615 146.838V144.88H151.569V150.754C151.569 151.836 152.461 152.711 153.564 152.711C154.666 152.711 155.558 151.836 155.558 150.754V148.796H157.552C158.655 148.796 159.547 147.92 159.547 146.838C159.547 145.756 158.655 144.88 157.552 144.88H155.558V142.922C155.558 141.84 154.666 140.964 153.564 140.964H147.581V137.049H149.575C150.677 137.049 151.569 136.173 151.569 135.091V131.175C151.569 130.093 150.677 129.217 149.575 129.217H147.581V127.26C147.581 126.177 146.689 125.302 145.586 125.302H143.592V121.386H147.581V123.344C147.581 124.426 148.473 125.302 149.575 125.302H155.558V139.007C155.558 140.089 156.45 140.964 157.552 140.964H159.547V142.922C159.547 144.005 160.439 144.88 161.541 144.88C162.643 144.88 163.535 144.005 163.535 142.922V139.007C163.535 137.924 162.643 137.049 161.541 137.049H159.547V133.133H161.541C162.643 133.133 163.535 132.257 163.535 131.175V127.26C163.535 126.177 162.643 125.302 161.541 125.302H159.547V123.344C159.547 122.262 158.655 121.386 157.552 121.386H151.569V117.47H155.558ZM127.638 121.386H131.626V125.302H127.638V121.386ZM143.592 133.133V140.964H131.626V129.217H143.592V133.133ZM139.603 125.302H135.615V121.386H139.603V125.302Z" fill="#2C2D2E" style="fill:#2C2D2E;fill:color(display-p3 0.1725 0.1765 0.1804);fill-opacity:1;"/>
<path d="M153.563 160.543C154.664 160.543 155.557 159.666 155.557 158.585C155.557 157.503 154.664 156.627 153.563 156.627C152.461 156.627 151.568 157.503 151.568 158.585C151.568 159.666 152.461 160.543 153.563 160.543Z" fill="#2C2D2E" style="fill:#2C2D2E;fill:color(display-p3 0.1725 0.1765 0.1804);fill-opacity:1;"/>
<path d="M157.551 109.638C158.652 109.638 159.545 108.762 159.545 107.681C159.545 106.599 158.652 105.723 157.551 105.723C156.45 105.723 155.557 106.599 155.557 107.681C155.557 108.762 156.45 109.638 157.551 109.638Z" fill="#2C2D2E" style="fill:#2C2D2E;fill:color(display-p3 0.1725 0.1765 0.1804);fill-opacity:1;"/>
<path d="M161.539 43.0719C162.641 43.0719 163.534 42.1953 163.534 41.1142C163.534 40.0328 162.641 39.1562 161.539 39.1562C160.438 39.1562 159.545 40.0328 159.545 41.1142C159.545 42.1953 160.438 43.0719 161.539 43.0719Z" fill="#2C2D2E" style="fill:#2C2D2E;fill:color(display-p3 0.1725 0.1765 0.1804);fill-opacity:1;"/>
<path d="M161.54 50.9039H155.557V48.946C155.557 47.864 154.665 46.9883 153.563 46.9883H149.574C148.472 46.9883 147.58 47.864 147.58 48.946C147.58 50.0282 148.472 50.9039 149.574 50.9039H151.569V52.8618C151.569 53.9438 152.461 54.8195 153.563 54.8195H155.557V56.7774C155.557 57.8596 156.449 58.7353 157.552 58.7353C158.654 58.7353 159.546 57.8596 159.546 56.7774V54.8195H161.54C162.643 54.8195 163.535 53.9438 163.535 52.8618C163.535 51.7796 162.643 50.9039 161.54 50.9039Z" fill="#2C2D2E" style="fill:#2C2D2E;fill:color(display-p3 0.1725 0.1765 0.1804);fill-opacity:1;"/>
<path d="M161.539 62.65C162.641 62.65 163.534 61.7734 163.534 60.6923C163.534 59.611 162.641 58.7344 161.539 58.7344C160.438 58.7344 159.545 59.611 159.545 60.6923C159.545 61.7734 160.438 62.65 161.539 62.65Z" fill="#2C2D2E" style="fill:#2C2D2E;fill:color(display-p3 0.1725 0.1765 0.1804);fill-opacity:1;"/>
<path d="M161.539 86.1443C162.641 86.1443 163.534 85.2677 163.534 84.1864C163.534 83.1051 162.641 82.2285 161.539 82.2285C160.438 82.2285 159.545 83.1051 159.545 84.1864C159.545 85.2677 160.438 86.1443 161.539 86.1443Z" fill="#2C2D2E" style="fill:#2C2D2E;fill:color(display-p3 0.1725 0.1765 0.1804);fill-opacity:1;"/>
<path d="M161.539 90.0605C160.437 90.0605 159.545 90.9362 159.545 92.0184V93.9762H155.556V92.0184C155.556 90.9362 154.664 90.0605 153.562 90.0605C152.46 90.0605 151.568 90.9362 151.568 92.0184V93.9762H143.59V92.0184C143.59 90.9362 142.698 90.0605 141.596 90.0605C140.494 90.0605 139.602 90.9362 139.602 92.0184V95.9341C139.602 97.0163 140.494 97.892 141.596 97.892H155.556V99.8497C155.556 100.932 156.448 101.808 157.55 101.808C158.653 101.808 159.545 100.932 159.545 99.8497V97.892H161.539C162.641 97.892 163.533 97.0163 163.533 95.9341V92.0184C163.533 90.9362 162.641 90.0605 161.539 90.0605Z" fill="#2C2D2E" style="fill:#2C2D2E;fill:color(display-p3 0.1725 0.1765 0.1804);fill-opacity:1;"/>
<path d="M161.539 105.724C162.641 105.724 163.534 104.848 163.534 103.766C163.534 102.685 162.641 101.809 161.539 101.809C160.438 101.809 159.545 102.685 159.545 103.766C159.545 104.848 160.438 105.724 161.539 105.724Z" fill="#2C2D2E" style="fill:#2C2D2E;fill:color(display-p3 0.1725 0.1765 0.1804);fill-opacity:1;"/>
<path d="M161.54 152.711H157.551C156.449 152.711 155.557 153.587 155.557 154.669C155.557 155.751 156.449 156.627 157.551 156.627H161.54C162.642 156.627 163.534 155.751 163.534 154.669C163.534 153.587 162.642 152.711 161.54 152.711Z" fill="#2C2D2E" style="fill:#2C2D2E;fill:color(display-p3 0.1725 0.1765 0.1804);fill-opacity:1;"/>
<path d="M9.97161 27.4097H17.9489C23.4568 27.4097 27.9205 23.0277 27.9205 17.6206V9.7892C27.9205 4.382 23.4568 0 17.9489 0H9.97161C4.46365 0 0 4.382 0 9.7892V17.6206C0 23.0277 4.46365 27.4097 9.97161 27.4097ZM3.98864 9.7892C3.98864 6.54631 6.66829 3.91568 9.97161 3.91568H17.9489C21.2523 3.91568 23.9319 6.54631 23.9319 9.7892V17.6206C23.9319 20.8635 21.2523 23.4941 17.9489 23.4941H9.97161C6.66829 23.4941 3.98864 20.8635 3.98864 17.6206V9.7892Z" fill="#2C2D2E" style="fill:#2C2D2E;fill:color(display-p3 0.1725 0.1765 0.1804);fill-opacity:1;"/>
<path d="M13.9595 19.5791C17.2638 19.5791 19.9425 16.9494 19.9425 13.7055C19.9425 10.4617 17.2638 7.83203 13.9595 7.83203C10.6552 7.83203 7.97656 10.4617 7.97656 13.7055C7.97656 16.9494 10.6552 19.5791 13.9595 19.5791Z" fill="#2C2D2E" style="fill:#2C2D2E;fill:color(display-p3 0.1725 0.1765 0.1804);fill-opacity:1;"/>
<path d="M153.562 0H145.585C140.077 0 135.613 4.382 135.613 9.7892V17.6206C135.613 23.0277 140.077 27.4097 145.585 27.4097H153.562C159.07 27.4097 163.534 23.0277 163.534 17.6206V9.7892C163.534 4.382 159.07 0 153.562 0ZM159.545 17.6206C159.545 20.8635 156.866 23.4941 153.562 23.4941H145.585C142.282 23.4941 139.602 20.8635 139.602 17.6206V9.7892C139.602 6.54631 142.282 3.91568 145.585 3.91568H153.562C156.866 3.91568 159.545 6.54631 159.545 9.7892V17.6206Z" fill="#2C2D2E" style="fill:#2C2D2E;fill:color(display-p3 0.1725 0.1765 0.1804);fill-opacity:1;"/>
<path d="M149.575 19.5791C152.879 19.5791 155.558 16.9494 155.558 13.7055C155.558 10.4617 152.879 7.83203 149.575 7.83203C146.271 7.83203 143.592 10.4617 143.592 13.7055C143.592 16.9494 146.271 19.5791 149.575 19.5791Z" fill="#2C2D2E" style="fill:#2C2D2E;fill:color(display-p3 0.1725 0.1765 0.1804);fill-opacity:1;"/>
<path d="M17.9489 133.133H9.97161C4.46365 133.133 0 137.515 0 142.922V150.753C0 156.161 4.46365 160.543 9.97161 160.543H17.9489C23.4568 160.543 27.9205 156.161 27.9205 150.753V142.922C27.9205 137.515 23.4568 133.133 17.9489 133.133ZM23.9319 150.753C23.9319 153.996 21.2523 156.627 17.9489 156.627H9.97161C6.66829 156.627 3.98864 153.996 3.98864 150.753V142.922C3.98864 139.679 6.66829 137.049 9.97161 137.049H17.9489C21.2523 137.049 23.9319 139.679 23.9319 142.922V150.753Z" fill="#2C2D2E" style="fill:#2C2D2E;fill:color(display-p3 0.1725 0.1765 0.1804);fill-opacity:1;"/>
<path d="M13.9595 152.712C17.2638 152.712 19.9425 150.082 19.9425 146.838C19.9425 143.595 17.2638 140.965 13.9595 140.965C10.6552 140.965 7.97656 143.595 7.97656 146.838C7.97656 150.082 10.6552 152.712 13.9595 152.712Z" fill="#2C2D2E" style="fill:#2C2D2E;fill:color(display-p3 0.1725 0.1765 0.1804);fill-opacity:1;"/>
</g>
<defs>
<clipPath id="clip0_646_2662">
<rect width="164" height="161" fill="white" style="fill:white;fill-opacity:1;"/>
</clipPath>
</defs>
</svg>
