<svg width="8" height="12" viewBox="0 0 8 12" fill="none" xmlns="http://www.w3.org/2000/svg">
<path d="M1.57838 0.230847L7.72866 5.44649C7.81467 5.51917 7.88291 5.60554 7.92947 5.70063C7.97603 5.79573 8 5.89769 8 6.00065C8 6.10362 7.97603 6.20558 7.92947 6.30067C7.88291 6.39577 7.81467 6.48213 7.72866 6.55481L1.57838 11.7705C1.40507 11.9174 1.17001 12 0.924911 12C0.679813 12 0.444754 11.9174 0.271444 11.7705C0.0981335 11.6235 0.000768952 11.4241 0.000768949 11.2163C0.000768947 11.0084 0.0981335 10.8091 0.271444 10.6621L5.76903 6L0.270675 1.33787C0.0973651 1.1909 0 0.991557 0 0.783706C0 0.575855 0.0973651 0.376517 0.270675 0.229544C0.443986 0.082571 0.679045 9.53674e-07 0.924143 9.53674e-07C1.16924 9.53674e-07 1.4043 0.082571 1.57761 0.229544L1.57838 0.230847Z" fill="#979797" style="fill:#979797;fill:color(display-p3 0.5922 0.5922 0.5922);fill-opacity:1;"/>
</svg>
